<?xml version="1.0" encoding="UTF-8"?>
<!DOCTYPE svg PUBLIC "-//W3C//DTD SVG 1.1//EN" "http://www.w3.org/Graphics/SVG/1.1/DTD/svg11.dtd">
<!-- Creator: CorelDRAW X8 -->
<svg xmlns="http://www.w3.org/2000/svg" xml:space="preserve" width="665.858mm" height="230.676mm" version="1.1" style="shape-rendering:geometricPrecision; text-rendering:geometricPrecision; image-rendering:optimizeQuality; fill-rule:evenodd; clip-rule:evenodd"
viewBox="0 0 66995 23209"
 xmlns:xlink="http://www.w3.org/1999/xlink">
 <defs>
  <style type="text/css">
   <![CDATA[
    .fil2 {fill:none}
    .fil1 {fill:#5A4296}
    .fil0 {fill:#4C397A}
   ]]>
  </style>
   <clipPath id="id0">
    <path d="M0 0l66995 0 0 23209 -66995 0 0 -23209z"/>
   </clipPath>
 </defs>
 <g id="Capa_x0020_1">
  <metadata id="CorelCorpID_0Corel-Layer"/>
  <polygon class="fil0" points="0,0 66995,0 66995,23209 0,23209 "/>
  <g style="clip-path:url(#id0)">
   <g id="_2358311392176">
    <path id="1" class="fil1" d="M40750 -8285l-3037 -3037c-261,-262 -685,-262 -946,0l-3067 3067c-95,95 -236,253 -236,503l0 3675c0,370 286,669 702,669l1761 0 0 -5405 1272 0 0 1158c96,-186 210,-353 341,-501 131,-149 272,-278 424,-388 151,-110 305,-195 460,-253 155,-59 305,-88 449,-88l171 0c38,0 74,3 108,10l0 1261c-420,7 -796,88 -1126,243 -331,155 -569,388 -714,698l0 3265 3035 0c370,0 670,-299 670,-669l0 -3675c0,-218 -103,-369 -267,-533zm30966 23183c0,-498 84,-969 252,-1413 167,-444 410,-834 727,-1169 318,-336 702,-603 1152,-802 449,-200 957,-300 1521,-300 759,0 1405,168 1939,503 533,336 932,775 1197,1319l-1733 544c-150,-263 -349,-465 -596,-605 -247,-141 -520,-211 -820,-211 -256,0 -494,52 -715,157 -220,104 -412,249 -575,434 -163,186 -291,411 -384,673 -92,263 -139,553 -139,870 0,318 49,608 146,870 97,263 227,490 390,680 163,190 355,338 576,442 220,104 454,156 701,156 318,0 611,-81 880,-245 269,-163 457,-362 562,-598l1734 544c-239,544 -631,988 -1178,1332 -547,345 -1204,517 -1971,517 -565,0 -1072,-100 -1522,-299 -450,-199 -834,-469 -1151,-809 -318,-340 -563,-734 -735,-1183 -172,-448 -258,-917 -258,-1407zm893 -9152l-1649 -1648c-141,-142 -371,-142 -513,0l-1665 1664c-51,52 -128,138 -128,273l0 1995c0,200 156,363 381,363l956 0 0 -2934 690 0 0 629c52,-101 114,-192 185,-272 71,-81 148,-151 230,-211 82,-60 166,-105 250,-137 84,-32 165,-48 244,-48l92 0c21,0 41,2 59,6l0 684c-228,4 -432,48 -611,132 -180,84 -309,210 -387,379l0 1772 1647 0c201,0 363,-163 363,-363l0 -1995c0,-118 -55,-200 -144,-289zm-3223 7644c-182,0 -352,-31 -509,-92 -158,-61 -294,-147 -409,-258 -115,-110 -204,-239 -269,-387 -64,-147 -97,-309 -97,-486 0,-181 40,-350 119,-504 79,-155 189,-286 330,-395 140,-108 309,-192 505,-254 196,-61 411,-92 645,-92 168,0 331,15 492,44 160,30 302,72 426,126l0 -221c0,-256 -70,-452 -211,-590 -141,-137 -351,-206 -628,-206 -200,0 -396,37 -588,111 -191,73 -387,181 -588,324l-294 -626c483,-330 1004,-494 1564,-494 540,0 959,136 1258,409 299,272 448,667 448,1182l0 2372 -817 0 0 -655c-168,225 -371,397 -610,515 -239,118 -495,177 -767,177zm272 -722l0 0c163,0 322,-18 463,-88 573,-287 498,-958 498,-958 -115,-44 -239,-80 -373,-107 -134,-27 -263,-40 -387,-40 -248,0 -452,58 -609,173 -158,115 -237,261 -237,438 0,167 62,306 186,416 125,111 278,166 459,166zm1050 -9169c-926,0 -1629,-305 -2108,-915 -480,-611 -720,-1515 -720,-2712l0 -5776 2296 0 0 5265c0,1421 497,2131 1492,2131 445,0 876,-138 1293,-414 418,-276 757,-695 1020,-1259l0 -5723 2292 0 0 9315 -1949 0 0 -1813c-400,633 -914,1109 -1542,1426 -629,317 -1320,475 -2074,475zm-29236 13438c0,-688 116,-1339 348,-1952 230,-612 565,-1150 1004,-1613 438,-463 968,-832 1589,-1107 620,-275 1320,-413 2100,-413 1047,0 1938,232 2675,694 736,463 1287,1070 1653,1820l-2393 751c-207,-363 -481,-641 -821,-835 -341,-194 -719,-291 -1133,-291 -353,0 -682,72 -986,216 -304,144 -569,344 -794,600 -226,257 -402,566 -530,929 -128,363 -191,763 -191,1201 0,438 66,838 200,1200 134,363 314,676 539,939 225,262 490,465 795,609 304,144 626,216 967,216 439,0 843,-113 1215,-338 371,-225 630,-500 776,-825l2392 750c-329,751 -870,1364 -1625,1839 -755,475 -1662,713 -2721,713 -779,0 -1479,-138 -2100,-413 -621,-275 -1151,-647 -1589,-1116 -438,-469 -776,-1013 -1014,-1633 -237,-619 -356,-1266 -356,-1941zm-6425 4095c-874,0 -1537,-288 -1990,-865 -453,-576 -680,-1429 -680,-2559l0 -5452 2168 0 0 4970c0,1341 469,2011 1408,2011 420,0 827,-130 1221,-391 394,-260 714,-656 963,-1188l0 -5402 2162 0 0 8793 -1839 0 0 -1712c-377,598 -863,1047 -1456,1346 -593,299 -1245,449 -1957,449zm11094 -10306c-667,0 -1173,-220 -1519,-660 -346,-440 -519,-1091 -519,-1954l0 -4161 1655 0 0 3793c0,1024 358,1536 1075,1536 321,0 632,-100 932,-298 301,-199 545,-502 735,-908l0 -4123 1651 0 0 6712 -1404 0 0 -1307c-288,456 -659,799 -1112,1027 -452,229 -951,343 -1494,343zm13608 -12737l0 0c548,0 1085,-61 1559,-298 1932,-967 1680,-3229 1680,-3229 -386,-148 -806,-269 -1257,-360 -451,-91 -886,-136 -1305,-136 -838,0 -1523,195 -2055,583 -532,390 -797,882 -797,1478 0,563 209,1031 628,1403 419,373 935,559 1547,559zm-918 2434c-613,0 -1185,-104 -1716,-310 -533,-207 -992,-497 -1379,-870 -386,-372 -688,-807 -906,-1304 -218,-496 -326,-1043 -326,-1639 0,-612 132,-1179 398,-1701 266,-522 637,-964 1112,-1329 476,-364 1044,-649 1705,-856 660,-207 1385,-311 2175,-311 564,0 1116,50 1656,149 540,99 1019,240 1438,422l0 -745c0,-860 -238,-1523 -713,-1987 -475,-463 -1180,-695 -2115,-695 -677,0 -1338,124 -1982,373 -645,248 -1305,612 -1982,1092l-991 -2111c1627,-1109 3384,-1664 5269,-1664 1821,0 3235,460 4243,1379 1007,919 1510,2247 1510,3986l0 7997 -2755 0 0 -2211c-564,762 -1249,1341 -2055,1739 -806,397 -1668,596 -2586,596zm-5744 -5715l-4202 -4202c-362,-361 -948,-361 -1309,0l-4245 4244c-131,132 -326,351 -326,697l0 5085c0,511 396,926 971,926l2437 0 0 -7480 1760 0 0 1603c133,-258 290,-489 472,-694 181,-205 376,-384 586,-537 210,-152 422,-269 637,-350 214,-81 422,-122 622,-122l236 0c52,0 102,5 150,15l0 1745c-582,9 -1101,121 -1559,336 -458,214 -787,536 -987,965l0 4519 4200 0c511,0 926,-415 926,-926l0 -5085c0,-302 -142,-512 -369,-739zm-14100 8502c-536,0 -942,-177 -1219,-530 -278,-353 -417,-875 -417,-1568l0 -3340 1328 0 0 3045c0,821 288,1232 863,1232 257,0 507,-80 748,-239 241,-160 438,-403 590,-728l0 -3310 1325 0 0 5387 -1127 0 0 -1049c-231,367 -529,642 -892,825 -364,183 -763,275 -1199,275zm22548 2574c-434,0 -764,-143 -990,-430 -225,-286 -338,-711 -338,-1273l0 -2713 1079 0 0 2473c0,667 233,1001 700,1001 210,0 412,-65 608,-195 196,-129 355,-327 479,-591l0 -2688 1076 0 0 4375 -915 0 0 -852c-188,298 -429,521 -725,670 -295,149 -619,223 -974,223zm-2177 -1145l-3036 -3037c-262,-261 -685,-261 -947,0l-3067 3067c-95,95 -236,254 -236,504l0 3675c0,369 287,669 702,669l1762 0 0 -5405 1271 0 0 1157c96,-186 210,-353 341,-501 131,-148 272,-277 424,-388 151,-110 305,-194 460,-253 155,-58 305,-88 450,-88l170 0c38,0 74,4 109,11l0 1261c-421,7 -796,88 -1127,243 -331,155 -569,387 -713,698l0 3265 3035 0c369,0 669,-300 669,-669l0 -3675c0,-219 -103,-370 -267,-534zm6110 1243c-114,0 -221,-19 -320,-58 -99,-39 -185,-93 -257,-162 -72,-70 -129,-151 -169,-243 -41,-93 -61,-195 -61,-306 0,-114 25,-220 74,-317 50,-97 119,-180 208,-248 88,-67 194,-121 317,-159 124,-39 259,-58 406,-58 105,0 208,9 309,28 100,18 190,44 268,78l0 -139c0,-160 -44,-283 -133,-370 -89,-86 -220,-130 -394,-130 -127,0 -250,24 -370,70 -120,46 -243,114 -369,204l-185 -394c303,-207 631,-310 982,-310 340,0 603,85 791,257 188,171 282,419 282,743l0 1491 -514 0 0 -412c-105,142 -233,250 -383,324 -150,74 -311,111 -482,111zm171 -454l0 0c102,0 202,-11 291,-55 360,-181 313,-602 313,-602 -72,-28 -150,-50 -235,-67 -84,-17 -165,-26 -243,-26 -156,0 -284,36 -383,109 -99,72 -149,164 -149,275 0,105 39,192 118,262 78,69 174,104 288,104zm-5592 16390c-327,0 -633,-55 -917,-166 -284,-110 -530,-265 -737,-464 -206,-199 -368,-432 -484,-697 -116,-266 -175,-558 -175,-876 0,-328 72,-631 214,-910 142,-278 340,-515 594,-710 254,-194 558,-347 911,-458 353,-110 741,-166 1163,-166 301,0 596,27 885,80 288,53 544,128 769,226l0 -399c0,-460 -128,-814 -382,-1062 -254,-247 -631,-371 -1130,-371 -362,0 -715,66 -1060,199 -344,133 -697,327 -1059,584l-530 -1128c870,-593 1809,-890 2817,-890 973,0 1729,246 2267,737 539,491 808,1201 808,2130l0 4275 -1473 0 0 -1182c-302,408 -668,717 -1098,929 -431,213 -892,319 -1383,319zm491 -1301l0 0c293,0 580,-32 834,-159 1032,-517 898,-1726 898,-1726 -207,-79 -431,-143 -672,-192 -242,-49 -474,-73 -698,-73 -448,0 -814,104 -1098,312 -285,208 -427,471 -427,790 0,301 112,551 336,750 224,199 500,298 827,298zm-3188 -5120l-1025 -1025c-88,-88 -231,-88 -319,0l-1035 1035c-32,32 -80,86 -80,170l0 1240c0,125 97,226 237,226l594 0 0 -1824 429 0 0 391c33,-63 71,-120 115,-170 45,-49 92,-93 143,-130 51,-37 103,-66 156,-86 52,-20 103,-30 151,-30l58 0c13,0 25,2 36,4l0 426c-141,2 -268,29 -380,82 -111,52 -191,130 -240,235l0 1102 1024 0c124,0 225,-101 225,-226l0 -1240c0,-74 -34,-125 -89,-180zm9425 5211c-565,0 -994,-187 -1287,-559 -293,-373 -440,-925 -440,-1656l0 -3526 1402 0 0 3214c0,868 304,1301 911,1301 272,0 535,-84 790,-252 254,-169 462,-425 622,-769l0 -3494 1399 0 0 5687 -1190 0 0 -1107c-244,387 -558,677 -941,870 -384,194 -806,291 -1266,291zm-8916 -7083c-263,0 -462,-87 -599,-260 -136,-173 -204,-430 -204,-770l0 -1640 652 0 0 1495c0,403 141,605 424,605 126,0 249,-39 367,-118 118,-78 215,-197 290,-357l0 -1625 650 0 0 2645 -553 0 0 -515c-114,180 -260,315 -438,405 -179,90 -375,135 -589,135zm2908 -3006c0,-499 84,-970 251,-1414 168,-444 410,-834 728,-1169 317,-335 701,-603 1151,-802 450,-200 957,-299 1522,-299 758,0 1404,167 1938,503 534,335 933,774 1197,1318l-1733 544c-150,-263 -348,-464 -595,-605 -247,-141 -521,-211 -821,-211 -256,0 -494,52 -714,157 -221,104 -413,249 -576,435 -163,185 -291,410 -383,672 -93,263 -139,553 -139,871 0,317 48,607 145,869 97,263 227,490 391,680 163,190 355,338 575,442 220,104 454,156 701,156 318,0 611,-81 880,-244 269,-164 457,-363 563,-599l1733 544c-238,544 -631,988 -1178,1332 -547,345 -1204,517 -1971,517 -565,0 -1072,-100 -1522,-299 -450,-199 -833,-469 -1151,-809 -318,-340 -562,-734 -734,-1183 -172,-448 -258,-917 -258,-1406zm-9106 1700c0,-234 40,-455 118,-663 79,-209 193,-392 342,-549 149,-157 329,-283 540,-377 211,-93 449,-140 714,-140 356,0 660,79 910,236 251,157 438,364 562,619l-814 255c-70,-123 -163,-218 -279,-284 -116,-66 -244,-99 -385,-99 -120,0 -232,25 -335,74 -104,49 -194,117 -270,204 -77,87 -137,192 -180,316 -44,123 -66,259 -66,408 0,149 23,285 69,408 45,124 106,230 183,319 76,90 166,159 270,208 103,49 213,73 329,73 149,0 287,-38 413,-115 126,-76 214,-170 264,-281l813 256c-111,255 -296,463 -552,625 -257,162 -565,242 -926,242 -264,0 -503,-47 -714,-140 -211,-93 -391,-220 -540,-380 -149,-159 -264,-344 -345,-555 -80,-210 -121,-430 -121,-660zm-56119 -9636l-3037 -3037c-261,-261 -684,-261 -946,0l-3067 3068c-95,94 -236,253 -236,503l0 3675c0,369 286,669 702,669l1761 0 0 -5405 1272 0 0 1158c96,-186 210,-353 341,-502 131,-148 272,-277 424,-387 151,-111 305,-195 460,-254 155,-58 305,-88 449,-88l171 0c38,0 74,4 108,11l0 1261c-420,7 -795,88 -1126,243 -331,155 -569,387 -714,698l0 3265 3036 0c369,0 669,-300 669,-669l0 -3675c0,-218 -103,-370 -267,-534zm30967 23184c0,-498 83,-970 251,-1414 167,-444 410,-833 727,-1169 318,-335 702,-602 1152,-802 450,-199 957,-299 1521,-299 759,0 1405,168 1939,503 533,336 933,775 1197,1319l-1733 543c-150,-262 -349,-464 -595,-604 -248,-141 -521,-211 -821,-211 -256,0 -494,52 -714,156 -221,105 -413,250 -576,435 -163,186 -291,410 -384,673 -92,263 -139,553 -139,870 0,318 49,607 146,870 97,263 227,489 390,680 163,190 355,337 576,442 220,104 454,156 701,156 318,0 611,-82 880,-245 269,-163 457,-362 562,-598l1734 544c-238,544 -631,988 -1178,1332 -547,345 -1204,517 -1971,517 -565,0 -1072,-100 -1522,-299 -450,-200 -834,-469 -1151,-809 -318,-340 -562,-734 -734,-1183 -173,-449 -258,-917 -258,-1407zm892 -9153l-1648 -1648c-142,-142 -372,-142 -514,0l-1665 1665c-51,51 -128,138 -128,273l0 1995c0,200 156,363 381,363l956 0 0 -2934 690 0 0 629c52,-101 114,-192 185,-273 71,-80 148,-150 230,-210 83,-60 166,-106 250,-137 84,-32 166,-48 244,-48l93 0c20,0 40,2 58,5l0 685c-228,4 -431,48 -611,132 -180,84 -309,210 -387,379l0 1772 1647 0c201,0 363,-163 363,-363l0 -1995c0,-118 -55,-201 -144,-290zm-3223 7645c-182,0 -351,-31 -509,-92 -158,-62 -294,-148 -409,-258 -115,-111 -204,-240 -269,-387 -64,-147 -96,-309 -96,-486 0,-182 39,-350 118,-505 79,-154 189,-286 330,-394 141,-108 309,-193 505,-254 196,-61 411,-92 646,-92 167,0 331,15 491,44 160,30 302,71 426,125l0 -221c0,-255 -70,-451 -211,-589 -141,-137 -350,-206 -628,-206 -200,0 -396,37 -587,110 -192,74 -388,182 -589,324l-294 -626c483,-329 1004,-493 1564,-493 540,0 959,136 1258,409 299,272 448,666 448,1182l0 2372 -817 0 0 -656c-168,226 -371,398 -610,516 -239,118 -495,177 -767,177zm272 -722l0 0c163,0 322,-18 463,-89 573,-286 498,-957 498,-957 -114,-44 -239,-80 -373,-107 -133,-27 -262,-41 -387,-41 -248,0 -451,58 -609,174 -158,115 -237,261 -237,438 0,167 62,306 187,416 124,111 277,166 458,166zm1050 -9169c-926,0 -1628,-305 -2108,-916 -480,-610 -720,-1514 -720,-2711l0 -5776 2297 0 0 5265c0,1421 497,2131 1491,2131 445,0 877,-138 1294,-414 417,-276 757,-696 1019,-1259l0 -5723 2292 0 0 9315 -1949 0 0 -1814c-400,634 -914,1110 -1542,1427 -629,317 -1320,475 -2074,475zm-29235 13437c0,-687 115,-1338 347,-1951 231,-613 566,-1150 1004,-1613 438,-463 968,-832 1589,-1107 621,-275 1321,-413 2100,-413 1047,0 1938,231 2675,694 737,463 1288,1070 1653,1820l-2392 750c-208,-362 -481,-640 -822,-834 -341,-194 -719,-291 -1132,-291 -354,0 -682,72 -987,216 -304,144 -569,344 -794,600 -226,256 -402,566 -529,929 -129,363 -192,763 -192,1200 0,438 66,838 201,1201 133,363 313,676 538,938 225,263 490,466 795,610 304,144 626,216 968,216 438,0 842,-113 1214,-338 371,-225 630,-500 776,-825l2392 750c-328,750 -870,1363 -1625,1839 -755,475 -1662,713 -2721,713 -779,0 -1479,-138 -2100,-413 -621,-275 -1150,-647 -1589,-1116 -438,-470 -776,-1014 -1013,-1633 -238,-619 -356,-1266 -356,-1942zm-6426 4095c-874,0 -1537,-288 -1990,-864 -453,-576 -680,-1429 -680,-2559l0 -5452 2168 0 0 4969c0,1341 470,2012 1408,2012 420,0 827,-130 1221,-391 394,-260 715,-656 963,-1188l0 -5402 2163 0 0 8792 -1840 0 0 -1711c-377,598 -863,1047 -1456,1346 -593,299 -1245,448 -1957,448zm11094 -10305c-667,0 -1173,-220 -1519,-660 -346,-440 -518,-1091 -518,-1954l0 -4161 1654 0 0 3793c0,1024 359,1535 1075,1535 321,0 632,-99 932,-298 301,-198 545,-501 735,-907l0 -4123 1651 0 0 6711 -1404 0 0 -1306c-288,456 -659,799 -1111,1027 -453,229 -951,343 -1495,343zm13608 -12737l0 0c548,0 1085,-61 1560,-298 1931,-967 1680,-3229 1680,-3229 -387,-149 -806,-269 -1258,-360 -451,-91 -886,-136 -1305,-136 -838,0 -1522,194 -2054,583 -532,389 -798,882 -798,1478 0,563 209,1031 628,1403 419,373 935,559 1547,559zm-918 2434c-613,0 -1185,-104 -1716,-311 -532,-207 -992,-496 -1379,-869 -386,-373 -688,-807 -906,-1304 -217,-497 -326,-1043 -326,-1639 0,-612 133,-1180 399,-1701 266,-522 636,-964 1111,-1329 476,-364 1044,-649 1705,-857 660,-207 1386,-310 2175,-310 564,0 1116,49 1656,149 540,99 1019,240 1439,422l0 -745c0,-861 -238,-1523 -714,-1987 -475,-463 -1180,-695 -2115,-695 -677,0 -1338,124 -1982,372 -645,249 -1305,613 -1982,1093l-991 -2111c1627,-1109 3384,-1664 5270,-1664 1821,0 3235,459 4242,1378 1007,919 1511,2248 1511,3986l0 7997 -2756 0 0 -2210c-564,762 -1249,1341 -2055,1739 -806,397 -1668,596 -2586,596zm-5744 -5715l-4202 -4202c-361,-362 -948,-362 -1309,0l-4244 4244c-132,131 -327,351 -327,696l0 5086c0,511 397,926 971,926l2437 0 0 -7480 1760 0 0 1602c133,-257 291,-488 472,-693 181,-205 377,-384 586,-537 210,-152 422,-269 637,-350 214,-81 422,-122 622,-122l236 0c53,0 103,5 150,14l0 1746c-581,9 -1101,121 -1559,336 -457,214 -787,536 -987,965l0 4519 4200 0c511,0 926,-415 926,-926l0 -5086c0,-302 -142,-511 -369,-738zm-14100 8501c-535,0 -942,-176 -1219,-529 -278,-353 -417,-876 -417,-1568l0 -3340 1328 0 0 3045c0,821 288,1232 863,1232 257,0 507,-80 748,-239 241,-160 438,-403 590,-729l0 -3309 1325 0 0 5387 -1127 0 0 -1049c-231,366 -529,641 -892,825 -363,183 -763,274 -1199,274zm22549 2575c-435,0 -765,-143 -990,-430 -226,-287 -339,-711 -339,-1274l0 -2712 1079 0 0 2473c0,667 234,1000 700,1000 210,0 412,-64 608,-194 196,-130 356,-327 479,-591l0 -2688 1076 0 0 4375 -915 0 0 -852c-188,298 -429,521 -724,670 -296,149 -620,223 -974,223zm-2177 -1145l-3037 -3037c-262,-261 -685,-261 -946,0l-3068 3067c-94,95 -236,254 -236,503l0 3676c0,369 287,669 702,669l1762 0 0 -5406 1271 0 0 1158c96,-186 210,-353 341,-501 131,-148 272,-277 424,-388 152,-110 305,-194 460,-253 155,-59 305,-88 450,-88l170 0c38,0 74,4 109,10l0 1262c-421,7 -796,87 -1127,243 -331,155 -569,387 -713,697l0 3266 3035 0c369,0 669,-300 669,-669l0 -3676c0,-218 -102,-369 -266,-533zm6109 1243c-114,0 -221,-20 -320,-58 -99,-39 -185,-93 -257,-162 -72,-70 -128,-151 -169,-243 -40,-93 -61,-195 -61,-306 0,-114 25,-220 75,-317 49,-97 118,-180 207,-248 89,-68 194,-121 318,-160 123,-38 258,-57 405,-57 105,0 208,9 309,27 100,19 190,45 268,79l0 -139c0,-160 -44,-284 -133,-370 -89,-87 -220,-130 -394,-130 -126,0 -250,23 -370,70 -120,46 -243,114 -369,203l-185 -393c303,-207 631,-310 982,-310 340,0 603,85 791,257 188,171 282,419 282,743l0 1490 -514 0 0 -412c-105,142 -233,250 -383,324 -150,75 -311,112 -482,112zm171 -454l0 0c102,0 202,-11 291,-56 360,-180 313,-602 313,-602 -72,-27 -150,-50 -234,-67 -84,-17 -166,-25 -244,-25 -156,0 -284,36 -383,109 -99,72 -148,164 -148,275 0,105 39,192 117,262 78,69 174,104 288,104zm-5592 16390c-327,0 -633,-56 -917,-166 -284,-111 -530,-265 -736,-465 -207,-199 -369,-431 -485,-697 -116,-265 -174,-557 -174,-876 0,-327 71,-630 213,-909 142,-279 340,-515 594,-710 254,-195 558,-347 911,-458 353,-111 741,-166 1163,-166 301,0 596,27 885,80 288,53 545,128 769,225l0 -398c0,-460 -128,-814 -382,-1062 -254,-247 -631,-371 -1130,-371 -362,0 -715,66 -1059,199 -345,132 -698,327 -1060,584l-530 -1128c870,-593 1809,-890 2817,-890 973,0 1729,246 2267,737 539,491 808,1201 808,2130l0 4274 -1473 0 0 -1181c-302,407 -667,717 -1098,929 -431,213 -892,319 -1383,319zm491 -1301l0 0c293,0 580,-33 834,-159 1032,-517 898,-1726 898,-1726 -207,-79 -431,-144 -672,-192 -241,-49 -474,-73 -698,-73 -448,0 -814,104 -1098,312 -284,208 -427,471 -427,789 0,301 113,551 336,750 224,199 500,299 827,299zm-3188 -5120l-1025 -1025c-88,-88 -231,-88 -319,0l-1035 1035c-32,32 -80,85 -80,170l0 1240c0,124 97,225 237,225l594 0 0 -1823 429 0 0 390c33,-62 71,-119 116,-169 44,-50 91,-93 143,-131 51,-37 102,-65 155,-85 52,-20 103,-30 151,-30l58 0c13,0 25,1 37,4l0 425c-142,3 -269,30 -381,82 -111,53 -191,131 -240,236l0 1101 1024 0c125,0 226,-101 226,-225l0 -1240c0,-74 -35,-125 -90,-180zm9425 5210c-565,0 -994,-186 -1287,-559 -293,-372 -440,-924 -440,-1655l0 -3526 1403 0 0 3214c0,867 303,1301 910,1301 272,0 535,-84 790,-253 254,-168 462,-424 622,-768l0 -3494 1399 0 0 5687 -1189 0 0 -1108c-245,387 -559,678 -942,871 -384,194 -806,290 -1266,290zm-8916 -7082c-263,0 -462,-87 -598,-260 -137,-174 -205,-430 -205,-770l0 -1640 652 0 0 1495c0,403 141,605 424,605 126,0 249,-39 367,-118 119,-78 215,-197 290,-357l0 -1625 650 0 0 2645 -553 0 0 -515c-114,180 -260,315 -438,405 -178,90 -375,135 -589,135zm2908 -3007c0,-498 84,-969 251,-1414 168,-443 410,-833 728,-1169 318,-335 701,-602 1151,-802 450,-199 957,-299 1522,-299 758,0 1404,168 1938,503 534,336 933,775 1198,1319l-1734 544c-150,-263 -348,-465 -595,-605 -247,-141 -521,-211 -820,-211 -256,0 -495,52 -715,156 -220,105 -412,250 -576,435 -163,186 -291,410 -383,673 -93,263 -139,553 -139,870 0,318 48,607 145,870 97,263 227,490 391,680 163,190 355,338 575,442 220,104 454,156 702,156 317,0 610,-81 879,-245 269,-163 457,-362 563,-598l1733 544c-238,544 -631,988 -1178,1332 -547,345 -1203,517 -1971,517 -565,0 -1072,-100 -1522,-299 -450,-199 -833,-469 -1151,-809 -317,-340 -562,-734 -734,-1183 -172,-448 -258,-917 -258,-1407zm-9106 1701c0,-234 40,-455 119,-664 78,-208 192,-391 341,-548 149,-158 329,-283 540,-377 211,-93 449,-140 714,-140 356,0 660,78 910,236 251,157 438,364 562,619l-813 255c-71,-123 -164,-218 -280,-284 -116,-66 -244,-99 -385,-99 -120,0 -232,25 -335,73 -104,49 -194,117 -270,205 -77,87 -137,192 -180,315 -44,124 -66,260 -66,409 0,149 23,285 69,408 45,124 106,230 183,319 77,89 167,159 270,207 103,49 213,74 329,74 149,0 287,-38 413,-115 126,-77 214,-170 264,-281l814 255c-112,256 -296,464 -553,626 -257,161 -565,242 -925,242 -265,0 -503,-47 -714,-140 -212,-94 -392,-220 -541,-380 -149,-159 -264,-344 -344,-555 -81,-210 -122,-431 -122,-660zm-6185 14780l-3037 -3037c-261,-262 -685,-262 -946,0l-3067 3067c-95,95 -237,253 -237,503l0 3675c0,370 287,669 702,669l1762 0 0 -5405 1271 0 0 1158c97,-186 210,-353 341,-501 131,-149 273,-278 424,-388 152,-110 305,-195 460,-253 155,-59 305,-88 450,-88l171 0c37,0 74,3 108,10l0 1261c-420,7 -796,88 -1127,243 -331,155 -568,388 -713,698l0 3265 3035 0c370,0 669,-299 669,-669l0 -3675c0,-218 -102,-370 -266,-533zm30966 23183c0,-498 84,-969 252,-1413 167,-444 410,-834 727,-1169 318,-336 701,-603 1151,-803 450,-199 957,-299 1522,-299 758,0 1405,168 1938,503 534,336 933,775 1198,1319l-1733 544c-151,-263 -349,-465 -596,-605 -247,-141 -521,-211 -820,-211 -256,0 -494,52 -715,156 -220,105 -412,250 -575,435 -164,186 -291,411 -384,673 -93,263 -139,553 -139,870 0,318 48,608 146,870 96,263 227,490 390,680 163,190 355,338 576,442 220,104 454,156 701,156 317,0 610,-81 880,-245 269,-163 456,-362 562,-598l1733 544c-238,544 -631,988 -1177,1332 -547,345 -1204,517 -1972,517 -564,0 -1072,-100 -1521,-299 -450,-199 -834,-469 -1152,-809 -317,-340 -562,-734 -734,-1183 -172,-448 -258,-917 -258,-1407zm892 -9152l-1648 -1648c-142,-142 -372,-142 -513,0l-1665 1664c-52,52 -128,138 -128,273l0 1995c0,200 155,363 381,363l956 0 0 -2934 690 0 0 629c52,-101 114,-192 185,-272 71,-81 148,-151 230,-211 82,-60 165,-105 250,-137 84,-32 165,-48 244,-48l92 0c21,0 40,2 59,6l0 684c-228,4 -432,48 -611,132 -180,84 -309,210 -388,379l0 1772 1648 0c200,0 363,-163 363,-363l0 -1995c0,-118 -56,-200 -145,-289zm-3222 7644c-182,0 -352,-31 -509,-92 -158,-61 -294,-147 -409,-258 -115,-110 -205,-239 -269,-387 -65,-147 -97,-309 -97,-486 0,-182 40,-350 118,-504 79,-155 189,-286 330,-395 141,-108 310,-192 506,-254 196,-61 411,-92 645,-92 167,0 331,15 491,44 160,30 302,72 427,126l0 -221c0,-256 -71,-452 -212,-590 -141,-137 -350,-206 -627,-206 -201,0 -397,37 -588,110 -191,74 -387,182 -588,325l-294 -627c483,-329 1004,-493 1563,-493 540,0 960,136 1259,409 298,272 448,667 448,1182l0 2372 -818 0 0 -655c-167,225 -370,397 -609,515 -239,118 -495,177 -767,177zm272 -722l0 0c163,0 322,-18 463,-88 573,-287 498,-958 498,-958 -115,-44 -239,-80 -373,-107 -134,-27 -263,-40 -387,-40 -249,0 -452,58 -610,173 -157,115 -236,261 -236,438 0,167 62,306 186,416 124,111 277,166 459,166zm1049 -9169c-925,0 -1628,-305 -2108,-915 -480,-611 -720,-1515 -720,-2712l0 -5776 2297 0 0 5265c0,1421 497,2131 1491,2131 446,0 877,-138 1294,-414 417,-276 757,-695 1020,-1259l0 -5723 2291 0 0 9315 -1948 0 0 -1813c-400,633 -914,1109 -1543,1426 -628,317 -1319,475 -2074,475zm-29235 13438c0,-688 116,-1339 347,-1952 231,-612 566,-1150 1004,-1613 439,-463 968,-832 1589,-1107 621,-275 1321,-413 2100,-413 1047,0 1939,232 2676,694 736,463 1287,1070 1652,1820l-2392 751c-207,-363 -481,-641 -822,-835 -341,-194 -718,-291 -1132,-291 -353,0 -682,72 -986,216 -304,144 -569,344 -794,600 -226,257 -402,566 -530,929 -128,363 -192,763 -192,1201 0,438 67,838 201,1200 134,363 314,676 539,939 225,262 490,465 794,609 304,144 627,216 968,216 438,0 843,-113 1214,-338 372,-225 631,-500 777,-825l2392 750c-329,751 -871,1364 -1625,1839 -756,475 -1662,713 -2721,713 -780,0 -1480,-138 -2100,-413 -622,-275 -1151,-647 -1589,-1116 -439,-469 -776,-1013 -1014,-1633 -237,-619 -356,-1266 -356,-1941zm-6426 4095c-873,0 -1536,-288 -1989,-865 -454,-576 -680,-1429 -680,-2559l0 -5452 2168 0 0 4970c0,1341 469,2011 1407,2011 421,0 828,-130 1222,-391 393,-260 714,-656 962,-1188l0 -5402 2163 0 0 8793 -1839 0 0 -1712c-378,598 -863,1047 -1456,1346 -593,299 -1246,449 -1958,449zm11095 -10306c-667,0 -1173,-220 -1519,-660 -346,-440 -519,-1091 -519,-1954l0 -4161 1655 0 0 3793c0,1024 358,1536 1074,1536 322,0 632,-100 933,-298 300,-199 545,-502 735,-908l0 -4123 1651 0 0 6712 -1405 0 0 -1307c-288,456 -658,799 -1111,1027 -453,229 -951,343 -1494,343zm13608 -12737l0 0c547,0 1085,-61 1559,-298 1932,-967 1680,-3229 1680,-3229 -387,-148 -806,-269 -1257,-360 -451,-91 -886,-136 -1305,-136 -838,0 -1523,195 -2055,583 -532,389 -798,882 -798,1478 0,563 210,1031 629,1403 419,373 934,559 1547,559zm-919 2434c-612,0 -1184,-104 -1716,-310 -532,-207 -991,-497 -1378,-870 -387,-372 -689,-807 -906,-1304 -218,-496 -327,-1043 -327,-1639 0,-612 133,-1179 399,-1701 266,-522 637,-964 1112,-1329 475,-364 1043,-649 1704,-856 661,-207 1386,-311 2176,-311 564,0 1116,50 1656,149 539,99 1019,240 1438,422l0 -745c0,-860 -238,-1523 -713,-1987 -476,-463 -1181,-695 -2115,-695 -677,0 -1338,124 -1982,372 -645,249 -1306,613 -1983,1093l-991 -2111c1628,-1109 3385,-1664 5270,-1664 1821,0 3235,460 4242,1379 1008,918 1511,2247 1511,3986l0 7997 -2755 0 0 -2211c-565,762 -1249,1341 -2055,1739 -806,397 -1668,596 -2587,596zm-5743 -5715l-4202 -4202c-362,-361 -948,-361 -1310,0l-4244 4244c-131,132 -327,351 -327,697l0 5085c0,511 397,926 972,926l2437 0 0 -7480 1759 0 0 1603c134,-258 291,-489 473,-694 181,-205 376,-384 586,-537 210,-152 422,-269 637,-350 214,-81 422,-122 622,-122l236 0c52,0 102,5 150,15l0 1745c-582,9 -1101,121 -1559,336 -458,214 -787,536 -987,965l0 4519 4200 0c511,0 925,-415 925,-926l0 -5085c0,-302 -141,-512 -368,-739zm-14101 8502c-535,0 -941,-177 -1219,-530 -277,-353 -416,-875 -416,-1568l0 -3340 1328 0 0 3045c0,821 288,1232 862,1232 258,0 507,-80 749,-239 241,-160 437,-403 589,-728l0 -3310 1325 0 0 5387 -1126 0 0 -1049c-232,367 -529,642 -892,825 -364,183 -764,275 -1200,275zm22549 2574c-434,0 -765,-143 -990,-430 -225,-286 -338,-711 -338,-1273l0 -2713 1079 0 0 2473c0,667 233,1000 700,1000 209,0 412,-64 608,-194 196,-129 355,-327 479,-591l0 -2688 1076 0 0 4375 -915 0 0 -852c-188,298 -430,521 -725,670 -295,149 -620,223 -974,223zm-2177 -1145l-3037 -3037c-261,-261 -685,-261 -946,0l-3067 3067c-95,95 -236,254 -236,504l0 3675c0,369 286,669 702,669l1761 0 0 -5405 1272 0 0 1157c96,-186 210,-353 341,-501 131,-148 272,-277 424,-388 151,-110 305,-194 460,-253 155,-58 305,-88 449,-88l171 0c38,0 74,4 108,11l0 1261c-420,7 -796,88 -1126,243 -331,155 -569,387 -714,698l0 3265 3035 0c370,0 670,-300 670,-669l0 -3675c0,-219 -103,-370 -267,-534zm6109 1243c-114,0 -220,-20 -319,-58 -100,-39 -185,-93 -257,-162 -72,-70 -129,-151 -169,-243 -41,-93 -61,-195 -61,-306 0,-114 25,-220 74,-317 50,-97 119,-180 207,-248 89,-67 195,-121 318,-159 123,-39 258,-58 406,-58 105,0 208,9 308,28 101,18 190,44 269,78l0 -139c0,-160 -45,-284 -133,-370 -89,-86 -220,-130 -395,-130 -126,0 -249,23 -369,70 -120,46 -244,114 -370,204l-184 -394c303,-207 630,-310 982,-310 339,0 603,85 791,257 187,171 281,419 281,743l0 1491 -513 0 0 -412c-106,142 -233,250 -383,324 -151,74 -311,111 -483,111zm172 -454l0 0c102,0 202,-11 290,-56 360,-180 314,-601 314,-601 -73,-28 -151,-51 -235,-68 -84,-16 -165,-25 -243,-25 -156,0 -284,36 -383,109 -99,72 -149,164 -149,275 0,105 39,192 117,262 78,69 174,104 289,104zm-5592 16390c-327,0 -633,-55 -917,-166 -285,-110 -530,-265 -737,-464 -207,-200 -368,-432 -484,-697 -117,-266 -175,-558 -175,-876 0,-328 71,-631 213,-910 143,-278 341,-515 595,-710 254,-194 557,-347 911,-458 353,-110 740,-166 1162,-166 302,0 597,27 885,80 289,53 545,128 769,226l0 -399c0,-460 -127,-814 -381,-1062 -254,-247 -631,-371 -1130,-371 -362,0 -715,66 -1060,199 -344,133 -698,327 -1059,584l-530 -1128c870,-593 1809,-890 2816,-890 974,0 1730,246 2268,737 538,491 807,1201 807,2130l0 4275 -1472 0 0 -1182c-302,408 -668,717 -1099,929 -430,213 -891,319 -1382,319zm491 -1301l0 0c293,0 580,-32 833,-159 1033,-517 898,-1726 898,-1726 -207,-79 -431,-143 -672,-192 -241,-49 -473,-73 -697,-73 -448,0 -814,104 -1099,312 -284,208 -426,471 -426,790 0,301 112,551 336,750 224,199 500,298 827,298zm-3189 -5120l-1024 -1025c-89,-88 -231,-88 -320,0l-1034 1035c-33,32 -80,86 -80,170l0 1240c0,125 97,226 237,226l594 0 0 -1824 429 0 0 391c33,-63 71,-120 115,-170 44,-50 92,-93 143,-130 51,-37 103,-66 155,-86 53,-20 103,-30 152,-30l58 0c12,0 24,2 36,4l0 426c-142,2 -268,29 -380,82 -112,52 -192,130 -241,235l0 1102 1024 0c125,0 226,-101 226,-226l0 -1240c0,-74 -34,-125 -90,-180zm9425 5210c-564,0 -994,-186 -1286,-558 -294,-373 -440,-925 -440,-1656l0 -3526 1402 0 0 3214c0,868 304,1301 910,1301 272,0 536,-84 790,-252 255,-169 462,-425 623,-769l0 -3494 1399 0 0 5687 -1190 0 0 -1107c-244,387 -558,677 -942,870 -383,194 -805,290 -1266,290zm-8915 -7082c-263,0 -463,-87 -599,-260 -136,-173 -204,-430 -204,-770l0 -1640 652 0 0 1495c0,403 141,605 423,605 127,0 249,-39 368,-118 118,-78 215,-197 289,-357l0 -1625 651 0 0 2645 -553 0 0 -515c-114,180 -260,315 -438,405 -179,90 -375,135 -589,135zm2907 -3006c0,-499 84,-970 252,-1414 167,-444 410,-834 727,-1169 318,-335 702,-603 1152,-802 450,-200 957,-299 1521,-299 759,0 1405,167 1939,503 533,335 933,774 1197,1318l-1733 544c-150,-263 -349,-465 -595,-605 -248,-141 -521,-211 -821,-211 -256,0 -494,52 -715,157 -220,104 -412,249 -575,435 -163,185 -291,410 -384,672 -92,263 -139,553 -139,871 0,317 49,607 146,869 97,263 227,490 390,680 163,190 355,338 576,442 220,104 454,156 701,156 318,0 611,-81 880,-244 269,-164 457,-363 562,-599l1734 544c-239,544 -631,988 -1178,1332 -547,345 -1204,517 -1971,517 -565,0 -1072,-100 -1522,-299 -450,-199 -834,-469 -1151,-809 -318,-340 -563,-734 -735,-1183 -172,-448 -258,-917 -258,-1406zm-9105 1700c0,-234 39,-455 118,-664 79,-208 193,-391 342,-548 149,-158 329,-283 540,-377 211,-93 449,-140 714,-140 356,0 659,79 910,236 250,157 438,364 562,619l-814 255c-70,-123 -163,-218 -279,-284 -116,-66 -245,-99 -385,-99 -120,0 -232,25 -336,74 -103,49 -193,117 -270,204 -76,87 -136,192 -180,316 -43,123 -65,259 -65,408 0,149 23,285 68,408 46,124 107,230 184,319 76,90 166,159 270,208 103,49 213,73 329,73 149,0 286,-38 413,-115 126,-76 214,-170 264,-281l813 256c-112,255 -296,463 -553,625 -256,162 -565,242 -925,242 -265,0 -503,-47 -714,-140 -211,-93 -391,-220 -540,-380 -149,-159 -264,-344 -345,-555 -81,-210 -121,-430 -121,-660zm33667 -31216l-3037 -3037c-261,-261 -685,-261 -946,0l-3068 3068c-95,94 -236,253 -236,503l0 3675c0,369 287,669 702,669l1762 0 0 -5405 1271 0 0 1158c97,-186 210,-354 341,-502 131,-148 272,-277 424,-388 152,-110 305,-194 460,-253 155,-58 305,-88 450,-88l170 0c38,0 74,4 109,11l0 1261c-421,7 -796,88 -1127,243 -331,155 -569,387 -713,698l0 3265 3035 0c369,0 669,-300 669,-669l0 -3675c0,-218 -102,-370 -266,-534zm30966 23184c0,-498 84,-970 251,-1414 168,-444 410,-833 728,-1169 318,-335 701,-602 1151,-802 450,-199 957,-299 1522,-299 758,0 1404,168 1938,503 534,336 933,775 1198,1319l-1734 543c-150,-262 -348,-464 -595,-604 -247,-141 -521,-211 -820,-211 -256,0 -495,52 -715,156 -221,105 -412,250 -576,435 -163,186 -291,410 -383,673 -93,263 -139,553 -139,870 0,317 48,607 145,870 97,263 227,489 391,680 163,190 355,337 575,442 221,104 454,156 702,156 317,0 610,-82 879,-245 269,-163 457,-362 563,-598l1733 544c-238,544 -631,988 -1177,1332 -548,345 -1205,517 -1972,517 -565,0 -1072,-100 -1522,-299 -450,-200 -833,-469 -1151,-809 -317,-340 -562,-734 -734,-1183 -172,-449 -258,-917 -258,-1407zm892 -9153l-1648 -1648c-142,-142 -372,-142 -514,0l-1664 1665c-52,51 -129,138 -129,273l0 1995c0,200 156,363 381,363l957 0 0 -2934 690 0 0 629c52,-101 114,-192 185,-273 71,-80 147,-150 230,-210 82,-60 165,-106 249,-137 85,-32 166,-48 244,-48l93 0c21,0 40,2 59,5l0 685c-228,4 -432,48 -612,132 -179,84 -308,210 -387,379l0 1772 1648 0c200,0 363,-163 363,-363l0 -1995c0,-118 -56,-201 -145,-290zm-3223 7645c-181,0 -351,-31 -509,-92 -157,-62 -294,-148 -408,-258 -115,-111 -205,-240 -269,-387 -65,-147 -97,-309 -97,-486 0,-182 39,-350 118,-505 79,-154 189,-286 330,-394 141,-108 309,-193 506,-254 195,-61 411,-92 645,-92 167,0 331,15 491,44 160,30 302,71 427,125l0 -221c0,-255 -71,-451 -212,-589 -141,-137 -350,-206 -627,-206 -201,0 -397,37 -588,110 -191,74 -387,182 -588,324l-294 -626c483,-329 1004,-493 1563,-493 540,0 960,136 1258,408 299,273 449,667 449,1183l0 2372 -818 0 0 -656c-167,226 -370,398 -609,516 -239,118 -495,177 -768,177zm273 -722l0 0c162,0 322,-18 462,-89 573,-286 499,-957 499,-957 -115,-44 -239,-80 -373,-107 -134,-27 -263,-41 -387,-41 -249,0 -452,58 -610,174 -158,115 -236,261 -236,438 0,167 62,306 186,416 124,111 277,166 459,166zm1049 -9169c-925,0 -1628,-305 -2108,-916 -480,-610 -720,-1514 -720,-2711l0 -5776 2297 0 0 5265c0,1421 497,2131 1491,2131 446,0 877,-138 1294,-414 417,-276 757,-696 1020,-1259l0 -5723 2291 0 0 9315 -1948 0 0 -1814c-400,634 -915,1110 -1543,1427 -628,317 -1320,475 -2074,475zm-29235 13437c0,-687 116,-1338 347,-1951 231,-613 566,-1150 1004,-1613 439,-463 968,-832 1589,-1107 621,-275 1321,-413 2100,-413 1047,0 1939,231 2675,694 737,463 1288,1070 1653,1820l-2392 750c-207,-362 -481,-640 -822,-834 -341,-194 -719,-291 -1132,-291 -353,0 -682,72 -986,216 -305,143 -569,344 -795,600 -225,256 -401,566 -529,929 -128,363 -192,763 -192,1200 0,438 67,838 201,1201 134,363 313,676 539,938 225,263 489,466 794,610 304,144 627,216 968,216 438,0 843,-113 1214,-338 372,-225 631,-500 776,-825l2393 750c-329,750 -871,1363 -1626,1839 -755,475 -1661,713 -2721,713 -779,0 -1479,-138 -2100,-413 -621,-275 -1150,-647 -1589,-1116 -438,-470 -776,-1014 -1013,-1633 -238,-619 -356,-1266 -356,-1942zm-6426 4095c-873,0 -1537,-288 -1990,-864 -453,-576 -679,-1429 -679,-2559l0 -5452 2168 0 0 4969c0,1341 469,2012 1407,2012 421,0 828,-130 1222,-391 393,-260 714,-656 962,-1189l0 -5401 2163 0 0 8792 -1839 0 0 -1712c-378,599 -863,1048 -1456,1347 -594,299 -1246,448 -1958,448zm11095 -10305c-667,0 -1174,-220 -1519,-660 -346,-440 -519,-1091 -519,-1954l0 -4161 1655 0 0 3793c0,1024 358,1535 1074,1535 321,0 632,-99 933,-298 300,-198 545,-501 734,-907l0 -4123 1651 0 0 6711 -1404 0 0 -1306c-288,456 -658,799 -1111,1027 -453,229 -951,343 -1494,343zm13608 -12737l0 0c547,0 1084,-61 1559,-298 1931,-967 1680,-3229 1680,-3229 -387,-149 -806,-269 -1257,-360 -451,-91 -886,-137 -1305,-137 -838,0 -1523,195 -2055,584 -532,389 -798,882 -798,1478 0,563 210,1030 628,1403 420,373 935,559 1548,559zm-919 2434c-612,0 -1185,-104 -1716,-311 -532,-207 -991,-496 -1378,-869 -387,-373 -689,-807 -906,-1304 -218,-497 -327,-1043 -327,-1639 0,-612 133,-1180 399,-1701 266,-522 636,-965 1112,-1329 475,-364 1043,-649 1704,-857 661,-207 1386,-310 2176,-310 564,0 1115,49 1656,149 539,99 1019,240 1438,422l0 -745c0,-861 -238,-1523 -713,-1987 -476,-463 -1181,-695 -2115,-695 -677,0 -1338,124 -1982,372 -645,249 -1306,613 -1983,1093l-991 -2111c1628,-1109 3385,-1664 5270,-1664 1821,0 3235,459 4242,1378 1007,919 1511,2248 1511,3986l0 7997 -2756 0 0 -2210c-564,762 -1249,1341 -2054,1739 -806,397 -1668,596 -2587,596zm-5743 -5715l-4203 -4202c-361,-362 -947,-362 -1309,0l-4244 4244c-131,131 -327,351 -327,696l0 5086c0,511 397,926 971,926l2438 0 0 -7480 1759 0 0 1602c134,-257 291,-488 472,-693 181,-205 377,-384 587,-537 209,-152 422,-269 636,-350 215,-81 422,-122 623,-122l236 0c52,0 102,5 150,14l0 1746c-582,9 -1102,121 -1559,336 -458,214 -787,536 -987,965l0 4519 4200 0c511,0 925,-415 925,-926l0 -5086c0,-302 -141,-511 -368,-738zm-14101 8501c-535,0 -941,-176 -1219,-529 -278,-353 -416,-876 -416,-1568l0 -3340 1328 0 0 3045c0,821 287,1232 862,1232 258,0 507,-80 748,-240 242,-159 438,-402 590,-728l0 -3309 1325 0 0 5387 -1127 0 0 -1049c-231,366 -528,641 -892,825 -363,183 -763,274 -1199,274zm22549 2575c-435,0 -765,-143 -990,-430 -226,-287 -338,-711 -338,-1274l0 -2712 1079 0 0 2473c0,667 233,1000 700,1000 209,0 412,-64 608,-194 195,-130 355,-327 478,-592l0 -2687 1077 0 0 4375 -916 0 0 -852c-187,298 -429,521 -724,670 -295,148 -620,223 -974,223zm-2177 -1145l-3037 -3037c-261,-261 -685,-261 -946,0l-3067 3067c-95,95 -236,254 -236,503l0 3676c0,369 286,669 701,669l1762 0 0 -5406 1271 0 0 1158c97,-186 211,-353 342,-501 130,-148 272,-278 423,-388 152,-110 305,-194 460,-253 155,-59 305,-88 450,-88l171 0c38,0 74,4 108,10l0 1262c-420,7 -796,87 -1127,242 -330,156 -568,388 -713,698l0 3266 3035 0c370,0 669,-300 669,-669l0 -3676c0,-218 -102,-369 -266,-533zm6109 1243c-114,0 -221,-20 -320,-58 -99,-39 -184,-93 -257,-162 -72,-70 -128,-151 -169,-243 -40,-93 -60,-195 -60,-306 0,-114 24,-220 74,-317 50,-97 119,-180 207,-248 89,-68 195,-121 318,-160 123,-38 258,-57 406,-57 105,0 208,9 308,27 101,19 190,45 268,79l0 -139c0,-160 -44,-284 -133,-370 -88,-87 -220,-130 -394,-130 -126,0 -249,23 -369,70 -121,46 -244,114 -370,203l-185 -393c304,-207 631,-310 983,-310 339,0 603,85 791,257 187,171 281,419 281,743l0 1490 -514 0 0 -412c-105,142 -232,250 -383,324 -150,74 -311,112 -482,112zm171 -454l0 0c103,0 203,-11 291,-56 360,-180 313,-602 313,-602 -72,-27 -150,-50 -234,-67 -84,-17 -165,-25 -243,-25 -157,0 -284,36 -383,109 -99,72 -149,164 -149,275 0,105 39,192 117,262 78,69 174,104 288,104zm-5591 16390c-328,0 -633,-56 -917,-166 -285,-111 -530,-266 -737,-465 -207,-199 -368,-431 -484,-697 -117,-265 -175,-557 -175,-876 0,-327 71,-630 213,-909 142,-279 340,-515 594,-710 254,-195 558,-347 911,-458 353,-111 741,-166 1163,-166 302,0 597,27 885,80 289,53 545,128 769,225l0 -398c0,-460 -127,-814 -381,-1062 -254,-247 -631,-371 -1131,-371 -361,0 -715,66 -1059,199 -345,132 -698,327 -1060,584l-529 -1128c870,-593 1809,-890 2816,-890 974,0 1729,246 2268,737 538,491 807,1201 807,2130l0 4274 -1473 0 0 -1181c-301,407 -667,717 -1098,929 -431,213 -891,319 -1382,319zm491 -1301l0 0c292,0 579,-33 833,-159 1032,-517 898,-1726 898,-1726 -207,-79 -431,-144 -672,-192 -241,-49 -474,-73 -698,-73 -447,0 -813,104 -1098,312 -284,207 -426,471 -426,789 0,301 112,551 336,750 224,199 499,299 827,299zm-3189 -5120l-1025 -1025c-88,-88 -231,-88 -319,0l-1035 1035c-32,32 -79,85 -79,170l0 1240c0,124 96,225 236,225l595 0 0 -1823 429 0 0 390c32,-62 71,-119 115,-169 44,-50 92,-93 143,-131 51,-37 103,-65 155,-85 52,-20 103,-30 152,-30l57 0c13,0 25,1 37,4l0 425c-142,3 -269,30 -380,82 -112,53 -192,131 -241,236l0 1101 1024 0c125,0 226,-101 226,-225l0 -1240c0,-74 -35,-125 -90,-180zm9425 5210c-565,0 -994,-186 -1287,-559 -293,-372 -439,-924 -439,-1655l0 -3526 1402 0 0 3214c0,867 303,1301 910,1301 272,0 536,-84 790,-253 255,-168 462,-424 623,-768l0 -3494 1398 0 0 5687 -1189 0 0 -1108c-244,387 -558,678 -942,871 -383,194 -805,290 -1266,290zm-8915 -7082c-263,0 -463,-87 -599,-260 -136,-174 -205,-430 -205,-770l0 -1640 653 0 0 1495c0,403 141,605 423,605 127,0 249,-40 368,-118 118,-78 214,-197 289,-357l0 -1625 651 0 0 2645 -554 0 0 -515c-113,180 -259,315 -438,405 -178,90 -374,135 -588,135zm2907 -3007c0,-498 84,-969 252,-1414 167,-443 410,-833 727,-1169 318,-335 702,-602 1152,-802 449,-199 957,-299 1521,-299 759,0 1405,168 1939,503 533,336 932,775 1197,1319l-1733 544c-150,-263 -349,-465 -596,-605 -247,-141 -520,-211 -820,-211 -256,0 -494,52 -715,156 -220,105 -412,250 -575,435 -163,186 -291,410 -384,673 -93,263 -139,553 -139,870 0,318 49,607 146,870 97,263 227,490 390,680 163,190 355,338 576,442 220,104 454,156 701,156 317,0 611,-81 880,-245 269,-163 456,-362 562,-598l1733 544c-238,544 -630,988 -1177,1332 -547,345 -1204,517 -1972,517 -564,0 -1071,-100 -1521,-299 -450,-200 -834,-469 -1151,-809 -318,-340 -563,-734 -735,-1183 -172,-448 -258,-917 -258,-1407zm-9105 1701c0,-234 39,-455 118,-664 78,-208 192,-391 341,-549 150,-157 330,-282 541,-376 211,-93 449,-140 714,-140 356,0 659,78 910,236 250,157 437,363 562,619l-814 255c-70,-123 -163,-218 -279,-284 -116,-66 -245,-99 -385,-99 -120,0 -232,24 -336,73 -103,49 -193,117 -270,205 -76,87 -136,192 -180,315 -43,124 -65,260 -65,409 0,149 23,285 68,408 46,123 107,230 183,319 77,89 167,159 270,207 104,49 214,74 330,74 149,0 286,-38 412,-115 127,-77 215,-170 264,-281l814 255c-112,256 -296,464 -553,626 -257,161 -565,242 -925,242 -265,0 -503,-47 -714,-140 -211,-94 -391,-220 -540,-380 -149,-159 -264,-344 -345,-555 -81,-210 -121,-431 -121,-660z"/>
   </g>
  </g>
  <polygon class="fil2" points="0,0 66995,0 66995,23209 0,23209 "/>
 </g>
</svg>
