<?xml version="1.0" encoding="UTF-8"?>
<!DOCTYPE svg PUBLIC "-//W3C//DTD SVG 1.1//EN" "http://www.w3.org/Graphics/SVG/1.1/DTD/svg11.dtd">
<!-- Creator: CorelDRAW X8 -->
<svg xmlns="http://www.w3.org/2000/svg" xml:space="preserve" width="669.675mm" height="230.276mm" version="1.1" style="shape-rendering:geometricPrecision; text-rendering:geometricPrecision; image-rendering:optimizeQuality; fill-rule:evenodd; clip-rule:evenodd"
viewBox="0 0 66635 22913"
 xmlns:xlink="http://www.w3.org/1999/xlink">
 <defs>
  <style type="text/css">
   <![CDATA[
    .fil3 {fill:none}
    .fil0 {fill:#FEFEFE}
    .fil1 {fill:url(#id1)}
    .fil2 {fill:url(#id2)}
   ]]>
  </style>
   <clipPath id="id0">
    <path d="M0 0l66635 0 0 22913 -66635 0 0 -22913z"/>
   </clipPath>
  <linearGradient id="id1" gradientUnits="userSpaceOnUse" x1="6717.18" y1="29033.8" x2="16628" y2="-4103.64">
   <stop offset="0" style="stop-opacity:1; stop-color:#E6E7E8"/>
   <stop offset="0.266667" style="stop-opacity:1; stop-color:#E6E7E8"/>
   <stop offset="0.490196" style="stop-opacity:1; stop-color:#FEFEFE"/>
   <stop offset="1" style="stop-opacity:1; stop-color:#E5E6E7"/>
  </linearGradient>
  <linearGradient id="id2" gradientUnits="userSpaceOnUse" xlink:href="#id1" x1="59515.3" y1="27514.4" x2="69426.1" y2="-5623.01">
  </linearGradient>
 </defs>
 <g id="Capa_x0020_1">
  <metadata id="CorelCorpID_0Corel-Layer"/>
  <polygon class="fil0" points="0,0 66635,0 66635,22913 0,22913 "/>
  <g style="clip-path:url(#id0)">
   <g id="_2358276903264">
    <path id="1" class="fil1" d="M14126 -2563l-1273 -1273c-110,-109 -287,-109 -397,0l-1286 1286c-39,40 -99,106 -99,211l0 1541c0,154 121,280 295,280l738 0 0 -2266 533 0 0 486c41,-78 88,-148 143,-211 55,-62 114,-116 178,-162 63,-46 128,-82 193,-106 65,-25 127,-37 188,-37l72 0c15,0 31,1 45,4l0 529c-176,3 -334,37 -472,102 -139,65 -239,162 -299,292l0 1369 1272 0c155,0 280,-126 280,-280l0 -1541c0,-91 -42,-155 -111,-224zm12980 9718c0,-208 35,-406 106,-592 70,-186 171,-350 304,-490 134,-141 294,-253 483,-336 189,-84 401,-126 638,-126 318,0 589,71 812,211 224,141 391,325 502,553l-726 228c-63,-110 -146,-195 -250,-254 -103,-59 -218,-88 -344,-88 -107,0 -207,22 -299,65 -93,44 -173,105 -241,183 -69,78 -122,172 -161,282 -39,110 -59,232 -59,364 0,134 21,255 61,365 41,110 96,205 164,285 68,80 149,142 241,185 93,44 191,66 294,66 133,0 256,-34 369,-103 113,-68 192,-152 236,-250l726 227c-99,228 -264,415 -493,559 -230,144 -505,216 -827,216 -236,0 -449,-41 -637,-125 -189,-83 -350,-197 -483,-339 -133,-142 -236,-308 -308,-496 -72,-188 -108,-384 -108,-590zm374 -3836l-691 -691c-59,-59 -156,-59 -215,0l-698 698c-21,21 -54,58 -54,114l0 836c0,84 66,153 160,153l401 0 0 -1230 289 0 0 263c22,-42 48,-80 78,-114 29,-33 62,-63 96,-88 35,-25 70,-44 105,-58 35,-13 69,-20 102,-20l39 0c9,0 17,1 25,3l0 287c-96,1 -182,20 -257,55 -75,35 -129,88 -162,159l0 743 690 0c85,0 153,-69 153,-153l0 -836c0,-49 -24,-84 -61,-121zm-1351 3204c-76,0 -147,-13 -213,-38 -66,-26 -123,-62 -172,-108 -48,-47 -85,-101 -112,-163 -27,-61 -41,-129 -41,-203 0,-76 17,-147 50,-212 33,-65 79,-120 138,-165 59,-45 130,-81 212,-107 82,-25 172,-38 270,-38 71,0 139,6 206,18 67,13 127,30 179,53l0 -93c0,-107 -29,-189 -89,-247 -59,-57 -146,-86 -262,-86 -85,0 -167,15 -247,46 -80,31 -162,76 -246,136l-124 -263c203,-138 421,-206 656,-206 226,0 402,57 527,171 125,114 188,279 188,495l0 995 -343 0 0 -275c-70,95 -155,167 -255,216 -100,50 -208,74 -322,74zm114 -302l0 0c69,0 135,-8 194,-37 240,-121 209,-402 209,-402 -48,-18 -100,-33 -156,-45 -56,-11 -110,-17 -162,-17 -105,0 -190,25 -256,73 -66,48 -99,110 -99,184 0,70 26,128 78,174 52,46 116,70 192,70zm440 -3844c-388,0 -682,-128 -883,-384 -202,-255 -302,-634 -302,-1136l0 -2421 963 0 0 2207c0,595 208,893 625,893 186,0 367,-58 542,-174 175,-115 317,-291 427,-527l0 -2399 961 0 0 3904 -817 0 0 -760c-167,266 -383,465 -646,598 -264,133 -554,199 -870,199zm-12254 5633c0,-288 48,-561 145,-818 97,-257 237,-482 421,-676 184,-194 406,-349 666,-464 260,-116 554,-173 880,-173 439,0 813,97 1122,291 308,194 539,448 693,762l-1003 315c-87,-152 -202,-269 -345,-350 -143,-81 -301,-122 -474,-122 -148,0 -286,30 -414,91 -127,60 -238,144 -333,251 -94,108 -168,238 -222,390 -53,152 -80,319 -80,503 0,184 28,351 84,503 56,152 132,283 226,393 94,111 205,196 333,256 127,60 263,91 406,91 183,0 353,-48 509,-142 155,-94 264,-210 325,-346l1003 314c-138,315 -365,572 -681,771 -317,200 -697,299 -1141,299 -327,0 -620,-58 -880,-173 -261,-115 -483,-271 -666,-468 -184,-197 -326,-425 -425,-684 -100,-260 -149,-531 -149,-814zm-2694 1716c-366,0 -644,-120 -834,-362 -190,-241 -285,-599 -285,-1073l0 -2285 909 0 0 2083c0,562 197,843 590,843 176,0 347,-54 512,-163 165,-110 299,-276 403,-499l0 -2264 907 0 0 3686 -771 0 0 -718c-158,251 -362,439 -610,564 -249,126 -523,188 -821,188zm4651 -4319c-280,0 -492,-93 -637,-277 -145,-184 -218,-457 -218,-819l0 -1744 694 0 0 1590c0,429 150,643 450,643 135,0 265,-41 391,-125 126,-83 229,-210 308,-380l0 -1728 692 0 0 2813 -588 0 0 -548c-121,192 -276,335 -466,431 -190,96 -399,144 -626,144zm5704 -5339l0 0c229,0 454,-26 653,-125 810,-406 705,-1354 705,-1354 -163,-62 -338,-112 -527,-151 -190,-38 -372,-57 -548,-57 -351,0 -638,82 -861,245 -223,163 -334,369 -334,619 0,236 88,432 263,588 176,156 392,235 649,235zm-385 1020c-257,0 -497,-44 -720,-130 -223,-87 -415,-209 -577,-365 -162,-156 -289,-338 -380,-546 -91,-209 -137,-438 -137,-687 0,-257 56,-495 167,-714 112,-218 267,-404 466,-556 199,-153 438,-273 715,-360 276,-86 580,-130 912,-130 236,0 467,21 694,63 226,41 427,100 603,177l0 -313c0,-360 -100,-638 -299,-832 -200,-195 -495,-292 -887,-292 -284,0 -561,52 -831,156 -270,104 -547,257 -831,458l-415 -885c682,-465 1418,-697 2209,-697 763,0 1356,192 1778,578 422,385 633,942 633,1671l0 3352 -1155 0 0 -927c-236,319 -523,562 -861,729 -338,166 -699,250 -1084,250zm-2408 -2396l-1761 -1761c-152,-152 -398,-152 -549,0l-1779 1779c-55,55 -137,147 -137,292l0 2131c0,215 166,389 407,389l1022 0 0 -3136 737 0 0 672c56,-108 122,-205 198,-291 76,-86 158,-161 246,-225 88,-64 177,-113 267,-147 90,-34 177,-51 261,-51l98 0c22,0 43,2 63,6l0 732c-243,4 -461,51 -653,141 -192,90 -330,225 -414,405l0 1894 1761 0c214,0 388,-174 388,-389l0 -2131c0,-127 -60,-215 -155,-310zm-5910 3564c-225,0 -395,-74 -511,-222 -117,-148 -175,-367 -175,-657l0 -1400 557 0 0 1276c0,344 120,516 361,516 108,0 213,-33 314,-100 101,-67 183,-169 247,-305l0 -1387 556 0 0 2258 -473 0 0 -440c-97,154 -221,269 -374,346 -152,77 -320,115 -502,115zm9452 1079c-183,0 -321,-60 -416,-180 -94,-120 -141,-298 -141,-534l0 -1137 452 0 0 1036c0,280 98,420 293,420 88,0 173,-27 255,-82 82,-54 149,-136 201,-247l0 -1127 451 0 0 1834 -384 0 0 -357c-78,124 -180,218 -303,280 -124,63 -260,94 -408,94zm-913 -480l-1273 -1273c-110,-109 -287,-109 -397,0l-1285 1286c-40,40 -99,106 -99,211l0 1540c0,155 120,281 294,281l738 0 0 -2266 533 0 0 485c41,-78 88,-148 143,-210 55,-62 114,-116 178,-162 63,-47 128,-82 193,-107 65,-24 128,-36 188,-36l72 0c16,0 31,1 45,4l0 529c-176,3 -333,36 -472,101 -139,65 -238,163 -299,293l0 1369 1272 0c155,0 281,-126 281,-281l0 -1540c0,-92 -43,-155 -112,-224zm2561 521c-48,0 -93,-8 -134,-24 -42,-16 -78,-39 -108,-68 -30,-29 -54,-63 -71,-102 -17,-39 -25,-82 -25,-128 0,-48 10,-92 31,-133 21,-41 50,-75 87,-104 37,-28 81,-51 133,-67 52,-16 108,-24 170,-24 44,0 87,4 129,11 42,8 80,19 113,33l0 -58c0,-67 -19,-119 -56,-155 -37,-36 -92,-54 -165,-54 -53,0 -105,9 -155,29 -51,19 -102,48 -155,85l-78 -165c128,-86 265,-130 412,-130 143,0 253,36 332,108 78,72 118,176 118,311l0 625 -216 0 0 -172c-44,59 -97,104 -160,135 -63,31 -130,47 -202,47zm72 -190l0 0c42,0 84,-5 121,-24 151,-75 132,-252 132,-252 -30,-11 -63,-21 -99,-28 -35,-7 -69,-11 -102,-11 -65,0 -119,16 -160,46 -42,30 -62,69 -62,115 0,44 16,81 49,110 32,29 73,44 121,44zm-2344 6870c-138,0 -266,-23 -385,-69 -119,-47 -222,-112 -309,-195 -86,-84 -154,-181 -203,-292 -48,-112 -73,-234 -73,-368 0,-137 30,-264 90,-381 59,-117 142,-216 249,-297 106,-82 233,-146 382,-192 148,-47 310,-70 487,-70 126,0 250,11 371,34 121,22 228,53 322,94l0 -167c0,-193 -53,-341 -160,-445 -106,-104 -264,-156 -473,-156 -152,0 -300,28 -445,84 -144,55 -292,137 -444,244l-222 -472c365,-249 759,-373 1181,-373 408,0 725,103 950,309 226,205 339,503 339,893l0 1791 -618 0 0 -495c-126,171 -279,301 -460,390 -180,89 -374,133 -579,133zm205 -545l0 0c123,0 243,-14 350,-67 433,-217 376,-723 376,-723 -86,-34 -180,-61 -281,-81 -102,-20 -199,-31 -293,-31 -188,0 -341,44 -460,131 -119,87 -179,198 -179,331 0,126 47,231 141,315 94,83 209,125 346,125zm-1336 -2147l-430 -429c-37,-37 -96,-37 -133,0l-434 434c-14,13 -34,36 -34,71l0 520c0,52 41,94 100,94l249 0 0 -764 180 0 0 164c13,-27 29,-50 48,-71 18,-21 38,-39 60,-55 21,-16 43,-28 65,-36 22,-8 43,-12 63,-12l25 0c5,0 10,0 15,1l0 179c-60,0 -113,12 -159,34 -47,22 -81,55 -101,99l0 461 429 0c52,0 95,-42 95,-94l0 -520c0,-31 -15,-52 -38,-76zm3951 2185c-237,0 -417,-78 -540,-235 -123,-156 -184,-387 -184,-694l0 -1478 588 0 0 1348c0,363 127,545 381,545 114,0 225,-35 331,-106 107,-70 194,-178 261,-322l0 -1465 587 0 0 2384 -499 0 0 -464c-102,162 -234,284 -395,365 -160,81 -337,122 -530,122zm-3738 -2969c-110,0 -193,-37 -250,-109 -58,-73 -86,-180 -86,-323l0 -687 273 0 0 626c0,169 59,254 178,254 53,0 104,-17 154,-49 49,-33 90,-83 121,-150l0 -681 273 0 0 1108 -232 0 0 -216c-48,76 -109,132 -184,170 -75,38 -157,57 -247,57zm1219 -1260c0,-209 35,-407 106,-593 70,-186 172,-349 305,-490 133,-141 294,-253 482,-336 189,-84 401,-126 638,-126 318,0 589,71 813,211 223,141 391,325 502,553l-727 228c-63,-110 -146,-195 -250,-254 -103,-59 -218,-88 -343,-88 -108,0 -208,22 -300,66 -92,43 -173,104 -241,182 -69,78 -122,172 -161,282 -39,110 -58,232 -58,365 0,133 20,254 61,364 40,110 95,205 163,285 69,80 149,142 242,185 92,44 190,66 294,66 133,0 255,-34 368,-103 113,-68 192,-152 236,-250l727 227c-100,228 -265,415 -494,559 -229,144 -505,216 -826,216 -237,0 -450,-41 -638,-125 -189,-83 -350,-196 -483,-339 -133,-142 -235,-308 -308,-496 -72,-188 -108,-384 -108,-589zm-3816 712c0,-98 16,-190 49,-278 33,-87 81,-164 143,-230 63,-66 138,-118 227,-158 88,-39 188,-58 299,-58 149,0 276,33 381,99 105,66 184,152 236,259l-341 107c-30,-52 -69,-91 -117,-119 -49,-28 -103,-42 -162,-42 -50,0 -97,11 -140,31 -44,21 -81,49 -113,86 -33,36 -58,81 -76,132 -18,52 -27,109 -27,171 0,63 9,120 28,172 19,51 45,96 77,133 32,38 70,67 113,87 44,21 90,31 138,31 63,0 120,-16 173,-48 53,-32 90,-72 111,-118l341 107c-47,107 -124,194 -232,262 -107,68 -236,102 -387,102 -112,0 -211,-20 -300,-59 -88,-39 -164,-92 -226,-159 -63,-67 -111,-145 -145,-233 -34,-88 -50,-180 -50,-277zm-23524 -4039l-1273 -1273c-110,-109 -287,-109 -397,0l-1286 1286c-39,40 -99,106 -99,211l0 1540c0,155 121,281 295,281l738 0 0 -2266 533 0 0 486c40,-78 88,-148 143,-211 55,-62 114,-116 178,-162 63,-46 128,-82 193,-106 64,-25 127,-37 188,-37l72 0c15,0 31,1 45,4l0 529c-176,3 -334,37 -472,102 -139,65 -239,162 -299,292l0 1369 1272 0c155,0 280,-126 280,-281l0 -1540c0,-91 -43,-155 -111,-224zm12980 9718c0,-208 35,-406 105,-592 71,-186 172,-350 305,-490 134,-141 294,-253 483,-336 189,-84 401,-126 638,-126 318,0 589,71 812,211 224,141 391,325 502,553l-726 228c-63,-110 -146,-195 -250,-254 -103,-59 -218,-88 -344,-88 -107,0 -207,22 -299,65 -93,44 -173,105 -242,183 -68,78 -121,172 -160,282 -39,110 -59,232 -59,364 0,133 21,255 61,365 41,110 96,205 164,285 68,80 149,142 241,185 93,44 191,66 294,66 133,0 256,-34 369,-103 113,-68 192,-152 236,-251l726 228c-99,228 -264,414 -493,559 -230,144 -505,216 -827,216 -236,0 -449,-42 -637,-125 -189,-84 -350,-197 -483,-339 -133,-143 -236,-308 -308,-496 -72,-188 -108,-384 -108,-590zm374 -3836l-691 -691c-59,-59 -156,-59 -215,0l-698 698c-21,21 -54,57 -54,114l0 836c0,84 66,153 160,153l401 0 0 -1230 289 0 0 263c22,-42 48,-80 78,-114 29,-34 62,-63 96,-88 35,-25 69,-44 105,-58 35,-13 69,-20 102,-20l39 0c8,0 17,1 25,3l0 287c-96,1 -182,20 -257,55 -75,35 -129,88 -162,159l0 743 690 0c84,0 153,-69 153,-153l0 -836c0,-49 -24,-84 -61,-121zm-1351 3204c-76,0 -147,-13 -213,-38 -66,-26 -123,-62 -172,-109 -48,-46 -85,-100 -112,-162 -27,-61 -41,-129 -41,-203 0,-77 17,-147 50,-212 33,-65 79,-120 138,-165 59,-45 130,-81 212,-107 82,-25 172,-38 270,-38 71,0 139,6 206,18 67,13 127,30 179,53l0 -93c0,-107 -29,-189 -89,-247 -59,-58 -146,-86 -263,-86 -84,0 -166,15 -246,46 -80,31 -162,76 -246,136l-124 -263c203,-138 421,-207 656,-207 226,0 402,58 527,172 125,114 188,279 188,495l0 995 -343 0 0 -275c-70,95 -155,167 -255,216 -100,49 -208,74 -322,74zm114 -302l0 0c68,0 135,-8 194,-37 240,-121 209,-402 209,-402 -48,-18 -100,-33 -156,-45 -56,-11 -110,-17 -162,-17 -105,0 -190,25 -256,73 -66,48 -99,110 -99,184 0,70 26,128 78,174 52,46 116,70 192,70zm440 -3844c-388,0 -682,-128 -883,-384 -202,-255 -302,-634 -302,-1136l0 -2421 963 0 0 2207c0,595 208,893 625,893 186,0 367,-58 542,-174 175,-115 317,-291 427,-528l0 -2398 961 0 0 3904 -817 0 0 -760c-167,266 -383,465 -646,598 -264,133 -554,199 -870,199zm-12255 5633c0,-288 49,-561 146,-818 97,-257 237,-482 421,-676 184,-194 406,-349 666,-464 260,-116 554,-173 880,-173 439,0 813,97 1122,291 308,194 539,448 692,762l-1002 315c-87,-152 -202,-269 -345,-350 -143,-81 -301,-122 -474,-122 -149,0 -286,30 -414,91 -127,60 -238,144 -333,251 -94,108 -168,237 -222,390 -53,152 -80,319 -80,503 0,183 28,351 84,503 56,152 131,283 226,393 94,110 205,196 333,256 127,60 263,90 406,90 183,0 353,-47 509,-141 155,-95 264,-210 325,-346l1003 314c-138,315 -365,572 -682,771 -316,199 -696,299 -1140,299 -327,0 -620,-58 -880,-173 -261,-115 -483,-271 -666,-468 -184,-197 -326,-425 -425,-684 -100,-260 -150,-531 -150,-814zm-2693 1716c-366,0 -644,-120 -834,-362 -190,-241 -285,-599 -285,-1073l0 -2285 909 0 0 2083c0,562 196,843 590,843 176,0 347,-54 512,-164 165,-109 299,-275 403,-498l0 -2264 907 0 0 3686 -771 0 0 -718c-158,251 -362,439 -610,564 -249,126 -523,188 -821,188zm4650 -4320c-279,0 -491,-92 -636,-276 -145,-184 -218,-457 -218,-819l0 -1745 694 0 0 1591c0,429 150,643 450,643 135,0 265,-41 391,-125 126,-83 229,-210 308,-380l0 -1729 692 0 0 2814 -588 0 0 -548c-121,192 -276,335 -466,431 -190,96 -399,143 -627,143zm5705 -5339l0 0c229,0 454,-25 653,-124 810,-406 705,-1354 705,-1354 -163,-62 -338,-113 -527,-151 -190,-38 -372,-57 -548,-57 -351,0 -638,82 -861,245 -223,163 -334,369 -334,619 0,236 88,432 263,588 176,156 392,234 649,234zm-385 1021c-257,0 -497,-44 -720,-130 -223,-87 -415,-209 -577,-365 -162,-156 -289,-338 -380,-546 -92,-209 -137,-438 -137,-687 0,-257 56,-495 167,-714 112,-218 267,-404 466,-557 199,-152 437,-272 715,-359 276,-86 580,-130 911,-130 237,0 468,21 695,63 226,41 427,100 603,177l0 -313c0,-360 -100,-638 -299,-833 -200,-194 -495,-291 -887,-291 -284,0 -561,52 -831,156 -270,104 -547,257 -831,458l-415 -885c682,-465 1418,-697 2209,-697 763,0 1356,192 1778,578 422,385 633,942 633,1670l0 3353 -1155 0 0 -927c-236,319 -523,562 -861,729 -338,166 -699,250 -1084,250zm-2408 -2396l-1761 -1761c-152,-152 -398,-152 -549,0l-1779 1779c-55,55 -137,147 -137,292l0 2131c0,215 166,388 407,388l1022 0 0 -3135 737 0 0 672c56,-108 122,-205 198,-291 76,-86 158,-161 246,-225 88,-64 177,-113 267,-147 90,-34 177,-51 260,-51l99 0c22,0 43,2 63,6l0 732c-244,4 -461,51 -653,141 -192,90 -330,225 -414,404l0 1894 1761 0c214,0 388,-173 388,-388l0 -2131c0,-127 -60,-215 -155,-310zm-5910 3564c-225,0 -395,-74 -512,-222 -116,-148 -174,-367 -174,-657l0 -1400 557 0 0 1276c0,344 120,516 361,516 108,0 213,-33 314,-100 101,-67 183,-169 247,-305l0 -1387 555 0 0 2258 -472 0 0 -440c-97,154 -222,269 -374,346 -152,76 -320,115 -502,115zm9451 1079c-182,0 -320,-60 -415,-180 -94,-120 -141,-298 -141,-534l0 -1137 452 0 0 1036c0,280 98,420 293,420 88,0 173,-27 255,-82 82,-54 149,-137 201,-248l0 -1126 451 0 0 1834 -384 0 0 -357c-78,124 -180,218 -303,280 -124,63 -260,94 -409,94zm-912 -480l-1273 -1273c-110,-109 -287,-109 -397,0l-1285 1286c-40,39 -99,106 -99,211l0 1540c0,155 120,281 294,281l738 0 0 -2266 533 0 0 485c41,-78 88,-148 143,-210 55,-62 114,-116 178,-162 63,-47 128,-82 193,-107 65,-24 128,-36 188,-36l72 0c16,0 31,1 45,4l0 529c-176,2 -333,36 -472,101 -139,65 -239,163 -299,293l0 1369 1272 0c155,0 281,-126 281,-281l0 -1540c0,-92 -43,-155 -112,-224zm2561 521c-48,0 -93,-8 -134,-24 -42,-17 -78,-39 -108,-68 -30,-29 -54,-63 -71,-102 -17,-39 -25,-82 -25,-128 0,-48 10,-92 31,-133 21,-41 50,-76 87,-104 37,-28 81,-51 133,-67 51,-16 108,-24 170,-24 44,0 87,4 129,11 42,8 80,19 113,33l0 -58c0,-67 -19,-119 -56,-155 -37,-36 -92,-54 -165,-54 -53,0 -105,9 -155,29 -51,19 -102,48 -155,85l-78 -165c128,-87 265,-130 412,-130 143,0 253,36 332,108 78,72 118,175 118,311l0 625 -216 0 0 -173c-44,60 -97,105 -160,136 -63,31 -130,47 -202,47zm72 -190l0 0c42,0 84,-5 121,-24 151,-75 132,-252 132,-252 -31,-12 -63,-21 -99,-28 -35,-7 -69,-11 -102,-11 -65,0 -119,16 -160,46 -42,30 -62,69 -62,115 0,44 16,81 49,110 32,29 73,44 121,44zm-2344 6870c-138,0 -266,-23 -385,-69 -119,-47 -222,-112 -309,-195 -86,-84 -154,-181 -203,-292 -48,-112 -73,-234 -73,-368 0,-137 30,-264 90,-381 59,-117 142,-216 249,-297 106,-82 233,-146 381,-192 148,-47 311,-70 488,-70 126,0 250,11 371,33 121,23 228,54 322,95l0 -167c0,-193 -53,-341 -160,-445 -106,-104 -264,-156 -474,-156 -151,0 -299,28 -444,84 -144,55 -292,137 -444,244l-222 -472c365,-249 759,-373 1181,-373 408,0 725,103 950,309 226,205 339,503 339,893l0 1791 -618 0 0 -495c-126,171 -279,300 -460,389 -180,90 -374,134 -579,134zm205 -545l0 0c123,0 243,-14 350,-67 432,-217 376,-723 376,-723 -87,-34 -180,-61 -281,-81 -102,-20 -199,-31 -293,-31 -188,0 -341,44 -460,131 -119,87 -179,198 -179,331 0,126 47,231 141,315 94,83 209,125 346,125zm-1336 -2147l-430 -429c-37,-37 -97,-37 -133,0l-434 434c-14,13 -34,36 -34,71l0 520c0,52 41,94 100,94l249 0 0 -764 180 0 0 164c13,-27 29,-50 48,-71 18,-21 38,-40 60,-55 21,-16 43,-28 65,-36 22,-8 43,-12 63,-12l24 0c6,0 11,0 16,1l0 178c-60,1 -113,13 -160,35 -46,22 -80,55 -100,98l0 462 429 0c52,0 94,-42 94,-94l0 -520c0,-31 -14,-52 -37,-76zm3951 2185c-237,0 -417,-78 -540,-235 -123,-156 -184,-387 -184,-694l0 -1478 588 0 0 1348c0,363 127,545 381,545 114,0 225,-35 331,-106 107,-71 194,-178 261,-322l0 -1465 587 0 0 2384 -499 0 0 -464c-102,162 -234,284 -395,365 -160,81 -337,122 -530,122zm-3738 -2969c-110,0 -193,-37 -251,-109 -57,-73 -85,-181 -85,-323l0 -688 273 0 0 627c0,169 59,254 178,254 53,0 104,-17 154,-49 49,-33 90,-83 121,-150l0 -682 273 0 0 1109 -232 0 0 -216c-48,76 -109,132 -184,170 -75,38 -157,57 -247,57zm1219 -1261c0,-208 35,-406 106,-592 70,-186 172,-350 305,-490 133,-141 294,-253 482,-336 189,-84 401,-126 638,-126 318,0 589,71 813,211 223,141 391,325 501,553l-726 228c-63,-110 -146,-195 -250,-254 -103,-59 -218,-88 -343,-88 -108,0 -208,22 -300,65 -92,44 -173,105 -241,183 -69,78 -122,172 -161,282 -39,110 -58,232 -58,364 0,134 20,255 61,365 40,110 95,205 163,285 69,80 149,142 242,185 92,44 190,66 294,66 133,0 255,-34 368,-103 113,-68 192,-152 236,-251l727 228c-100,228 -265,415 -494,559 -229,144 -505,216 -826,216 -237,0 -450,-41 -638,-125 -189,-83 -350,-197 -483,-339 -133,-142 -236,-308 -308,-496 -72,-188 -108,-384 -108,-590zm-3817 713c0,-98 17,-190 50,-278 33,-87 81,-164 143,-230 63,-66 138,-118 227,-158 88,-39 188,-58 299,-58 149,0 276,33 381,98 105,66 184,153 236,260l-341 107c-30,-52 -69,-91 -117,-119 -49,-28 -103,-42 -162,-42 -50,0 -97,11 -140,31 -44,21 -81,49 -113,86 -33,36 -58,80 -76,132 -18,52 -27,109 -27,171 0,63 9,120 28,171 19,52 45,97 77,134 32,38 70,67 113,87 44,21 90,31 138,31 63,0 120,-16 173,-48 53,-32 90,-72 111,-118l341 107c-47,107 -124,194 -232,262 -107,68 -236,102 -387,102 -112,0 -211,-20 -300,-59 -88,-39 -164,-92 -226,-159 -63,-67 -111,-145 -145,-233 -34,-88 -51,-180 -51,-277zm-2592 6196l-1273 -1273c-110,-110 -287,-110 -397,0l-1286 1285c-40,40 -99,107 -99,211l0 1541c0,155 120,280 294,280l739 0 0 -2265 533 0 0 485c40,-78 88,-148 143,-210 55,-62 114,-117 178,-163 63,-46 127,-81 192,-106 65,-25 128,-37 189,-37l71 0c16,0 31,2 46,4l0 529c-176,3 -334,37 -472,102 -139,65 -239,162 -300,292l0 1369 1273 0c155,0 280,-125 280,-280l0 -1541c0,-91 -43,-155 -111,-223zm12980 9718c0,-209 35,-407 105,-593 70,-186 172,-349 305,-490 133,-140 294,-253 483,-336 188,-84 401,-125 638,-125 318,0 588,70 812,210 224,141 391,325 502,553l-726 228c-63,-110 -147,-195 -250,-254 -104,-58 -218,-88 -344,-88 -107,0 -207,22 -299,66 -93,43 -173,104 -242,182 -68,78 -122,172 -160,282 -39,110 -59,232 -59,365 0,133 21,254 61,364 41,111 95,206 164,285 68,80 149,142 241,186 93,43 191,65 294,65 133,0 256,-34 369,-103 113,-68 191,-151 236,-250l726 228c-100,228 -264,414 -493,558 -230,145 -505,217 -827,217 -236,0 -449,-42 -638,-126 -188,-83 -349,-196 -482,-339 -133,-142 -236,-307 -308,-496 -72,-188 -108,-384 -108,-589zm374 -3837l-691 -691c-59,-59 -156,-59 -215,0l-698 698c-22,22 -54,58 -54,115l0 836c0,84 65,152 160,152l401 0 0 -1230 289 0 0 264c22,-43 48,-81 78,-115 29,-33 61,-63 96,-88 34,-25 69,-44 105,-57 35,-14 69,-20 102,-20l39 0c8,0 17,0 24,2l0 287c-95,2 -181,20 -256,55 -75,35 -129,88 -162,159l0 743 690 0c84,0 153,-68 153,-152l0 -836c0,-50 -24,-85 -61,-122zm-1351 3205c-76,0 -147,-13 -213,-39 -67,-26 -124,-62 -172,-108 -48,-46 -85,-101 -112,-162 -27,-62 -41,-130 -41,-204 0,-76 17,-147 50,-212 33,-64 79,-120 138,-165 59,-45 130,-81 212,-106 82,-26 172,-39 270,-39 70,0 139,6 206,19 67,12 127,29 179,52l0 -93c0,-107 -30,-189 -89,-247 -59,-57 -147,-86 -263,-86 -84,0 -166,15 -246,46 -80,31 -162,76 -247,136l-123 -262c203,-138 421,-207 655,-207 227,0 403,57 528,171 125,114 188,280 188,496l0 994 -343 0 0 -275c-70,95 -155,167 -255,216 -101,50 -208,75 -322,75zm114 -303l0 0c68,0 135,-8 194,-37 240,-120 209,-402 209,-402 -48,-18 -100,-33 -156,-44 -56,-12 -111,-17 -163,-17 -104,0 -189,24 -255,72 -66,49 -99,110 -99,184 0,70 26,128 78,174 52,47 116,70 192,70zm440 -3844c-388,0 -682,-127 -884,-383 -201,-256 -301,-635 -301,-1137l0 -2421 962 0 0 2207c0,595 209,893 625,893 187,0 368,-58 543,-173 175,-116 317,-292 427,-528l0 -2399 961 0 0 3905 -817 0 0 -761c-168,266 -383,465 -647,598 -263,133 -553,199 -869,199zm-12255 5633c0,-288 49,-561 146,-818 97,-257 237,-482 421,-676 184,-194 405,-349 666,-464 260,-115 553,-173 880,-173 439,0 813,97 1122,291 308,194 539,448 692,763l-1002 314c-87,-152 -202,-268 -345,-350 -143,-81 -301,-122 -475,-122 -148,0 -285,31 -413,91 -128,60 -239,144 -333,251 -94,108 -168,238 -222,390 -54,152 -80,320 -80,503 0,184 28,351 84,503 56,153 131,284 226,394 94,110 205,195 333,255 127,61 262,91 405,91 184,0 354,-47 509,-142 156,-94 265,-209 326,-346l1003 315c-138,314 -365,571 -682,770 -316,200 -696,299 -1140,299 -327,0 -620,-57 -881,-173 -260,-115 -482,-271 -666,-468 -183,-196 -325,-424 -424,-684 -100,-259 -150,-531 -150,-814zm-2693 1717c-366,0 -644,-121 -834,-363 -190,-241 -285,-599 -285,-1073l0 -2285 909 0 0 2083c0,562 196,843 590,843 176,0 347,-54 512,-163 165,-109 299,-275 403,-499l0 -2264 907 0 0 3686 -771 0 0 -718c-159,251 -362,439 -611,565 -248,125 -522,188 -820,188zm4650 -4320c-279,0 -491,-92 -636,-277 -145,-184 -218,-457 -218,-819l0 -1744 694 0 0 1590c0,429 150,644 450,644 135,0 265,-42 391,-125 126,-84 229,-211 308,-381l0 -1728 692 0 0 2813 -588 0 0 -548c-121,192 -277,335 -466,431 -190,96 -399,144 -627,144zm5704 -5339l0 0c230,0 455,-26 654,-125 810,-405 704,-1354 704,-1354 -162,-62 -338,-112 -527,-150 -189,-39 -371,-58 -547,-58 -351,0 -638,82 -861,245 -223,163 -334,369 -334,619 0,236 87,432 263,589 176,156 392,234 648,234zm-385 1020c-256,0 -496,-43 -719,-130 -223,-87 -415,-208 -578,-365 -162,-156 -288,-338 -379,-546 -92,-208 -137,-437 -137,-687 0,-257 55,-495 167,-713 111,-219 267,-404 466,-557 199,-153 437,-272 714,-359 277,-87 581,-130 912,-130 237,0 468,20 694,62 227,42 428,101 603,177l0 -312c0,-361 -99,-639 -299,-833 -199,-194 -495,-292 -886,-292 -284,0 -561,52 -831,156 -270,105 -547,257 -831,459l-415 -885c682,-465 1418,-698 2209,-698 763,0 1356,193 1778,578 422,385 633,942 633,1671l0 3352 -1155 0 0 -927c-237,320 -524,563 -861,729 -338,167 -700,250 -1085,250zm-2407 -2395l-1762 -1762c-151,-151 -397,-151 -548,0l-1779 1779c-55,55 -137,147 -137,292l0 2132c0,214 166,388 407,388l1021 0 0 -3135 738 0 0 671c56,-108 122,-205 198,-291 76,-86 158,-160 246,-225 88,-63 177,-112 267,-146 89,-34 176,-51 260,-51l99 0c22,0 43,2 63,6l0 731c-244,4 -461,51 -653,141 -192,90 -330,225 -414,405l0 1894 1760 0c215,0 388,-174 388,-388l0 -2132c0,-127 -59,-214 -154,-309zm-5911 3563c-224,0 -394,-74 -511,-222 -116,-148 -174,-367 -174,-657l0 -1400 557 0 0 1276c0,344 120,517 361,517 108,0 213,-34 314,-101 101,-67 183,-168 247,-305l0 -1387 555 0 0 2258 -472 0 0 -440c-97,154 -222,269 -374,346 -152,77 -320,115 -503,115zm9452 1079c-182,0 -320,-60 -415,-180 -94,-120 -141,-298 -141,-534l0 -1137 452 0 0 1037c0,279 98,419 293,419 88,0 173,-27 255,-81 82,-55 149,-137 201,-248l0 -1127 451 0 0 1834 -384 0 0 -357c-78,125 -180,218 -303,281 -124,62 -260,93 -409,93zm-912 -480l-1273 -1273c-110,-109 -287,-109 -397,0l-1286 1286c-39,40 -99,106 -99,211l0 1541c0,154 121,280 295,280l738 0 0 -2266 533 0 0 486c40,-78 88,-148 143,-211 55,-62 114,-116 178,-162 63,-46 128,-82 193,-106 64,-25 127,-37 188,-37l72 0c15,0 31,1 45,4l0 529c-176,3 -334,37 -472,102 -139,65 -239,162 -299,292l0 1369 1272 0c155,0 280,-126 280,-280l0 -1541c0,-92 -43,-155 -111,-224zm2561 521c-48,0 -93,-8 -134,-24 -42,-16 -78,-39 -108,-68 -30,-29 -54,-63 -71,-102 -17,-39 -25,-81 -25,-128 0,-48 10,-92 31,-133 20,-41 49,-75 87,-104 37,-28 81,-50 133,-67 51,-16 108,-24 170,-24 44,0 87,4 129,12 42,7 80,18 113,33l0 -59c0,-67 -19,-119 -56,-155 -37,-36 -92,-54 -166,-54 -52,0 -104,10 -154,29 -51,19 -102,48 -155,85l-78 -165c127,-86 265,-130 412,-130 142,0 253,36 332,108 78,72 118,176 118,312l0 624 -216 0 0 -172c-44,59 -97,105 -160,136 -63,31 -131,46 -202,46zm71 -190l0 0c43,0 85,-5 122,-23 151,-76 132,-253 132,-253 -31,-11 -63,-21 -99,-28 -35,-7 -69,-10 -102,-10 -65,0 -119,15 -160,45 -42,31 -63,69 -63,116 0,44 17,80 49,109 33,29 74,44 121,44zm-2344 6870c-137,0 -265,-23 -384,-69 -119,-47 -222,-111 -309,-195 -86,-83 -154,-181 -203,-292 -49,-111 -73,-234 -73,-367 0,-137 30,-265 89,-381 60,-117 143,-217 250,-298 106,-82 233,-146 381,-192 148,-46 311,-70 488,-70 126,0 250,11 371,34 121,22 228,54 322,94l0 -167c0,-192 -53,-341 -160,-445 -106,-104 -264,-155 -474,-155 -151,0 -299,27 -444,83 -144,56 -292,137 -444,245l-222 -473c365,-249 758,-373 1181,-373 408,0 725,103 950,309 226,206 339,503 339,893l0 1791 -618 0 0 -495c-126,171 -280,301 -460,390 -181,89 -374,133 -580,133zm206 -545l0 0c123,0 243,-14 350,-67 432,-216 376,-723 376,-723 -87,-33 -181,-60 -282,-81 -101,-20 -198,-30 -292,-30 -188,0 -341,43 -460,130 -120,88 -179,198 -179,331 0,127 47,231 141,315 94,83 209,125 346,125zm-1336 -2146l-430 -430c-37,-37 -97,-37 -134,0l-433 434c-14,13 -34,36 -34,71l0 520c0,52 41,95 99,95l250 0 0 -765 179 0 0 164c14,-26 30,-50 49,-71 18,-21 38,-39 60,-55 21,-15 43,-27 65,-36 22,-8 43,-12 63,-12l24 0c6,0 11,0 16,1l0 179c-60,1 -113,12 -160,34 -46,22 -80,55 -101,99l0 462 430 0c52,0 94,-43 94,-95l0 -520c0,-31 -14,-52 -37,-75zm3950 2184c-236,0 -416,-78 -539,-234 -123,-157 -184,-388 -184,-694l0 -1478 588 0 0 1347c0,363 127,545 381,545 114,0 224,-35 331,-106 107,-70 194,-178 261,-322l0 -1464 586 0 0 2383 -498 0 0 -464c-102,162 -234,284 -395,365 -161,81 -338,122 -531,122zm-3737 -2969c-110,0 -194,-36 -251,-109 -57,-73 -85,-180 -85,-323l0 -687 273 0 0 626c0,170 59,254 177,254 54,0 105,-16 155,-49 49,-33 90,-83 121,-150l0 -681 273 0 0 1109 -232 0 0 -216c-48,75 -109,132 -184,169 -75,38 -157,57 -247,57zm1219 -1260c0,-209 35,-407 106,-593 70,-186 171,-349 304,-490 134,-140 294,-252 483,-336 189,-84 401,-125 638,-125 318,0 589,70 812,210 224,141 391,325 502,553l-726 228c-63,-110 -146,-195 -250,-254 -103,-58 -218,-88 -344,-88 -107,0 -207,22 -299,66 -93,43 -173,104 -241,182 -69,78 -122,172 -161,282 -39,110 -59,232 -59,365 0,133 21,254 61,364 41,111 96,206 164,285 68,80 149,142 241,186 93,43 191,65 294,65 133,0 256,-34 369,-102 113,-69 192,-152 236,-251l726 228c-99,228 -264,414 -493,558 -230,145 -505,217 -827,217 -236,0 -449,-42 -637,-126 -189,-83 -350,-196 -483,-339 -133,-142 -236,-307 -308,-495 -72,-189 -108,-385 -108,-590zm-3817 713c0,-98 17,-191 50,-279 33,-87 80,-164 143,-230 62,-65 138,-118 226,-157 89,-40 189,-59 300,-59 149,0 276,33 381,99 105,66 184,152 236,259l-341 107c-30,-52 -69,-91 -117,-119 -49,-27 -103,-41 -162,-41 -50,0 -97,10 -140,30 -44,21 -82,50 -114,86 -32,37 -57,81 -75,132 -18,52 -27,109 -27,172 0,62 9,119 28,171 19,51 45,96 77,133 32,38 70,67 113,87 43,21 90,31 138,31 63,0 120,-16 173,-48 53,-32 90,-71 111,-118l341 107c-47,107 -124,195 -232,262 -107,68 -237,102 -388,102 -111,0 -211,-20 -299,-59 -89,-39 -164,-92 -226,-159 -63,-67 -111,-144 -145,-233 -34,-88 -51,-180 -51,-276zm14113 -13085l-1273 -1273c-110,-110 -288,-110 -397,0l-1286 1285c-40,40 -99,107 -99,211l0 1541c0,155 120,280 294,280l739 0 0 -2265 533 0 0 485c40,-78 88,-148 143,-210 55,-62 114,-116 177,-163 64,-46 128,-81 193,-106 65,-24 128,-37 189,-37l71 0c16,0 31,2 46,5l0 528c-176,3 -334,37 -472,102 -139,65 -239,163 -300,293l0 1368 1273 0c155,0 280,-125 280,-280l0 -1541c0,-91 -43,-155 -111,-223zm12980 9718c0,-209 35,-407 105,-593 70,-186 172,-349 305,-490 133,-140 294,-252 483,-336 188,-84 401,-125 638,-125 318,0 588,70 812,210 224,141 391,325 502,553l-726 228c-63,-110 -147,-195 -250,-253 -104,-59 -218,-89 -344,-89 -107,0 -207,22 -299,66 -93,43 -173,104 -242,182 -68,78 -122,172 -160,282 -39,110 -59,232 -59,365 0,133 21,254 61,364 41,111 95,206 164,285 68,80 149,142 241,186 92,43 190,65 294,65 133,0 256,-34 369,-102 113,-69 191,-152 236,-251l726 228c-100,228 -264,414 -493,558 -230,145 -505,217 -827,217 -236,0 -449,-42 -638,-126 -188,-83 -349,-196 -482,-339 -133,-142 -236,-307 -308,-495 -72,-188 -108,-385 -108,-590zm374 -3837l-691 -691c-59,-59 -156,-59 -215,0l-698 698c-22,22 -54,58 -54,115l0 836c0,84 65,152 160,152l401 0 0 -1230 289 0 0 264c22,-43 48,-81 77,-114 30,-34 62,-63 97,-89 34,-25 69,-44 105,-57 35,-14 69,-20 102,-20l39 0c8,0 16,1 24,2l0 287c-95,2 -181,20 -256,55 -75,36 -129,89 -162,159l0 743 690 0c84,0 152,-68 152,-152l0 -836c0,-50 -23,-84 -60,-122zm-1351 3205c-76,0 -147,-13 -213,-39 -67,-26 -124,-62 -172,-108 -48,-46 -85,-100 -112,-162 -28,-62 -41,-130 -41,-204 0,-76 17,-147 50,-212 33,-64 79,-119 138,-165 59,-45 130,-81 212,-106 82,-26 172,-39 270,-39 70,0 139,6 206,19 67,12 127,29 179,52l0 -92c0,-108 -30,-190 -89,-248 -59,-57 -147,-86 -263,-86 -84,0 -166,15 -246,46 -80,31 -162,76 -247,136l-123 -262c202,-138 421,-207 655,-207 227,0 403,57 528,171 125,114 188,280 188,496l0 994 -343 0 0 -275c-70,95 -155,167 -255,216 -101,50 -208,75 -322,75zm114 -303l0 0c68,0 135,-8 194,-37 240,-120 209,-402 209,-402 -48,-18 -100,-33 -156,-44 -56,-12 -111,-17 -163,-17 -104,0 -189,24 -255,72 -66,49 -99,110 -99,184 0,70 26,128 78,174 52,47 116,70 192,70zm440 -3843c-388,0 -682,-128 -884,-384 -201,-256 -301,-635 -301,-1137l0 -2421 962 0 0 2207c0,596 209,893 625,893 187,0 368,-58 543,-173 175,-116 317,-292 427,-528l0 -2399 961 0 0 3905 -817 0 0 -761c-168,266 -383,466 -647,598 -263,133 -553,200 -869,200zm-12255 5632c0,-288 49,-561 146,-818 97,-257 237,-482 421,-676 183,-194 405,-349 666,-464 260,-115 553,-173 880,-173 439,0 813,97 1121,291 309,194 540,448 693,763l-1003 314c-86,-152 -201,-268 -344,-350 -143,-81 -301,-122 -475,-122 -148,0 -285,31 -413,91 -128,60 -239,144 -333,252 -94,107 -168,237 -222,389 -54,152 -80,320 -80,503 0,184 28,352 84,504 56,152 131,283 226,393 94,110 205,195 333,255 127,61 262,91 405,91 184,0 354,-47 509,-142 156,-94 265,-209 326,-346l1002 315c-137,314 -364,571 -681,771 -316,199 -696,298 -1140,298 -327,0 -620,-57 -881,-173 -260,-115 -482,-271 -666,-468 -183,-196 -325,-424 -424,-684 -100,-259 -150,-531 -150,-814zm-2693 1717c-366,0 -644,-121 -834,-363 -190,-241 -285,-599 -285,-1072l0 -2286 909 0 0 2083c0,563 196,844 590,844 176,0 346,-55 512,-164 165,-109 299,-275 403,-498l0 -2265 907 0 0 3686 -771 0 0 -718c-159,251 -362,439 -611,565 -248,125 -522,188 -820,188zm4650 -4320c-279,0 -491,-92 -636,-277 -145,-184 -218,-457 -218,-819l0 -1744 694 0 0 1590c0,429 150,644 450,644 135,0 265,-42 391,-125 126,-84 229,-210 308,-381l0 -1728 692 0 0 2813 -588 0 0 -547c-121,191 -277,335 -466,430 -190,96 -399,144 -627,144zm5704 -5339l0 0c230,0 455,-26 654,-125 810,-405 704,-1353 704,-1353 -162,-63 -338,-113 -527,-151 -189,-39 -371,-58 -547,-58 -351,0 -638,82 -861,245 -223,163 -334,370 -334,619 0,236 87,432 263,589 176,156 392,234 648,234zm-385 1020c-256,0 -496,-43 -719,-130 -223,-87 -415,-208 -578,-364 -162,-157 -288,-339 -379,-547 -92,-208 -137,-437 -137,-687 0,-257 55,-495 167,-713 111,-219 267,-404 466,-557 199,-153 437,-272 714,-359 277,-87 581,-130 912,-130 237,0 468,20 694,62 227,42 428,101 603,177l0 -312c0,-361 -99,-639 -299,-833 -199,-194 -495,-292 -886,-292 -284,0 -561,52 -831,157 -270,104 -547,256 -831,458l-415 -885c682,-465 1418,-698 2208,-698 764,0 1357,193 1779,578 422,385 633,942 633,1671l0 3352 -1155 0 0 -926c-237,319 -524,562 -861,728 -338,167 -700,250 -1085,250zm-2407 -2395l-1762 -1762c-151,-151 -397,-151 -548,0l-1779 1779c-55,55 -137,147 -137,292l0 2132c0,214 166,388 407,388l1021 0 0 -3135 738 0 0 671c56,-108 122,-205 198,-291 76,-85 158,-160 246,-224 88,-64 176,-113 266,-147 90,-34 177,-51 261,-51l99 0c22,0 43,2 63,6l0 731c-244,4 -462,51 -653,141 -192,90 -330,225 -414,405l0 1894 1760 0c215,0 388,-174 388,-388l0 -2132c0,-126 -59,-214 -154,-309zm-5911 3563c-224,0 -394,-74 -511,-222 -116,-148 -174,-367 -174,-657l0 -1400 557 0 0 1276c0,345 120,517 361,517 108,0 213,-34 314,-101 101,-66 183,-168 247,-305l0 -1387 555 0 0 2258 -472 0 0 -440c-97,154 -222,269 -374,346 -152,77 -320,115 -503,115zm9452 1079c-182,0 -320,-60 -415,-180 -94,-120 -142,-298 -142,-534l0 -1137 453 0 0 1037c0,279 98,419 293,419 88,0 173,-27 255,-81 82,-55 149,-137 201,-248l0 -1127 451 0 0 1834 -384 0 0 -357c-79,125 -180,218 -303,281 -124,62 -260,93 -409,93zm-912 -480l-1273 -1273c-110,-109 -287,-109 -397,0l-1286 1286c-39,40 -99,106 -99,211l0 1541c0,154 121,280 295,280l738 0 0 -2266 533 0 0 486c40,-78 88,-148 143,-211 55,-62 114,-116 178,-162 63,-46 127,-82 192,-106 65,-25 128,-37 189,-37l71 0c16,0 31,1 46,4l0 529c-176,3 -334,37 -472,102 -139,65 -239,162 -299,292l0 1369 1272 0c155,0 280,-126 280,-280l0 -1541c0,-91 -43,-155 -111,-224zm2561 521c-48,0 -93,-8 -135,-24 -41,-16 -77,-39 -107,-68 -30,-29 -54,-63 -71,-102 -17,-39 -26,-81 -26,-128 0,-48 11,-92 32,-133 20,-41 49,-75 86,-104 38,-28 82,-50 134,-67 51,-16 108,-24 170,-24 44,0 87,4 129,12 42,8 80,19 112,33l0 -58c0,-68 -18,-119 -55,-156 -37,-36 -93,-54 -166,-54 -52,0 -104,10 -154,29 -51,19 -102,48 -155,85l-78 -164c127,-87 265,-130 412,-130 142,0 253,35 332,107 78,72 118,176 118,312l0 625 -216 0 0 -173c-44,59 -97,105 -160,136 -63,31 -131,46 -202,46zm71 -190l0 0c43,0 85,-5 122,-23 151,-76 131,-252 131,-252 -30,-12 -63,-21 -98,-29 -35,-7 -69,-10 -102,-10 -65,0 -119,15 -160,45 -42,31 -63,69 -63,116 0,44 17,80 49,109 33,30 73,44 121,44zm-2344 6870c-137,0 -265,-23 -384,-69 -119,-46 -222,-111 -309,-195 -86,-83 -154,-181 -203,-292 -49,-111 -73,-234 -73,-367 0,-137 30,-265 89,-381 60,-117 143,-216 249,-298 107,-82 234,-146 382,-192 148,-46 311,-70 488,-70 126,0 250,12 371,34 121,22 228,54 322,94l0 -167c0,-192 -53,-341 -160,-445 -106,-103 -264,-155 -474,-155 -151,0 -299,27 -444,83 -144,56 -292,137 -444,245l-222 -473c365,-249 758,-373 1181,-373 408,0 724,103 950,309 226,206 339,503 339,893l0 1792 -618 0 0 -496c-126,171 -280,301 -460,390 -181,89 -374,133 -580,133zm206 -545l0 0c123,0 243,-13 350,-67 432,-216 376,-723 376,-723 -87,-33 -181,-60 -282,-81 -101,-20 -198,-30 -292,-30 -188,0 -341,43 -460,131 -120,87 -179,197 -179,331 0,126 47,231 141,314 93,83 209,125 346,125zm-1336 -2146l-430 -430c-37,-37 -97,-37 -134,0l-433 434c-14,14 -34,36 -34,71l0 520c0,52 41,95 99,95l250 0 0 -765 179 0 0 164c14,-26 30,-50 49,-71 18,-21 38,-39 60,-55 21,-15 43,-27 65,-36 21,-8 43,-12 63,-12l24 0c6,0 11,0 16,1l0 179c-60,1 -113,12 -160,34 -46,22 -80,55 -101,99l0 462 430 0c52,0 94,-43 94,-95l0 -520c0,-31 -14,-52 -37,-75zm3950 2184c-236,0 -416,-78 -539,-234 -123,-157 -184,-388 -184,-694l0 -1478 588 0 0 1347c0,364 127,545 381,545 114,0 224,-35 331,-106 107,-70 194,-178 261,-322l0 -1464 586 0 0 2383 -498 0 0 -464c-102,163 -234,284 -395,365 -161,81 -338,122 -531,122zm-3737 -2969c-110,0 -194,-36 -251,-109 -57,-73 -85,-180 -85,-323l0 -687 273 0 0 627c0,169 59,253 177,253 53,0 105,-16 154,-49 50,-33 91,-83 122,-150l0 -681 273 0 0 1109 -232 0 0 -216c-48,75 -109,132 -184,170 -75,37 -157,56 -247,56zm1219 -1260c0,-209 35,-407 105,-593 71,-186 172,-349 305,-490 134,-140 294,-252 483,-336 189,-83 401,-125 638,-125 318,0 589,70 812,211 224,140 391,324 502,552l-726 228c-63,-110 -146,-194 -250,-253 -103,-59 -218,-89 -344,-89 -107,0 -207,22 -299,66 -93,44 -173,104 -242,182 -68,78 -122,172 -160,282 -39,110 -59,232 -59,365 0,133 21,254 61,365 41,110 96,205 164,284 68,80 149,142 241,186 93,43 191,65 294,65 133,0 256,-34 369,-102 113,-69 192,-152 236,-251l726 228c-99,228 -264,414 -493,558 -230,145 -505,217 -827,217 -236,0 -449,-42 -637,-126 -189,-83 -350,-196 -483,-339 -133,-142 -236,-307 -308,-495 -72,-188 -108,-385 -108,-590zm-3817 713c0,-98 17,-191 50,-278 33,-88 80,-164 143,-230 62,-66 138,-119 226,-158 89,-39 189,-59 300,-59 149,0 276,33 381,99 105,66 184,152 236,259l-341 107c-30,-51 -69,-91 -117,-119 -49,-27 -103,-41 -162,-41 -50,0 -97,10 -140,31 -44,20 -82,49 -114,85 -32,37 -57,81 -75,133 -18,51 -28,108 -28,171 0,62 10,119 29,171 19,52 45,96 77,134 32,37 70,66 113,86 43,21 89,31 138,31 63,0 120,-16 173,-48 53,-32 90,-71 111,-118l341 107c-47,107 -124,195 -232,263 -107,67 -237,101 -388,101 -111,0 -211,-20 -299,-59 -89,-39 -164,-92 -227,-159 -62,-67 -110,-144 -144,-233 -34,-88 -51,-180 -51,-276z"/>
    <path class="fil2" d="M66924 -4082l-1273 -1273c-110,-109 -287,-109 -397,0l-1285 1286c-40,40 -99,106 -99,211l0 1540c0,155 120,281 294,281l738 0 0 -2266 533 0 0 485c41,-78 88,-148 143,-210 55,-62 114,-116 178,-162 63,-47 128,-82 193,-107 65,-24 127,-36 188,-36l72 0c15,0 31,1 45,4l0 529c-176,2 -334,36 -472,101 -139,65 -239,163 -299,293l0 1369 1272 0c155,0 281,-126 281,-281l0 -1540c0,-92 -43,-155 -112,-224zm12980 9718c0,-209 35,-406 106,-593 70,-186 171,-349 305,-490 133,-140 294,-252 482,-336 189,-83 401,-125 638,-125 318,0 589,70 812,211 224,140 392,325 502,552l-726 228c-63,-110 -146,-194 -250,-253 -103,-59 -218,-89 -344,-89 -107,0 -207,22 -299,66 -93,44 -173,105 -241,182 -69,78 -122,172 -161,282 -39,111 -58,232 -58,365 0,133 20,255 61,365 40,110 95,205 163,285 69,79 149,141 242,185 92,44 190,65 293,65 134,0 256,-34 369,-102 113,-69 192,-152 236,-251l727 228c-100,228 -265,414 -494,559 -229,144 -505,216 -826,216 -237,0 -450,-42 -638,-125 -189,-84 -350,-197 -483,-339 -133,-143 -236,-308 -308,-496 -72,-188 -108,-385 -108,-590zm374 -3836l-691 -691c-59,-60 -156,-60 -215,0l-698 697c-21,22 -53,58 -53,115l0 836c0,84 65,152 159,152l401 0 0 -1229 289 0 0 263c22,-42 48,-80 78,-114 30,-34 62,-63 96,-88 35,-25 70,-45 105,-58 35,-13 69,-20 102,-20l39 0c9,0 17,1 25,2l0 287c-96,2 -181,20 -257,56 -75,35 -129,88 -162,158l0 743 691 0c84,0 152,-68 152,-152l0 -836c0,-50 -24,-84 -61,-121zm-1351 3204c-76,0 -147,-13 -213,-39 -66,-25 -123,-61 -171,-108 -49,-46 -86,-100 -113,-162 -27,-62 -41,-130 -41,-204 0,-76 17,-146 50,-211 33,-65 79,-120 138,-165 59,-46 130,-81 212,-107 82,-26 172,-39 271,-39 70,0 138,7 205,19 68,12 127,30 179,52l0 -92c0,-107 -29,-190 -88,-247 -60,-58 -147,-87 -263,-87 -85,0 -167,16 -247,47 -80,30 -162,76 -246,135l-124 -262c203,-138 421,-207 656,-207 226,0 402,57 527,172 125,114 188,279 188,495l0 994 -343 0 0 -274c-70,94 -155,166 -255,216 -100,49 -208,74 -322,74zm114 -303l0 0c69,0 135,-7 194,-37 241,-120 209,-401 209,-401 -48,-19 -100,-34 -156,-45 -56,-11 -110,-17 -162,-17 -105,0 -190,24 -256,73 -66,48 -99,109 -99,183 0,70 26,129 78,175 52,46 116,69 192,69zm440 -3843c-388,0 -682,-128 -883,-384 -201,-256 -302,-635 -302,-1137l0 -2421 963 0 0 2207c0,596 208,894 625,894 187,0 367,-58 542,-174 175,-116 317,-292 428,-528l0 -2399 960 0 0 3905 -817 0 0 -760c-167,265 -383,465 -646,598 -264,132 -553,199 -870,199zm-12254 5633c0,-289 48,-561 145,-818 97,-257 237,-483 421,-677 184,-194 406,-348 666,-464 260,-115 554,-173 880,-173 439,0 813,97 1122,291 309,194 540,449 693,763l-1003 315c-87,-152 -202,-269 -345,-350 -143,-82 -301,-122 -474,-122 -148,0 -286,30 -414,90 -127,61 -238,144 -333,252 -94,107 -168,237 -222,389 -53,152 -80,320 -80,504 0,183 28,351 84,503 56,152 132,283 226,393 94,110 205,195 333,256 127,60 263,90 406,90 183,0 353,-47 509,-141 155,-95 264,-210 325,-346l1003 314c-138,315 -365,572 -681,771 -317,199 -697,299 -1141,299 -327,0 -620,-58 -880,-173 -261,-116 -482,-272 -666,-468 -184,-197 -326,-425 -425,-684 -100,-260 -149,-531 -149,-814zm-2694 1716c-366,0 -644,-121 -834,-362 -190,-242 -285,-599 -285,-1073l0 -2285 909 0 0 2083c0,562 197,843 590,843 176,0 347,-55 512,-164 165,-109 299,-275 403,-498l0 -2264 907 0 0 3685 -771 0 0 -717c-158,250 -362,439 -610,564 -249,125 -522,188 -821,188zm4651 -4320c-280,0 -492,-92 -637,-276 -145,-185 -218,-458 -218,-819l0 -1745 694 0 0 1590c0,429 150,644 451,644 134,0 264,-42 390,-125 126,-83 229,-210 308,-380l0 -1729 692 0 0 2814 -588 0 0 -548c-121,191 -276,335 -466,431 -190,95 -399,143 -626,143zm5704 -5339l0 0c229,0 455,-25 653,-125 810,-405 705,-1353 705,-1353 -163,-63 -338,-113 -527,-151 -189,-38 -372,-57 -547,-57 -352,0 -639,81 -862,244 -223,163 -334,370 -334,620 0,236 88,432 263,588 176,156 392,234 649,234zm-385 1020c-257,0 -497,-43 -720,-130 -223,-86 -415,-208 -577,-364 -162,-156 -289,-338 -380,-547 -91,-208 -137,-437 -137,-687 0,-256 56,-494 167,-713 112,-218 267,-404 466,-557 199,-152 438,-272 715,-359 277,-87 581,-130 912,-130 236,0 467,21 694,62 226,42 427,101 603,177l0 -312c0,-361 -100,-638 -299,-833 -200,-194 -495,-291 -887,-291 -284,0 -561,52 -831,156 -270,104 -547,257 -831,458l-415 -885c682,-465 1419,-698 2209,-698 763,0 1356,193 1778,578 422,385 633,943 633,1671l0 3352 -1155 0 0 -926c-236,319 -523,562 -861,728 -338,167 -699,250 -1084,250zm-2408 -2395l-1761 -1761c-152,-152 -398,-152 -549,0l-1779 1779c-55,55 -137,147 -137,291l0 2132c0,214 166,388 407,388l1022 0 0 -3135 737 0 0 672c56,-108 122,-205 198,-291 76,-86 158,-161 246,-225 88,-64 177,-113 267,-147 90,-34 177,-51 261,-51l99 0c22,0 42,2 62,6l0 732c-243,4 -461,51 -653,140 -192,90 -330,225 -414,405l0 1894 1761 0c214,0 388,-174 388,-388l0 -2132c0,-126 -60,-214 -155,-309zm-5910 3564c-225,0 -395,-74 -511,-222 -117,-148 -175,-367 -175,-658l0 -1400 557 0 0 1276c0,345 120,517 361,517 108,0 213,-33 314,-100 101,-67 183,-169 247,-306l0 -1387 556 0 0 2258 -473 0 0 -439c-97,153 -221,269 -374,345 -152,77 -320,116 -502,116zm9452 1079c-183,0 -321,-60 -415,-181 -95,-120 -142,-298 -142,-533l0 -1138 452 0 0 1037c0,280 98,420 294,420 87,0 172,-28 254,-82 82,-54 149,-137 201,-248l0 -1127 451 0 0 1834 -383 0 0 -357c-79,125 -180,219 -304,281 -124,62 -260,94 -408,94zm-913 -480l-1273 -1273c-109,-110 -287,-110 -397,0l-1285 1285c-40,40 -99,107 -99,211l0 1541c0,155 120,280 294,280l738 0 0 -2265 533 0 0 485c41,-78 88,-148 143,-210 55,-62 114,-116 178,-163 64,-46 128,-81 193,-106 65,-24 128,-37 188,-37l72 0c16,0 31,2 45,5l0 528c-176,3 -333,37 -472,102 -139,65 -238,163 -299,293l0 1368 1272 0c155,0 281,-125 281,-280l0 -1541c0,-91 -43,-155 -112,-223zm2561 521c-48,0 -93,-8 -134,-25 -42,-16 -78,-38 -108,-68 -30,-29 -54,-63 -71,-101 -17,-39 -25,-82 -25,-129 0,-47 10,-92 31,-132 21,-41 50,-76 87,-104 37,-29 81,-51 133,-67 52,-16 108,-25 170,-25 44,0 87,4 129,12 43,8 80,19 113,33l0 -58c0,-67 -19,-119 -56,-155 -37,-37 -92,-55 -165,-55 -53,0 -105,10 -155,29 -50,20 -102,48 -155,86l-77 -165c127,-87 264,-130 411,-130 143,0 253,36 332,108 79,71 118,175 118,311l0 625 -215 0 0 -173c-44,60 -98,105 -161,136 -63,31 -130,47 -202,47zm72 -191l0 0c42,0 84,-4 122,-23 150,-75 131,-252 131,-252 -30,-12 -63,-21 -98,-28 -36,-7 -70,-11 -102,-11 -66,0 -119,15 -161,46 -42,30 -62,69 -62,115 0,44 16,81 49,110 33,29 73,43 121,43zm-2344 6871c-137,0 -266,-23 -385,-70 -119,-46 -222,-111 -308,-195 -87,-83 -155,-180 -204,-292 -48,-111 -73,-233 -73,-367 0,-137 30,-264 90,-381 59,-117 142,-216 249,-298 106,-81 234,-145 382,-192 148,-46 310,-69 487,-69 126,0 250,11 371,33 121,22 228,54 322,95l0 -167c0,-193 -53,-341 -159,-445 -107,-104 -265,-156 -474,-156 -152,0 -300,28 -444,83 -145,56 -293,138 -445,245l-222 -473c365,-248 759,-373 1181,-373 408,0 725,103 951,309 225,206 338,504 338,893l0 1792 -617 0 0 -495c-127,170 -280,300 -461,389 -180,89 -373,134 -579,134zm206 -546l0 0c122,0 243,-13 349,-66 433,-217 376,-724 376,-724 -86,-33 -180,-60 -281,-80 -101,-21 -199,-31 -293,-31 -188,0 -341,44 -460,131 -119,87 -179,197 -179,331 0,126 47,231 141,314 94,84 209,125 347,125zm-1337 -2146l-430 -429c-37,-37 -96,-37 -133,0l-434 433c-14,14 -34,36 -34,72l0 519c0,53 41,95 100,95l249 0 0 -764 180 0 0 163c13,-26 29,-50 48,-71 18,-21 38,-39 60,-54 21,-16 43,-28 65,-36 22,-9 43,-13 64,-13l24 0c5,0 10,1 15,2l0 178c-59,1 -113,13 -159,34 -47,22 -81,55 -101,99l0 462 429 0c52,0 95,-42 95,-95l0 -519c0,-31 -15,-53 -38,-76zm3951 2184c-237,0 -417,-78 -540,-234 -122,-156 -184,-388 -184,-694l0 -1478 588 0 0 1347c0,364 127,546 381,546 114,0 225,-36 332,-106 106,-71 193,-178 260,-322l0 -1465 587 0 0 2384 -499 0 0 -464c-102,162 -234,284 -395,365 -160,81 -337,121 -530,121zm-3737 -2969c-111,0 -194,-36 -251,-109 -58,-72 -86,-180 -86,-322l0 -688 273 0 0 627c0,169 59,254 178,254 53,0 104,-17 154,-50 49,-33 90,-83 121,-150l0 -681 273 0 0 1109 -232 0 0 -216c-48,76 -109,132 -184,170 -74,38 -157,56 -246,56zm1218 -1260c0,-209 35,-406 106,-592 70,-186 172,-350 305,-490 133,-141 294,-253 482,-337 189,-83 401,-125 638,-125 318,0 589,70 813,211 223,140 391,325 502,553l-727 227c-63,-110 -146,-194 -249,-253 -104,-59 -219,-88 -344,-88 -108,0 -208,21 -300,65 -92,44 -173,105 -241,182 -69,78 -122,172 -161,282 -39,111 -58,232 -58,365 0,133 20,255 61,365 40,110 95,205 163,285 69,80 149,141 242,185 92,44 190,66 294,66 133,0 256,-35 368,-103 113,-68 192,-152 236,-251l727 228c-100,228 -265,414 -494,559 -229,144 -505,216 -826,216 -237,0 -450,-42 -638,-125 -189,-84 -350,-197 -483,-339 -133,-143 -235,-308 -307,-496 -73,-188 -109,-385 -109,-590zm-3816 713c0,-98 16,-191 49,-278 33,-87 81,-164 143,-230 63,-66 138,-119 227,-158 88,-39 188,-59 299,-59 149,0 276,33 381,99 105,66 184,153 236,260l-341 107c-30,-52 -69,-92 -117,-119 -49,-28 -103,-42 -162,-42 -50,0 -97,10 -140,31 -43,20 -81,49 -113,85 -32,37 -58,81 -76,133 -18,52 -27,109 -27,171 0,62 9,119 28,171 20,52 45,96 77,134 32,37 70,66 113,87 44,20 90,31 138,31 63,0 121,-16 174,-49 52,-32 89,-71 110,-117l341 107c-47,107 -124,194 -231,262 -108,68 -237,101 -388,101 -111,0 -211,-19 -300,-58 -88,-40 -164,-93 -226,-160 -63,-66 -111,-144 -145,-232 -34,-88 -50,-181 -50,-277zm-23524 -4039l-1273 -1273c-110,-110 -287,-110 -397,0l-1285 1286c-40,39 -99,106 -99,211l0 1540c0,155 120,281 294,281l738 0 0 -2266 533 0 0 485c41,-78 88,-148 143,-210 55,-62 114,-116 178,-163 63,-46 128,-81 193,-106 65,-24 127,-37 188,-37l72 0c15,0 31,2 45,5l0 529c-176,2 -334,36 -472,101 -139,65 -239,163 -299,293l0 1369 1272 0c155,0 281,-126 281,-281l0 -1540c0,-92 -43,-155 -112,-224zm12980 9718c0,-209 35,-406 106,-593 70,-186 171,-349 304,-490 134,-140 294,-252 483,-336 189,-83 401,-125 638,-125 318,0 589,70 812,211 224,140 391,324 502,552l-726 228c-63,-110 -146,-194 -250,-253 -103,-59 -218,-89 -344,-89 -107,0 -207,22 -299,66 -93,44 -173,104 -241,182 -69,78 -122,172 -161,282 -39,111 -58,232 -58,365 0,133 20,255 61,365 40,110 95,205 163,285 69,79 149,141 241,185 93,44 191,65 294,65 133,0 256,-34 369,-102 113,-69 192,-152 236,-251l726 228c-99,228 -264,414 -493,558 -229,145 -505,217 -826,217 -237,0 -450,-42 -638,-125 -189,-84 -350,-197 -483,-339 -133,-143 -236,-308 -308,-496 -72,-188 -108,-385 -108,-590zm374 -3837l-691 -690c-59,-60 -156,-60 -215,0l-698 697c-21,22 -54,58 -54,115l0 836c0,84 66,152 160,152l401 0 0 -1230 289 0 0 264c22,-42 48,-80 78,-114 30,-34 62,-63 96,-88 35,-25 70,-45 105,-58 35,-13 69,-20 102,-20l39 0c9,0 17,1 25,2l0 287c-96,2 -181,20 -257,56 -75,35 -129,88 -162,158l0 743 691 0c84,0 152,-68 152,-152l0 -836c0,-50 -24,-84 -61,-122zm-1351 3205c-76,0 -147,-13 -213,-39 -66,-26 -123,-62 -171,-108 -49,-46 -86,-100 -113,-162 -27,-62 -41,-130 -41,-204 0,-76 17,-146 50,-211 33,-65 79,-120 138,-166 59,-45 130,-80 212,-106 82,-26 172,-39 271,-39 70,0 138,6 205,19 67,12 127,30 179,52l0 -92c0,-107 -29,-190 -88,-247 -60,-58 -147,-87 -263,-87 -85,0 -167,16 -247,47 -80,30 -162,76 -246,135l-124 -262c203,-138 421,-207 656,-207 226,0 402,57 527,171 125,115 188,280 188,496l0 994 -343 0 0 -274c-70,94 -155,166 -255,216 -100,49 -208,74 -322,74zm114 -303l0 0c69,0 135,-7 194,-37 241,-120 209,-401 209,-401 -48,-19 -100,-34 -156,-45 -56,-11 -110,-17 -162,-17 -105,0 -190,24 -256,73 -66,48 -99,109 -99,183 0,70 26,128 78,175 52,46 116,69 192,69zm440 -3843c-388,0 -682,-128 -883,-384 -202,-256 -302,-635 -302,-1137l0 -2421 963 0 0 2207c0,596 208,893 625,893 186,0 367,-57 542,-173 175,-116 317,-292 428,-528l0 -2399 960 0 0 3905 -817 0 0 -760c-167,265 -383,465 -646,598 -264,132 -554,199 -870,199zm-12254 5632c0,-288 48,-561 145,-817 97,-257 237,-483 421,-677 184,-194 406,-348 666,-464 260,-115 554,-173 880,-173 439,0 813,97 1122,291 308,194 539,448 693,763l-1003 315c-87,-152 -202,-269 -345,-350 -143,-82 -301,-122 -474,-122 -148,0 -286,30 -414,90 -127,61 -238,144 -333,252 -94,107 -168,237 -222,389 -53,152 -80,320 -80,503 0,184 28,352 84,504 56,152 132,283 226,393 94,110 205,195 333,256 127,60 263,90 406,90 183,0 353,-47 509,-142 155,-94 264,-209 325,-346l1003 315c-138,315 -365,572 -681,771 -317,199 -697,299 -1141,299 -327,0 -620,-58 -880,-173 -261,-116 -483,-272 -666,-468 -184,-197 -326,-425 -425,-685 -100,-259 -149,-530 -149,-814zm-2694 1717c-366,0 -644,-121 -834,-362 -190,-242 -285,-599 -285,-1073l0 -2285 909 0 0 2083c0,562 197,843 590,843 176,0 347,-55 512,-164 165,-109 299,-275 403,-498l0 -2264 907 0 0 3685 -771 0 0 -717c-158,250 -362,439 -610,564 -249,125 -522,188 -821,188zm4651 -4320c-280,0 -492,-92 -637,-276 -145,-185 -218,-458 -218,-819l0 -1745 694 0 0 1590c0,429 150,644 451,644 134,0 264,-42 390,-125 126,-83 229,-210 308,-380l0 -1729 692 0 0 2814 -588 0 0 -548c-121,191 -276,335 -466,430 -190,96 -399,144 -626,144zm5704 -5339l0 0c229,0 454,-25 653,-125 810,-405 705,-1353 705,-1353 -163,-63 -338,-113 -527,-151 -189,-38 -372,-57 -547,-57 -352,0 -639,81 -862,244 -223,163 -334,370 -334,620 0,236 88,432 263,588 176,156 392,234 649,234zm-385 1020c-257,0 -497,-43 -720,-130 -223,-86 -415,-208 -577,-364 -162,-156 -289,-339 -380,-547 -91,-208 -137,-437 -137,-687 0,-256 56,-494 167,-713 112,-219 267,-404 466,-557 199,-152 438,-272 715,-359 276,-87 581,-130 912,-130 236,0 467,21 694,62 226,42 427,101 603,177l0 -312c0,-361 -100,-638 -299,-833 -200,-194 -495,-291 -887,-291 -284,0 -561,52 -831,156 -270,104 -547,257 -831,458l-415 -885c682,-465 1419,-698 2209,-698 763,0 1356,193 1778,578 422,385 633,942 633,1671l0 3352 -1155 0 0 -926c-236,319 -523,562 -861,728 -338,167 -699,250 -1084,250zm-2408 -2395l-1761 -1762c-152,-151 -398,-151 -549,0l-1779 1779c-55,56 -137,148 -137,292l0 2132c0,214 166,388 407,388l1022 0 0 -3135 737 0 0 672c56,-108 122,-205 198,-291 76,-86 158,-161 246,-225 88,-64 177,-113 267,-147 90,-34 177,-51 261,-51l98 0c22,0 43,2 63,6l0 731c-243,5 -461,51 -653,141 -192,90 -330,225 -414,405l0 1894 1761 0c214,0 388,-174 388,-388l0 -2132c0,-126 -60,-214 -155,-309zm-5910 3563c-225,0 -395,-73 -511,-221 -117,-148 -175,-368 -175,-658l0 -1400 557 0 0 1276c0,345 120,517 361,517 108,0 213,-34 314,-100 101,-67 183,-169 247,-306l0 -1387 556 0 0 2258 -473 0 0 -439c-97,153 -221,268 -374,345 -152,77 -320,115 -502,115zm9452 1080c-183,0 -321,-60 -415,-181 -95,-120 -142,-298 -142,-533l0 -1138 452 0 0 1037c0,280 98,419 294,419 87,0 172,-27 254,-81 82,-54 149,-137 201,-248l0 -1127 451 0 0 1834 -384 0 0 -357c-78,125 -179,219 -303,281 -124,62 -260,94 -408,94zm-913 -480l-1273 -1273c-110,-110 -287,-110 -397,0l-1285 1285c-40,40 -99,107 -99,211l0 1541c0,155 120,280 294,280l738 0 0 -2265 533 0 0 485c41,-78 88,-148 143,-210 55,-62 114,-117 178,-163 63,-46 128,-81 193,-106 65,-24 128,-37 188,-37l72 0c16,0 31,2 45,5l0 528c-176,3 -333,37 -472,102 -139,65 -238,162 -299,293l0 1368 1272 0c155,0 281,-125 281,-280l0 -1541c0,-91 -43,-155 -112,-223zm2561 521c-48,0 -93,-9 -134,-25 -42,-16 -78,-39 -108,-68 -30,-29 -54,-63 -71,-102 -17,-38 -25,-81 -25,-128 0,-47 10,-92 31,-133 21,-40 50,-75 87,-103 37,-29 81,-51 133,-67 52,-16 108,-25 170,-25 44,0 87,4 129,12 43,8 80,19 113,33l0 -58c0,-67 -19,-119 -56,-155 -37,-37 -92,-55 -165,-55 -53,0 -105,10 -155,29 -51,20 -102,48 -155,86l-77 -165c127,-87 264,-130 411,-130 143,0 253,36 332,107 78,72 118,176 118,312l0 625 -215 0 0 -173c-45,60 -98,105 -161,136 -63,31 -130,47 -202,47zm72 -191l0 0c42,0 84,-4 122,-23 150,-75 131,-252 131,-252 -30,-12 -63,-21 -98,-28 -36,-7 -70,-11 -102,-11 -66,0 -119,15 -161,46 -42,30 -62,68 -62,115 0,44 16,81 49,110 32,29 73,43 121,43zm-2344 6871c-138,0 -266,-24 -385,-70 -119,-46 -222,-111 -309,-195 -86,-83 -154,-180 -203,-292 -48,-111 -73,-233 -73,-367 0,-137 30,-264 90,-381 59,-117 142,-216 249,-298 106,-81 233,-145 382,-192 148,-46 310,-69 487,-69 126,0 250,11 371,33 121,22 228,54 322,95l0 -167c0,-193 -53,-341 -160,-445 -106,-104 -264,-156 -473,-156 -152,0 -300,28 -444,83 -145,56 -293,138 -445,245l-222 -473c365,-248 759,-373 1181,-373 408,0 725,103 950,309 226,206 339,504 339,893l0 1792 -617 0 0 -495c-127,170 -280,300 -461,389 -180,89 -374,134 -579,134zm205 -546l0 0c123,0 244,-13 350,-66 433,-217 376,-724 376,-724 -86,-33 -180,-60 -281,-80 -101,-21 -199,-31 -293,-31 -188,0 -341,44 -460,131 -119,87 -179,197 -179,331 0,126 47,231 141,314 94,84 209,125 346,125zm-1336 -2146l-430 -429c-37,-37 -96,-37 -133,0l-434 433c-14,14 -34,36 -34,72l0 519c0,53 41,95 100,95l249 0 0 -765 180 0 0 164c13,-26 29,-50 48,-71 18,-21 38,-39 60,-55 21,-15 43,-27 65,-35 22,-9 43,-13 63,-13l25 0c5,0 10,1 15,2l0 178c-60,1 -113,12 -159,34 -47,22 -81,55 -101,99l0 462 429 0c52,0 95,-42 95,-95l0 -519c0,-31 -15,-53 -38,-76zm3951 2184c-237,0 -417,-78 -540,-234 -123,-156 -184,-388 -184,-694l0 -1478 588 0 0 1347c0,364 127,546 381,546 114,0 225,-36 331,-106 107,-71 194,-178 261,-323l0 -1464 587 0 0 2384 -499 0 0 -464c-102,162 -234,283 -395,365 -160,81 -337,121 -530,121zm-3738 -2969c-110,0 -193,-36 -250,-109 -58,-72 -86,-180 -86,-322l0 -688 273 0 0 627c0,169 59,253 178,253 53,0 104,-16 154,-49 49,-33 90,-83 121,-150l0 -681 273 0 0 1109 -232 0 0 -216c-48,75 -109,132 -184,170 -74,38 -157,56 -247,56zm1219 -1260c0,-209 35,-406 106,-593 70,-186 172,-349 305,-490 133,-140 294,-252 482,-336 189,-83 401,-125 638,-125 318,0 589,70 813,211 223,140 391,325 502,552l-727 228c-63,-110 -146,-194 -250,-253 -103,-59 -218,-89 -343,-89 -108,0 -208,22 -300,66 -92,44 -173,105 -241,182 -69,78 -122,172 -161,282 -39,111 -58,232 -58,365 0,133 20,255 61,365 40,110 95,205 163,285 69,79 149,141 242,185 92,44 190,65 294,65 133,0 256,-34 368,-102 113,-69 192,-152 236,-251l727 228c-100,228 -265,414 -494,558 -229,145 -505,217 -826,217 -237,0 -450,-42 -638,-125 -189,-84 -350,-197 -483,-339 -133,-143 -235,-308 -308,-496 -72,-188 -108,-385 -108,-590zm-3816 713c0,-98 16,-191 49,-278 33,-88 81,-164 143,-230 63,-66 138,-119 227,-158 88,-39 188,-59 299,-59 149,0 276,33 381,99 105,66 184,153 236,260l-341 106c-30,-51 -69,-91 -117,-118 -49,-28 -103,-42 -162,-42 -50,0 -97,10 -140,31 -44,20 -81,49 -113,85 -33,37 -58,81 -76,133 -18,51 -27,109 -27,171 0,62 9,119 28,171 19,52 45,96 77,134 32,37 70,66 113,87 44,20 90,30 138,30 63,0 121,-16 173,-48 53,-32 90,-71 111,-117l341 107c-47,107 -124,194 -232,262 -107,67 -236,101 -387,101 -111,0 -211,-19 -300,-58 -88,-40 -164,-93 -226,-160 -63,-66 -111,-144 -145,-232 -34,-89 -50,-181 -50,-277zm-2593 6195l-1273 -1273c-110,-109 -287,-109 -397,0l-1286 1286c-39,40 -99,106 -99,211l0 1540c0,155 121,281 295,281l738 0 0 -2266 533 0 0 485c40,-78 88,-148 143,-210 55,-62 114,-116 178,-162 63,-46 127,-82 192,-106 65,-25 128,-37 189,-37l71 0c16,0 31,1 46,4l0 529c-176,3 -334,37 -472,102 -139,65 -239,162 -299,292l0 1369 1272 0c155,0 280,-126 280,-281l0 -1540c0,-92 -43,-155 -111,-224zm12980 9718c0,-209 35,-406 105,-592 71,-186 172,-350 305,-490 134,-141 294,-253 483,-336 189,-84 401,-126 638,-126 318,0 589,70 812,211 224,141 391,325 502,553l-726 228c-63,-110 -146,-195 -250,-254 -103,-59 -218,-88 -344,-88 -107,0 -207,22 -299,65 -93,44 -173,105 -242,183 -68,77 -122,172 -160,282 -39,110 -59,231 -59,364 0,133 21,255 61,365 41,110 96,205 164,285 68,80 149,141 241,185 93,44 191,66 294,66 133,0 256,-35 369,-103 113,-68 191,-152 236,-251l726 228c-100,228 -264,414 -493,559 -230,144 -505,216 -827,216 -236,0 -449,-42 -638,-125 -188,-84 -349,-197 -482,-339 -133,-143 -236,-308 -308,-496 -72,-188 -108,-384 -108,-590zm374 -3836l-691 -691c-59,-60 -156,-60 -215,0l-698 698c-22,21 -54,57 -54,114l0 836c0,84 65,153 160,153l401 0 0 -1230 289 0 0 263c22,-42 48,-80 78,-114 29,-34 62,-63 96,-88 34,-25 69,-44 105,-58 35,-13 69,-20 102,-20l39 0c8,0 17,1 24,3l0 287c-95,1 -181,20 -256,55 -75,35 -129,88 -162,159l0 743 690 0c84,0 153,-69 153,-153l0 -836c0,-49 -24,-84 -61,-121zm-1351 3204c-76,0 -147,-13 -213,-38 -66,-26 -124,-62 -172,-109 -48,-46 -85,-100 -112,-162 -27,-61 -41,-129 -41,-203 0,-77 17,-147 50,-212 33,-65 79,-120 138,-165 59,-45 130,-81 212,-107 82,-25 172,-38 270,-38 70,0 139,6 206,18 67,13 127,30 179,53l0 -93c0,-107 -29,-189 -89,-247 -59,-58 -146,-86 -263,-86 -84,0 -166,15 -246,46 -80,31 -162,76 -247,136l-123 -263c203,-138 421,-207 656,-207 226,0 402,57 527,172 125,114 188,279 188,495l0 995 -343 0 0 -275c-70,95 -155,167 -255,216 -100,49 -208,74 -322,74zm114 -302l0 0c68,0 135,-8 194,-38 240,-120 209,-401 209,-401 -48,-19 -100,-33 -156,-45 -56,-11 -110,-17 -163,-17 -104,0 -189,25 -255,73 -66,48 -99,109 -99,184 0,70 26,128 78,174 52,46 116,70 192,70zm440 -3844c-388,0 -682,-128 -883,-384 -202,-255 -302,-634 -302,-1136l0 -2421 962 0 0 2207c0,595 209,893 626,893 186,0 367,-58 542,-174 175,-115 317,-291 427,-528l0 -2398 961 0 0 3904 -817 0 0 -760c-168,266 -383,465 -646,598 -264,133 -554,199 -870,199zm-12255 5633c0,-289 49,-561 146,-818 97,-257 237,-482 421,-676 184,-194 406,-349 666,-464 260,-116 554,-174 880,-174 439,0 813,98 1122,291 308,194 539,449 692,763l-1002 315c-87,-152 -202,-269 -345,-350 -143,-81 -301,-122 -474,-122 -149,0 -286,30 -414,90 -127,61 -238,145 -333,252 -94,108 -168,237 -222,389 -53,153 -80,320 -80,504 0,183 28,351 84,503 56,152 131,283 226,393 94,110 205,196 333,256 127,60 263,90 406,90 183,0 353,-47 509,-141 155,-95 264,-210 325,-346l1003 314c-138,315 -365,572 -682,771 -316,199 -696,299 -1140,299 -327,0 -620,-58 -880,-173 -261,-115 -483,-271 -666,-468 -184,-197 -326,-425 -425,-684 -100,-260 -150,-531 -150,-814zm-2693 1716c-366,0 -644,-120 -834,-362 -190,-241 -285,-599 -285,-1073l0 -2285 909 0 0 2083c0,562 196,843 590,843 176,0 347,-54 512,-164 165,-109 299,-275 403,-498l0 -2264 907 0 0 3685 -771 0 0 -717c-158,251 -362,439 -611,564 -248,126 -522,188 -820,188zm4650 -4320c-279,0 -491,-92 -636,-276 -145,-184 -218,-458 -218,-819l0 -1745 694 0 0 1591c0,429 150,643 450,643 135,0 265,-42 391,-125 126,-83 229,-210 308,-380l0 -1729 692 0 0 2814 -588 0 0 -548c-121,191 -276,335 -466,431 -190,96 -399,143 -627,143zm5705 -5339l0 0c229,0 454,-25 653,-125 810,-405 704,-1353 704,-1353 -162,-62 -337,-113 -527,-151 -189,-38 -371,-57 -547,-57 -351,0 -638,82 -861,245 -223,163 -334,369 -334,619 0,236 87,432 263,588 176,156 392,234 649,234zm-385 1021c-257,0 -497,-44 -720,-130 -223,-87 -415,-209 -577,-365 -163,-156 -289,-338 -380,-546 -92,-209 -137,-438 -137,-688 0,-256 56,-494 167,-713 111,-218 267,-404 466,-557 199,-152 437,-272 714,-359 277,-86 581,-130 912,-130 237,0 468,21 695,63 226,41 427,100 602,177l0 -313c0,-361 -99,-638 -299,-833 -199,-194 -494,-291 -886,-291 -284,0 -561,52 -831,156 -270,104 -547,257 -831,458l-415 -885c682,-465 1418,-697 2209,-697 763,0 1356,192 1778,578 422,385 633,942 633,1670l0 3353 -1155 0 0 -927c-236,319 -523,562 -861,729 -338,166 -699,250 -1084,250zm-2408 -2396l-1761 -1761c-152,-152 -398,-152 -549,0l-1779 1779c-55,55 -137,147 -137,292l0 2131c0,215 166,388 407,388l1022 0 0 -3135 737 0 0 672c56,-108 122,-205 198,-291 76,-86 158,-161 246,-225 88,-64 177,-113 267,-147 89,-34 176,-51 260,-51l99 0c22,0 43,2 63,6l0 732c-244,4 -461,51 -653,141 -192,90 -330,224 -414,404l0 1894 1761 0c214,0 388,-173 388,-388l0 -2131c0,-127 -60,-215 -155,-310zm-5911 3564c-224,0 -394,-74 -511,-222 -116,-148 -174,-367 -174,-658l0 -1400 557 0 0 1277c0,344 120,516 361,516 108,0 213,-33 314,-100 101,-67 183,-169 247,-305l0 -1388 555 0 0 2258 -472 0 0 -439c-97,153 -222,269 -374,346 -152,76 -320,115 -503,115zm9452 1079c-182,0 -320,-60 -415,-180 -94,-120 -141,-298 -141,-534l0 -1137 452 0 0 1036c0,280 98,420 293,420 88,0 173,-27 255,-82 82,-54 149,-137 201,-248l0 -1126 451 0 0 1834 -384 0 0 -357c-78,124 -180,218 -303,280 -124,63 -260,94 -409,94zm-912 -480l-1273 -1273c-110,-110 -287,-110 -397,0l-1285 1286c-40,39 -99,106 -99,211l0 1540c0,155 120,281 294,281l738 0 0 -2266 533 0 0 485c41,-78 88,-148 143,-210 55,-62 114,-116 178,-163 63,-46 128,-81 193,-106 65,-24 127,-37 188,-37l72 0c15,0 31,2 45,5l0 528c-176,3 -334,37 -472,102 -139,65 -239,163 -299,293l0 1369 1272 0c155,0 281,-126 281,-281l0 -1540c0,-92 -43,-155 -112,-224zm2561 521c-48,0 -93,-8 -134,-24 -42,-17 -78,-39 -108,-68 -30,-29 -54,-63 -71,-102 -17,-39 -25,-82 -25,-128 0,-48 10,-93 31,-133 21,-41 50,-76 87,-104 37,-29 81,-51 133,-67 51,-16 108,-24 170,-24 44,0 87,4 129,11 42,8 80,19 113,33l0 -58c0,-67 -19,-119 -56,-155 -37,-36 -92,-54 -165,-54 -53,0 -105,9 -155,29 -51,19 -102,48 -155,85l-78 -165c128,-87 265,-130 412,-130 142,0 253,36 332,108 78,72 118,175 118,311l0 625 -216 0 0 -173c-44,60 -97,105 -160,136 -63,31 -131,47 -202,47zm71 -190l0 0c43,0 85,-5 122,-24 151,-75 132,-252 132,-252 -31,-12 -63,-21 -99,-28 -35,-7 -69,-11 -102,-11 -65,0 -119,15 -160,46 -42,30 -63,69 -63,115 0,44 17,81 50,110 32,29 73,44 120,44zm-2343 6870c-138,0 -266,-23 -385,-70 -119,-46 -222,-111 -309,-194 -86,-84 -154,-181 -203,-292 -49,-112 -73,-234 -73,-368 0,-137 30,-264 89,-381 60,-117 143,-216 250,-297 106,-82 233,-146 381,-192 148,-47 311,-70 488,-70 126,0 250,11 371,33 121,23 228,54 322,95l0 -167c0,-193 -53,-341 -160,-445 -106,-104 -264,-156 -474,-156 -151,0 -299,28 -444,84 -144,55 -292,137 -444,244l-222 -473c365,-248 758,-372 1181,-372 408,0 725,103 950,308 226,206 339,504 339,893l0 1792 -618 0 0 -495c-126,171 -279,300 -460,389 -181,89 -374,134 -579,134zm205 -545l0 0c123,0 243,-14 350,-67 432,-217 376,-723 376,-723 -87,-34 -180,-61 -282,-81 -101,-20 -198,-31 -292,-31 -188,0 -341,44 -460,131 -120,87 -179,198 -179,331 0,126 47,231 141,315 94,83 209,125 346,125zm-1336 -2147l-430 -429c-37,-37 -97,-37 -134,0l-433 434c-14,13 -34,35 -34,71l0 520c0,52 41,94 100,94l249 0 0 -764 179 0 0 164c14,-27 30,-50 49,-71 18,-21 38,-40 60,-55 21,-16 43,-28 65,-36 22,-8 43,-13 63,-13l24 0c6,0 11,1 16,2l0 178c-60,1 -113,13 -160,35 -46,22 -80,55 -100,98l0 462 429 0c52,0 94,-42 94,-94l0 -520c0,-31 -14,-52 -37,-76zm3951 2185c-237,0 -417,-79 -540,-235 -123,-156 -184,-387 -184,-694l0 -1478 588 0 0 1348c0,363 127,545 381,545 114,0 225,-35 331,-106 107,-71 194,-178 261,-322l0 -1465 587 0 0 2384 -499 0 0 -464c-102,162 -234,284 -395,365 -161,81 -337,122 -530,122zm-3738 -2969c-110,0 -193,-37 -251,-109 -57,-73 -85,-181 -85,-323l0 -688 273 0 0 627c0,169 59,254 178,254 53,0 104,-17 154,-50 49,-32 90,-82 121,-149l0 -682 273 0 0 1109 -232 0 0 -216c-48,76 -109,132 -184,170 -75,38 -157,57 -247,57zm1219 -1261c0,-208 35,-406 106,-592 70,-186 171,-350 305,-490 133,-141 294,-253 482,-336 189,-84 401,-126 638,-126 318,0 589,71 812,211 224,141 391,325 502,553l-726 228c-63,-110 -146,-195 -250,-254 -103,-59 -218,-88 -344,-88 -107,0 -207,22 -299,65 -93,44 -173,105 -241,183 -69,78 -122,172 -161,282 -39,110 -58,232 -58,364 0,133 20,255 61,365 40,110 95,205 163,285 69,80 149,142 241,185 93,44 191,66 294,66 134,0 256,-34 369,-103 113,-68 192,-152 236,-251l726 228c-99,228 -264,414 -493,559 -229,144 -505,216 -827,216 -236,0 -449,-41 -637,-125 -189,-84 -350,-197 -483,-339 -133,-142 -236,-308 -308,-496 -72,-188 -108,-384 -108,-590zm-3817 713c0,-98 17,-191 50,-278 33,-87 81,-164 143,-230 63,-66 138,-118 226,-158 89,-39 189,-59 300,-59 149,0 276,33 381,99 105,66 184,153 236,260l-341 107c-30,-52 -69,-92 -117,-119 -49,-28 -103,-42 -162,-42 -50,0 -97,11 -140,31 -44,21 -81,49 -114,86 -32,36 -57,80 -75,132 -18,52 -27,109 -27,171 0,63 9,120 28,171 19,52 45,97 77,134 32,38 70,67 113,87 44,21 90,31 138,31 63,0 120,-16 173,-48 53,-32 90,-72 111,-118l341 107c-47,107 -124,194 -232,262 -107,68 -237,102 -388,102 -111,0 -210,-20 -299,-59 -88,-39 -164,-92 -226,-159 -63,-67 -111,-145 -145,-233 -34,-88 -51,-180 -51,-277zm14113 -13085l-1273 -1273c-110,-109 -287,-109 -397,0l-1286 1286c-39,40 -99,106 -99,211l0 1541c0,154 120,280 295,280l738 0 0 -2266 533 0 0 486c40,-78 88,-148 143,-211 55,-62 114,-116 178,-162 63,-46 127,-82 192,-106 65,-25 128,-37 189,-37l71 0c16,0 31,1 46,4l0 529c-176,3 -334,37 -472,102 -139,65 -239,162 -299,292l0 1369 1272 0c155,0 280,-126 280,-280l0 -1541c0,-91 -43,-155 -111,-224zm12980 9718c0,-208 35,-406 105,-592 71,-186 172,-350 305,-490 133,-141 294,-253 483,-336 188,-84 401,-126 638,-126 318,0 588,71 812,211 224,141 391,325 502,553l-726 228c-63,-110 -146,-195 -250,-254 -104,-59 -218,-88 -344,-88 -107,0 -207,22 -299,65 -93,44 -173,105 -242,183 -68,78 -122,172 -160,282 -39,110 -59,232 -59,364 0,134 21,255 61,365 41,110 96,205 164,285 68,80 149,142 241,185 93,44 191,66 294,66 133,0 256,-34 369,-103 113,-68 191,-152 236,-251l726 228c-100,228 -264,414 -493,559 -230,144 -505,216 -827,216 -236,0 -449,-41 -638,-125 -188,-83 -349,-197 -482,-339 -133,-143 -236,-308 -308,-496 -72,-188 -108,-384 -108,-590zm374 -3836l-691 -691c-59,-59 -156,-59 -215,0l-698 698c-22,21 -54,57 -54,114l0 836c0,84 65,153 160,153l401 0 0 -1230 289 0 0 263c22,-42 48,-80 78,-114 29,-33 61,-63 96,-88 34,-25 69,-44 105,-58 35,-13 69,-20 102,-20l39 0c8,0 17,1 24,3l0 287c-95,1 -181,20 -256,55 -75,35 -129,88 -162,159l0 743 690 0c84,0 153,-69 153,-153l0 -836c0,-49 -24,-84 -61,-121zm-1351 3204c-76,0 -147,-13 -213,-38 -66,-26 -124,-62 -172,-108 -48,-47 -85,-101 -112,-163 -27,-61 -41,-129 -41,-203 0,-77 17,-147 50,-212 33,-65 79,-120 138,-165 59,-45 130,-81 212,-107 82,-25 172,-38 270,-38 70,0 139,6 206,18 67,13 127,30 179,53l0 -93c0,-107 -30,-189 -89,-247 -59,-58 -146,-86 -263,-86 -84,0 -166,15 -246,46 -80,31 -162,76 -247,136l-123 -263c203,-138 421,-207 655,-207 227,0 403,58 528,172 125,114 188,279 188,495l0 995 -343 0 0 -275c-70,95 -155,167 -255,216 -101,50 -208,74 -322,74zm114 -302l0 0c68,0 135,-8 194,-37 240,-121 209,-402 209,-402 -48,-18 -100,-33 -156,-45 -56,-11 -110,-17 -163,-17 -104,0 -189,25 -255,73 -66,48 -99,110 -99,184 0,70 26,128 78,174 52,46 116,70 192,70zm440 -3844c-388,0 -682,-128 -884,-384 -201,-255 -301,-634 -301,-1136l0 -2421 962 0 0 2207c0,595 209,893 626,893 186,0 367,-58 542,-174 175,-115 317,-291 427,-527l0 -2399 961 0 0 3904 -817 0 0 -760c-168,266 -383,465 -647,598 -263,133 -553,199 -869,199zm-12255 5633c0,-288 49,-561 146,-818 97,-257 237,-482 421,-676 184,-194 406,-349 666,-464 260,-116 554,-173 880,-173 439,0 813,97 1122,291 308,194 539,448 692,762l-1002 315c-87,-152 -202,-269 -345,-350 -143,-81 -301,-122 -475,-122 -148,0 -285,30 -413,91 -127,60 -238,144 -333,251 -94,108 -168,237 -222,390 -54,152 -80,319 -80,503 0,183 28,351 84,503 56,152 131,283 226,393 94,111 205,196 333,256 127,60 263,90 405,90 184,0 354,-47 510,-141 155,-94 264,-210 325,-346l1003 314c-138,315 -365,572 -682,771 -316,199 -696,299 -1140,299 -327,0 -620,-58 -880,-173 -261,-115 -483,-271 -667,-468 -183,-197 -325,-425 -424,-684 -100,-260 -150,-531 -150,-814zm-2693 1716c-366,0 -644,-120 -834,-362 -190,-241 -285,-599 -285,-1073l0 -2285 909 0 0 2083c0,562 196,843 590,843 176,0 347,-54 512,-164 165,-109 299,-275 403,-498l0 -2264 907 0 0 3686 -771 0 0 -718c-159,251 -362,439 -611,564 -248,126 -522,188 -820,188zm4650 -4320c-279,0 -491,-92 -636,-276 -145,-184 -218,-457 -218,-819l0 -1744 694 0 0 1590c0,429 150,643 450,643 135,0 265,-41 391,-125 126,-83 229,-210 308,-380l0 -1728 692 0 0 2813 -588 0 0 -548c-121,192 -276,335 -466,431 -190,96 -399,143 -627,143zm5705 -5338l0 0c229,0 454,-26 653,-125 810,-406 704,-1354 704,-1354 -162,-62 -337,-113 -527,-151 -189,-38 -371,-57 -547,-57 -351,0 -638,82 -861,245 -223,163 -334,369 -334,619 0,236 87,432 263,588 176,156 392,235 649,235zm-385 1020c-257,0 -497,-44 -720,-130 -223,-87 -415,-209 -578,-365 -162,-156 -288,-338 -379,-546 -92,-209 -137,-438 -137,-687 0,-257 55,-495 167,-714 111,-218 267,-404 466,-556 199,-153 437,-273 714,-360 277,-86 581,-130 912,-130 237,0 468,21 694,63 227,41 428,100 603,177l0 -313c0,-360 -99,-638 -299,-833 -199,-194 -494,-291 -886,-291 -284,0 -561,52 -831,156 -270,104 -547,257 -831,458l-415 -885c682,-465 1418,-697 2209,-697 763,0 1356,192 1778,578 422,385 633,942 633,1670l0 3353 -1155 0 0 -927c-236,319 -524,562 -861,729 -338,166 -699,250 -1084,250zm-2408 -2396l-1761 -1761c-152,-152 -398,-152 -549,0l-1779 1779c-55,55 -137,147 -137,292l0 2131c0,215 166,388 407,388l1022 0 0 -3135 737 0 0 672c56,-108 122,-205 198,-291 76,-86 158,-161 246,-225 88,-64 177,-113 267,-147 89,-34 176,-51 260,-51l99 0c22,0 43,2 63,6l0 732c-244,4 -461,51 -653,141 -192,90 -330,225 -414,405l0 1893 1760 0c215,0 389,-173 389,-388l0 -2131c0,-127 -60,-215 -155,-310zm-5911 3564c-224,0 -394,-74 -511,-222 -116,-148 -174,-367 -174,-657l0 -1400 557 0 0 1276c0,344 120,516 361,516 108,0 213,-33 314,-100 101,-67 183,-169 247,-305l0 -1387 555 0 0 2258 -472 0 0 -440c-97,154 -222,269 -374,346 -152,76 -320,115 -503,115zm9452 1079c-182,0 -320,-60 -415,-180 -94,-120 -141,-298 -141,-534l0 -1137 452 0 0 1036c0,280 98,420 293,420 88,0 173,-27 255,-82 82,-54 149,-137 201,-247l0 -1127 451 0 0 1834 -384 0 0 -357c-78,124 -180,218 -303,280 -124,63 -260,94 -409,94zm-912 -480l-1273 -1273c-110,-109 -287,-109 -397,0l-1286 1286c-39,40 -99,106 -99,211l0 1540c0,155 121,281 295,281l738 0 0 -2266 533 0 0 485c40,-78 88,-148 143,-210 55,-62 114,-116 178,-162 63,-47 128,-82 193,-107 65,-24 127,-36 188,-36l72 0c15,0 31,1 45,4l0 529c-176,3 -334,36 -472,101 -139,65 -239,163 -299,293l0 1369 1272 0c155,0 280,-126 280,-281l0 -1540c0,-92 -42,-155 -111,-224zm2561 521c-48,0 -93,-8 -134,-24 -42,-16 -78,-39 -108,-68 -30,-29 -54,-63 -71,-102 -17,-39 -25,-82 -25,-128 0,-48 10,-92 31,-133 20,-41 49,-75 87,-104 37,-28 81,-51 133,-67 51,-16 108,-24 170,-24 44,0 87,4 129,11 42,8 80,19 113,33l0 -58c0,-67 -19,-119 -56,-155 -37,-36 -92,-54 -165,-54 -53,0 -105,9 -155,29 -51,19 -102,48 -155,85l-78 -165c127,-87 265,-130 412,-130 142,0 253,36 332,108 78,72 118,176 118,311l0 625 -216 0 0 -172c-44,59 -97,104 -160,135 -63,31 -131,47 -202,47zm71 -190l0 0c43,0 85,-5 122,-24 151,-75 132,-252 132,-252 -31,-12 -63,-21 -99,-28 -35,-7 -69,-11 -102,-11 -65,0 -119,16 -160,46 -42,30 -63,69 -63,115 0,44 17,81 50,110 32,29 73,44 120,44zm-2343 6870c-138,0 -266,-23 -385,-69 -119,-47 -222,-112 -309,-195 -86,-84 -154,-181 -203,-292 -49,-112 -73,-234 -73,-368 0,-137 30,-264 89,-381 60,-117 143,-216 250,-297 106,-82 233,-146 381,-192 148,-47 311,-70 488,-70 126,0 250,11 371,33 121,23 228,54 322,95l0 -167c0,-193 -53,-341 -160,-445 -106,-104 -264,-156 -474,-156 -151,0 -299,28 -444,84 -144,55 -292,137 -444,244l-222 -472c365,-249 758,-373 1181,-373 408,0 725,103 950,309 226,205 339,503 339,893l0 1791 -618 0 0 -495c-126,171 -279,301 -460,389 -181,90 -374,134 -579,134zm205 -545l0 0c123,0 243,-14 350,-67 432,-217 376,-723 376,-723 -87,-34 -181,-61 -282,-81 -101,-20 -198,-31 -292,-31 -188,0 -341,44 -460,131 -120,87 -179,198 -179,331 0,126 47,231 141,315 94,83 209,125 346,125zm-1336 -2147l-430 -429c-37,-37 -97,-37 -134,0l-433 434c-14,13 -34,36 -34,71l0 520c0,52 41,94 99,94l250 0 0 -764 179 0 0 164c14,-27 30,-50 49,-71 18,-21 38,-40 60,-55 21,-16 43,-28 65,-36 22,-8 43,-12 63,-12l24 0c6,0 11,0 16,1l0 178c-60,1 -113,13 -160,35 -46,22 -80,55 -101,98l0 462 430 0c52,0 94,-42 94,-94l0 -520c0,-31 -14,-52 -37,-76zm3951 2185c-237,0 -417,-78 -540,-235 -123,-156 -184,-387 -184,-694l0 -1478 588 0 0 1348c0,363 127,545 381,545 114,0 225,-35 331,-106 107,-70 194,-178 261,-322l0 -1465 587 0 0 2384 -499 0 0 -464c-102,162 -234,284 -395,365 -161,81 -337,122 -530,122zm-3738 -2969c-110,0 -194,-37 -251,-109 -57,-73 -85,-180 -85,-323l0 -687 273 0 0 626c0,169 59,254 178,254 53,0 104,-17 154,-49 49,-33 90,-83 121,-150l0 -681 273 0 0 1108 -232 0 0 -216c-48,76 -109,132 -184,170 -75,38 -157,57 -247,57zm1219 -1260c0,-209 35,-407 106,-593 70,-186 171,-350 304,-490 134,-141 294,-253 483,-336 189,-84 401,-126 638,-126 318,0 589,71 812,211 224,141 391,325 502,553l-726 228c-63,-110 -146,-195 -250,-254 -103,-59 -218,-88 -344,-88 -107,0 -207,22 -299,65 -93,44 -173,105 -241,183 -69,78 -122,172 -161,282 -39,110 -58,232 -58,365 0,133 20,254 61,364 40,110 95,205 163,285 69,80 149,142 241,185 93,44 191,66 294,66 133,0 256,-34 369,-103 113,-68 192,-152 236,-250l726 227c-99,228 -264,415 -493,559 -229,144 -505,216 -827,216 -236,0 -449,-41 -637,-125 -189,-83 -350,-197 -483,-339 -133,-142 -236,-308 -308,-496 -72,-188 -108,-384 -108,-589zm-3817 712c0,-98 17,-190 50,-278 33,-87 80,-164 143,-230 62,-66 138,-118 226,-158 89,-39 189,-58 300,-58 149,0 276,33 381,99 105,65 184,152 236,259l-341 107c-30,-52 -69,-91 -117,-119 -49,-28 -103,-42 -162,-42 -50,0 -97,11 -140,31 -44,21 -82,49 -114,86 -32,36 -57,81 -75,132 -18,52 -27,109 -27,171 0,63 9,120 28,171 19,52 45,97 77,134 32,38 70,67 113,87 44,21 90,31 138,31 63,0 120,-16 173,-48 53,-32 90,-72 111,-118l341 107c-47,107 -124,194 -232,262 -107,68 -237,102 -388,102 -111,0 -210,-20 -299,-59 -88,-39 -164,-92 -226,-159 -63,-67 -111,-145 -145,-233 -34,-88 -51,-180 -51,-277z"/>
   </g>
  </g>
  <polygon class="fil3" points="0,0 66635,0 66635,22913 0,22913 "/>
 </g>
</svg>
