<?xml version="1.0" encoding="UTF-8"?>
<!DOCTYPE svg PUBLIC "-//W3C//DTD SVG 1.1//EN" "http://www.w3.org/Graphics/SVG/1.1/DTD/svg11.dtd">
<!-- Creator: CorelDRAW X8 -->
<svg xmlns="http://www.w3.org/2000/svg" xml:space="preserve" width="351.233mm" height="125.864mm" version="1.1" style="shape-rendering:geometricPrecision; text-rendering:geometricPrecision; image-rendering:optimizeQuality; fill-rule:evenodd; clip-rule:evenodd"
viewBox="0 0 35192 12611"
 xmlns:xlink="http://www.w3.org/1999/xlink">
 <defs>
  <style type="text/css">
   <![CDATA[
    .fil2 {fill:#FFCC29;fill-rule:nonzero}
    .fil1 {fill:#F5C52E;fill-rule:nonzero}
    .fil0 {fill:#573D8D;fill-rule:nonzero}
   ]]>
  </style>
 </defs>
 <g id="Capa_x0020_1">
  <metadata id="CorelCorpID_0Corel-Layer"/>
  <path class="fil0" d="M2590 12138l-951 0 -208 461 -129 0 754 -1639 119 0 755 1639 -129 0 -211 -461zm-45 -101l-431 -946 -428 946 859 0z"/>
  <polygon id="1" class="fil0" points="8705,12491 8705,12599 7574,12599 7574,10960 8670,10960 8670,11067 7694,11067 7694,11714 8567,11714 8567,11819 7694,11819 7694,12491 "/>
  <polygon id="2" class="fil0" points="10148,12599 9584,11840 9022,12599 8881,12599 9511,11754 8926,10960 9066,10960 9588,11665 10111,10960 10244,10960 9659,11751 10289,12599 "/>
  <path id="3" class="fil0" d="M11155 10960c206,0 368,48 485,146 117,98 176,233 176,406 0,172 -59,307 -176,404 -117,98 -279,147 -485,147l-468 0 0 536 -120 0 0 -1639 588 0zm0 995c175,0 309,-38 401,-115 92,-76 138,-185 138,-328 0,-142 -46,-251 -138,-329 -92,-77 -226,-116 -401,-116l-468 0 0 888 468 0z"/>
  <polygon id="4" class="fil0" points="13350,12491 13350,12599 12219,12599 12219,10960 13315,10960 13315,11067 12338,11067 12338,11714 13212,11714 13212,11819 12338,11819 12338,12491 "/>
  <path id="5" class="fil0" d="M14924 12599l-391 -548c-58,8 -111,12 -160,12l-468 0 0 536 -119 0 0 -1639 587 0c207,0 368,48 485,146 117,98 176,233 176,406 0,130 -33,239 -100,327 -66,88 -161,150 -284,186l410 574 -136 0zm-551 -642c175,0 309,-38 401,-115 92,-78 138,-187 138,-330 0,-142 -46,-251 -138,-329 -92,-77 -226,-116 -401,-116l-468 0 0 890 468 0z"/>
  <polygon id="6" class="fil0" points="15472,10960 15591,10960 15591,12599 15472,12599 "/>
  <polygon id="7" class="fil0" points="17294,12491 17294,12599 16163,12599 16163,10960 17259,10960 17259,11067 16282,11067 16282,11714 17156,11714 17156,11819 16282,11819 16282,12491 "/>
  <polygon id="8" class="fil0" points="19065,10960 19065,12599 18967,12599 17849,11175 17849,12599 17730,12599 17730,10960 17831,10960 18945,12384 18945,10960 "/>
  <path id="9" class="fil0" d="M20330 12611c-161,0 -306,-36 -435,-108 -129,-72 -230,-171 -304,-297 -74,-127 -112,-269 -112,-427 0,-157 38,-299 112,-426 74,-126 175,-225 304,-297 129,-72 274,-108 435,-108 118,0 228,19 328,57 100,39 185,95 255,170l-75 77c-131,-129 -299,-194 -504,-194 -137,0 -262,31 -374,94 -113,62 -201,148 -265,259 -64,110 -96,233 -96,368 0,136 32,259 96,369 64,110 152,197 265,259 112,63 237,94 374,94 203,0 371,-66 504,-197l75 77c-70,75 -156,132 -257,171 -100,39 -209,59 -326,59z"/>
  <polygon id="10" class="fil0" points="21313,10960 21433,10960 21433,12599 21313,12599 "/>
  <path id="11" class="fil0" d="M23018 12138l-950 0 -209 461 -129 0 754 -1639 120 0 754 1639 -129 0 -211 -461zm-44 -101l-431 -946 -429 946 860 0z"/>
  <polygon id="12" class="fil1" points="4143,11067 3553,11067 3553,10960 4852,10960 4852,11067 4262,11067 4262,12599 4143,12599 "/>
  <path id="13" class="fil1" d="M5757 12611c-208,0 -369,-60 -484,-180 -115,-121 -172,-296 -172,-527l0 -944 119 0 0 939c0,201 46,352 138,452 93,100 226,150 401,150 173,0 306,-50 398,-150 92,-100 138,-251 138,-452l0 -939 120 0 0 944c0,231 -58,406 -174,527 -115,120 -277,180 -484,180z"/>
  <path class="fil0" d="M2275 10671c-433,0 -854,-49 -1264,-146 -411,-97 -747,-227 -1011,-391l567 -1283c249,144 527,260 835,347 309,87 604,130 888,130 244,0 418,-23 522,-71 104,-47 157,-118 157,-212 0,-110 -69,-192 -205,-246 -137,-55 -362,-115 -676,-179 -402,-85 -738,-176 -1006,-273 -269,-97 -503,-256 -702,-477 -199,-221 -298,-521 -298,-899 0,-328 92,-626 276,-895 184,-268 459,-480 824,-634 366,-154 810,-231 1332,-231 358,0 709,38 1055,115 346,78 650,191 914,340l-530 1275c-512,-258 -997,-388 -1454,-388 -453,0 -679,110 -679,329 0,104 67,182 201,235 135,52 356,108 664,167 398,75 734,161 1007,258 274,97 511,255 712,473 202,219 303,518 303,896 0,328 -92,625 -276,891 -184,266 -459,477 -825,634 -365,156 -809,235 -1331,235z"/>
  <polygon id="1" class="fil0" points="5879,6695 4350,6695 4350,5330 9168,5330 9168,6695 7639,6695 7639,10551 5879,10551 "/>
  <path id="2" class="fil0" d="M11451 9239l-477 0 0 1312 -1760 0 0 -5221 2513 0c483,0 903,80 1261,239 358,159 634,388 828,686 194,298 291,647 291,1044 0,373 -85,699 -254,977 -169,279 -413,500 -731,664l1097 1611 -1880 0 -888 -1312zm881 -1940c0,-194 -60,-344 -179,-451 -120,-107 -299,-160 -538,-160l-641 0 0 1223 641 0c239,0 418,-53 538,-160 119,-107 179,-258 179,-452z"/>
  <polygon id="3" class="fil0" points="18702,9224 18702,10551 14361,10551 14361,5330 18605,5330 18605,6658 16092,6658 16092,7270 18300,7270 18300,8538 16092,8538 16092,9224 "/>
  <path id="4" class="fil0" d="M20919 10671c-433,0 -854,-49 -1265,-146 -410,-97 -747,-227 -1010,-391l567 -1283c248,144 527,260 835,347 308,87 604,130 888,130 243,0 417,-23 522,-71 104,-47 156,-118 156,-212 0,-110 -68,-192 -205,-246 -137,-55 -362,-115 -675,-179 -403,-85 -738,-176 -1007,-273 -268,-97 -502,-256 -701,-477 -199,-221 -298,-521 -298,-899 0,-328 92,-626 276,-895 184,-268 458,-480 824,-634 365,-154 809,-231 1331,-231 358,0 710,38 1056,115 345,78 650,191 914,340l-530 1275c-512,-258 -997,-388 -1455,-388 -452,0 -678,110 -678,329 0,104 67,182 201,235 134,52 356,108 664,167 398,75 733,161 1007,258 273,97 511,255 712,473 202,219 302,518 302,896 0,328 -92,625 -276,891 -184,266 -458,477 -824,634 -365,156 -809,235 -1331,235z"/>
  <path id="5" class="fil0" d="M25410 10671c-433,0 -854,-49 -1264,-146 -411,-97 -748,-227 -1011,-391l567 -1283c248,144 527,260 835,347 309,87 604,130 888,130 243,0 418,-23 522,-71 104,-47 157,-118 157,-212 0,-110 -69,-192 -206,-246 -136,-55 -361,-115 -675,-179 -402,-85 -738,-176 -1007,-273 -268,-97 -502,-256 -701,-477 -199,-221 -298,-521 -298,-899 0,-328 92,-626 276,-895 184,-268 459,-480 824,-634 366,-154 809,-231 1332,-231 358,0 709,38 1055,115 346,78 650,191 914,340l-530 1275c-512,-258 -997,-388 -1454,-388 -453,0 -679,110 -679,329 0,104 67,182 201,235 135,52 356,108 664,167 398,75 734,161 1007,258 274,97 511,255 712,473 202,219 303,518 303,896 0,328 -92,625 -276,891 -184,266 -459,477 -825,634 -365,156 -809,235 -1331,235z"/>
  <polygon class="fil2" points="5692,6517 5674,3613 4291,5944 3344,5944 1960,3714 1960,6517 4,6517 4,146 1769,146 3845,3541 5865,146 7631,146 7649,6517 "/>
  <polygon id="1" class="fil2" points="13984,4897 13984,6517 8687,6517 8687,146 13866,146 13866,1766 10798,1766 10798,2512 13493,2512 13493,4060 10798,4060 10798,4897 "/>
  <polygon id="2" class="fil2" points="21093,146 21093,6517 19327,6517 16906,3623 16906,6517 14812,6517 14812,146 16578,146 18999,3040 18999,146 "/>
  <path id="3" class="fil2" d="M25471 6663c-686,0 -1302,-143 -1848,-428 -546,-285 -974,-681 -1283,-1188 -310,-507 -464,-1079 -464,-1716 0,-637 154,-1209 464,-1715 309,-507 737,-903 1283,-1188 546,-285 1162,-428 1848,-428 686,0 1301,143 1848,428 546,285 973,681 1283,1188 309,506 464,1078 464,1715 0,637 -155,1209 -464,1716 -310,507 -737,903 -1283,1188 -547,285 -1162,428 -1848,428zm0 -1739c267,0 508,-65 723,-195 216,-131 387,-316 515,-556 127,-239 191,-520 191,-842 0,-321 -64,-602 -191,-842 -128,-239 -299,-424 -515,-555 -215,-130 -456,-196 -723,-196 -267,0 -508,66 -724,196 -215,131 -387,316 -514,555 -127,240 -191,521 -191,842 0,322 64,603 191,842 127,240 299,425 514,556 216,130 457,195 724,195z"/>
  <path id="4" class="fil2" d="M32224 6663c-527,0 -1042,-60 -1542,-178 -501,-118 -912,-277 -1234,-478l692 -1565c304,176 643,317 1020,423 376,106 737,159 1083,159 297,0 509,-29 637,-86 127,-58 191,-144 191,-260 0,-133 -83,-233 -250,-300 -167,-67 -442,-140 -824,-218 -492,-104 -901,-214 -1229,-333 -327,-118 -613,-312 -855,-582 -243,-270 -364,-636 -364,-1097 0,-400 112,-765 336,-1092 225,-328 560,-586 1006,-774 446,-188 988,-282 1625,-282 437,0 866,47 1288,141 421,94 793,232 1115,414l-647 1557c-625,-316 -1216,-474 -1774,-474 -553,0 -829,134 -829,401 0,127 82,223 246,287 164,63 434,131 810,204 486,91 895,196 1229,314 334,119 623,311 869,578 246,267 369,631 369,1093 0,400 -113,763 -337,1087 -225,325 -560,583 -1006,774 -446,191 -987,287 -1625,287z"/>
 </g>
</svg>
