<?xml version="1.0" encoding="UTF-8"?>
<!DOCTYPE svg PUBLIC "-//W3C//DTD SVG 1.1//EN" "http://www.w3.org/Graphics/SVG/1.1/DTD/svg11.dtd">
<!-- Creator: CorelDRAW X8 -->
<svg xmlns="http://www.w3.org/2000/svg" xml:space="preserve" width="261.458mm" height="149.365mm" version="1.1" style="shape-rendering:geometricPrecision; text-rendering:geometricPrecision; image-rendering:optimizeQuality; fill-rule:evenodd; clip-rule:evenodd"
viewBox="0 0 56599 32333"
 xmlns:xlink="http://www.w3.org/1999/xlink">
 <defs>
  <style type="text/css">
   <![CDATA[
    .fil1 {fill:#FEFEFE;fill-rule:nonzero}
    .fil0 {fill:#573D8D;fill-rule:nonzero}
   ]]>
  </style>
 </defs>
 <g id="Capa_x0020_1">
  <metadata id="CorelCorpID_0Corel-Layer"/>
  <polygon class="fil0" points="15932,23363 15881,15235 12009,21758 9359,21758 5487,15516 5487,23363 9,23363 9,5529 4952,5529 10761,15032 16416,5529 21359,5529 21410,23363 "/>
  <path id="1" class="fil0" d="M34864 20254l-6777 0 -1197 3109 -6115 0 7796 -17834 5911 0 7796 17834 -6216 0 -1198 -3109zm-1656 -4331l-1732 -4484 -1733 4484 3465 0zm-993 -15923l5477 0 -5019 4076 -3821 0 3363 -4076z"/>
  <path id="2" class="fil0" d="M48293 23770c-1478,0 -2917,-165 -4318,-497 -1402,-331 -2552,-777 -3453,-1337l1937 -4382c849,492 1800,887 2853,1184 1053,298 2064,446 3032,446 832,0 1427,-80 1783,-242 357,-161 535,-403 535,-726 0,-373 -233,-654 -700,-841 -467,-186 -1236,-390 -2306,-611 -1376,-289 -2522,-599 -3439,-930 -917,-331 -1716,-875 -2395,-1630 -680,-756 -1019,-1780 -1019,-3070 0,-1121 314,-2141 942,-3058 629,-917 1567,-1639 2816,-2165 1248,-527 2764,-790 4547,-790 1223,0 2425,132 3605,395 1181,263 2221,649 3121,1159l-1809 4357c-1749,-884 -3405,-1325 -4968,-1325 -1545,0 -2318,373 -2318,1121 0,356 229,624 688,802 458,179 1214,370 2267,574 1359,254 2506,547 3440,879 934,331 1745,870 2433,1617 688,748 1032,1767 1032,3058 0,1121 -315,2135 -943,3044 -628,909 -1567,1631 -2815,2166 -1249,535 -2765,802 -4548,802z"/>
  <path class="fil1" d="M2570 27167l-549 0 0 1508 -2021 0 0 -5996 2887 0c554,0 1036,91 1447,274 411,183 728,445 951,788 223,343 334,742 334,1199 0,428 -97,802 -291,1122 -194,320 -474,574 -840,763l1260 1850 -2159 0 -1019 -1508zm1010 -2227c0,-223 -68,-395 -205,-518 -137,-123 -343,-184 -617,-184l-737 0 0 1405 737 0c274,0 480,-62 617,-185 137,-122 205,-295 205,-518z"/>
  <polygon id="1" class="fil1" points="10897,27150 10897,28675 5911,28675 5911,22679 10785,22679 10785,24203 7899,24203 7899,24906 10434,24906 10434,26362 7899,26362 7899,27150 "/>
  <path id="2" class="fil1" d="M13442 28812c-497,0 -981,-56 -1452,-167 -471,-112 -858,-261 -1161,-450l651 -1473c286,165 606,298 960,398 354,100 693,150 1019,150 280,0 480,-27 600,-81 119,-55 179,-136 179,-244 0,-126 -78,-220 -235,-283 -157,-63 -416,-131 -775,-206 -463,-97 -848,-201 -1157,-312 -308,-112 -576,-294 -805,-549 -228,-254 -342,-598 -342,-1032 0,-377 105,-719 316,-1028 212,-308 527,-551 947,-728 420,-177 929,-265 1529,-265 411,0 815,44 1212,133 397,88 747,218 1049,389l-608 1465c-588,-297 -1145,-445 -1670,-445 -520,0 -780,125 -780,376 0,120 77,210 232,270 154,60 408,124 762,193 457,86 842,184 1156,296 314,111 587,292 818,543 232,252 347,594 347,1028 0,377 -105,718 -317,1024 -211,305 -526,548 -946,728 -420,180 -930,270 -1529,270z"/>
  <path id="3" class="fil1" d="M19233 28812c-919,0 -1636,-249 -2150,-745 -514,-497 -771,-1194 -771,-2090l0 -3298 2022 0 0 3238c0,439 78,759 235,959 158,200 385,300 681,300 297,0 524,-100 681,-300 157,-200 236,-520 236,-959l0 -3238 1987 0 0 3298c0,896 -257,1593 -771,2090 -514,496 -1230,745 -2150,745z"/>
  <polygon id="4" class="fil1" points="22609,22679 24631,22679 24631,27107 27338,27107 27338,28675 22609,28675 "/>
  <polygon id="5" class="fil1" points="28170,24246 26414,24246 26414,22679 31947,22679 31947,24246 30191,24246 30191,28675 28170,28675 "/>
  <path id="6" class="fil1" d="M35786 27630l-2279 0 -402 1045 -2056 0 2621 -5996 1987 0 2621 5996 -2090 0 -402 -1045zm-557 -1456l-583 -1508 -582 1508 1165 0z"/>
  <path id="7" class="fil1" d="M38134 22679l2955 0c668,0 1258,121 1769,364 511,243 908,589 1190,1041 283,451 424,982 424,1593 0,611 -141,1142 -424,1593 -282,451 -679,798 -1190,1041 -511,242 -1101,364 -1769,364l-2955 0 0 -5996zm2869 4420c434,0 781,-125 1041,-373 260,-248 390,-598 390,-1049 0,-451 -130,-801 -390,-1050 -260,-248 -607,-372 -1041,-372l-848 0 0 2844 848 0z"/>
  <path id="8" class="fil1" d="M47883 28812c-646,0 -1225,-134 -1739,-403 -514,-268 -917,-641 -1208,-1118 -291,-476 -437,-1015 -437,-1614 0,-600 146,-1138 437,-1615 291,-477 694,-849 1208,-1118 514,-268 1093,-402 1739,-402 645,0 1225,134 1739,402 513,269 916,641 1207,1118 292,477 437,1015 437,1615 0,599 -145,1138 -437,1614 -291,477 -694,850 -1207,1118 -514,269 -1094,403 -1739,403zm0 -1636c251,0 478,-62 681,-184 202,-123 364,-297 484,-523 120,-225 179,-490 179,-792 0,-303 -59,-567 -179,-793 -120,-225 -282,-399 -484,-522 -203,-123 -430,-184 -681,-184 -252,0 -479,61 -681,184 -203,123 -364,297 -484,522 -120,226 -180,490 -180,793 0,302 60,567 180,792 120,226 281,400 484,523 202,122 429,184 681,184z"/>
  <path id="9" class="fil1" d="M53768 28812c-496,0 -980,-56 -1451,-167 -472,-112 -858,-261 -1161,-450l651 -1473c285,165 605,298 959,398 354,100 694,150 1020,150 279,0 479,-27 599,-81 120,-55 180,-136 180,-244 0,-126 -78,-220 -236,-283 -157,-63 -415,-131 -775,-206 -462,-97 -848,-201 -1156,-312 -308,-112 -577,-294 -805,-549 -229,-254 -343,-598 -343,-1032 0,-377 106,-719 317,-1028 211,-308 527,-551 947,-728 419,-177 929,-265 1529,-265 411,0 815,44 1212,133 396,88 746,218 1049,389l-608 1465c-588,-297 -1145,-445 -1671,-445 -519,0 -779,125 -779,376 0,120 77,210 231,270 154,60 408,124 763,193 456,86 842,184 1156,296 314,111 587,292 818,543 231,252 347,594 347,1028 0,377 -106,718 -317,1024 -211,305 -527,548 -947,728 -419,180 -929,270 -1529,270z"/>
  <path class="fil1" d="M15670 31409l-1858 0 -407 902 -251 0 1473 -3202 233 0 1473 3202 -252 0 -411 -902zm-87 -196l-842 -1848 -837 1848 1679 0z"/>
  <polygon id="1" class="fil1" points="18702,29319 17550,29319 17550,29109 20088,29109 20088,29319 18936,29319 18936,32311 18702,32311 "/>
  <path id="2" class="fil1" d="M21854 32333c-406,0 -720,-117 -945,-352 -224,-235 -336,-578 -336,-1029l0 -1843 234 0 0 1834c0,393 89,688 269,883 180,195 441,292 783,292 338,0 597,-97 777,-292 180,-195 270,-490 270,-883l0 -1834 233 0 0 1843c0,451 -112,794 -338,1029 -226,235 -541,352 -947,352z"/>
  <polygon id="3" class="fil0" points="27613,32100 27613,32311 25404,32311 25404,29109 27544,29109 27544,29319 25637,29319 25637,30582 27343,30582 27343,30787 25637,30787 25637,32100 "/>
  <polygon id="4" class="fil0" points="30431,32311 29328,30829 28231,32311 27956,32311 29187,30659 28043,29109 28317,29109 29338,30485 30358,29109 30618,29109 29475,30655 30705,32311 "/>
  <path id="5" class="fil0" d="M32398 29109c402,0 718,95 947,286 228,190 343,455 343,793 0,336 -115,599 -343,789 -229,191 -545,286 -947,286l-915 0 0 1048 -233 0 0 -3202 1148 0zm0 1944c341,0 602,-75 782,-224 180,-150 270,-363 270,-641 0,-277 -90,-492 -270,-643 -180,-150 -441,-226 -782,-226l-915 0 0 1734 915 0z"/>
  <polygon id="6" class="fil0" points="36684,32100 36684,32311 34474,32311 34474,29109 36615,29109 36615,29319 34708,29319 34708,30582 36414,30582 36414,30787 34708,30787 34708,32100 "/>
  <path id="7" class="fil0" d="M39758 32311l-764 -1071c-113,15 -217,23 -311,23l-915 0 0 1048 -233 0 0 -3202 1148 0c402,0 718,95 947,286 228,190 343,455 343,793 0,253 -65,466 -195,638 -129,173 -315,294 -555,364l800 1121 -265 0zm-1075 -1254c341,0 602,-75 782,-226 180,-151 270,-365 270,-643 0,-277 -90,-492 -270,-643 -180,-150 -441,-226 -782,-226l-915 0 0 1738 915 0z"/>
  <polygon id="8" class="fil0" points="40828,29109 41061,29109 41061,32311 40828,32311 "/>
  <polygon id="9" class="fil0" points="44387,32100 44387,32311 42178,32311 42178,29109 44318,29109 44318,29319 42411,29319 42411,30582 44117,30582 44117,30787 42411,30787 42411,32100 "/>
  <polygon id="10" class="fil0" points="47845,29109 47845,32311 47653,32311 45471,29529 45471,32311 45238,32311 45238,29109 45434,29109 47612,31890 47612,29109 "/>
  <path id="11" class="fil0" d="M50315 32333c-314,0 -597,-70 -848,-210 -252,-140 -450,-334 -595,-581 -145,-247 -217,-524 -217,-832 0,-308 72,-586 217,-833 145,-247 343,-441 595,-581 251,-140 534,-210 848,-210 232,0 445,37 641,112 195,75 361,185 498,331l-146 151c-256,-253 -584,-379 -984,-379 -268,0 -512,61 -732,183 -219,122 -391,290 -516,505 -125,215 -188,455 -188,721 0,265 63,505 188,720 125,215 297,384 516,506 220,122 464,182 732,182 397,0 725,-128 984,-384l146 151c-137,147 -304,258 -501,334 -196,76 -409,114 -638,114z"/>
  <polygon id="12" class="fil0" points="52236,29109 52470,29109 52470,32311 52236,32311 "/>
  <path id="13" class="fil0" d="M55566 31409l-1857 0 -407 902 -251 0 1472 -3202 234 0 1473 3202 -252 0 -412 -902zm-86 -196l-842 -1848 -837 1848 1679 0z"/>
 </g>
</svg>
