<?xml version="1.0" encoding="UTF-8"?>
<!DOCTYPE svg PUBLIC "-//W3C//DTD SVG 1.1//EN" "http://www.w3.org/Graphics/SVG/1.1/DTD/svg11.dtd">
<!-- Creator: CorelDRAW X8 -->
<svg xmlns="http://www.w3.org/2000/svg" xml:space="preserve" width="361.135mm" height="121.824mm" version="1.1" style="shape-rendering:geometricPrecision; text-rendering:geometricPrecision; image-rendering:optimizeQuality; fill-rule:evenodd; clip-rule:evenodd"
viewBox="0 0 36840 12428"
 xmlns:xlink="http://www.w3.org/1999/xlink">
 <defs>
  <style type="text/css">
   <![CDATA[
    .fil1 {fill:#F5C52E;fill-rule:nonzero}
    .fil2 {fill:#654496;fill-rule:nonzero}
    .fil0 {fill:#573D8D;fill-rule:nonzero}
   ]]>
  </style>
 </defs>
 <g id="Capa_x0020_1">
  <metadata id="CorelCorpID_0Corel-Layer"/>
  <path class="fil0" d="M3546 4989c-493,0 -938,-106 -1333,-317 -396,-211 -706,-507 -930,-886 -224,-379 -337,-810 -337,-1292 0,-481 113,-912 337,-1291 224,-379 534,-675 930,-886 395,-211 840,-317 1333,-317 453,0 858,82 1213,245 356,164 649,400 880,709l-993 907c-289,-373 -629,-559 -1020,-559 -329,0 -593,108 -793,323 -200,216 -300,506 -300,869 0,364 100,654 300,869 200,216 464,324 793,324 391,0 731,-186 1020,-559l993 907c-231,309 -524,545 -880,709 -355,163 -760,245 -1213,245z"/>
  <path id="1" class="fil0" d="M8092 3680l-427 0 0 1200 -1573 0 0 -4771 2246 0c432,0 807,73 1127,218 320,146 567,355 740,627 173,273 260,591 260,954 0,341 -76,639 -227,893 -151,255 -369,457 -653,607l980 1472 -1680 0 -793 -1200zm786 -1772c0,-177 -53,-314 -160,-412 -106,-98 -266,-147 -480,-147l-573 0 0 1118 573 0c214,0 374,-49 480,-146 107,-98 160,-235 160,-413z"/>
  <polygon id="2" class="fil0" points="14937,3667 14937,4880 11058,4880 11058,109 14851,109 14851,1322 12604,1322 12604,1881 14577,1881 14577,3040 12604,3040 12604,3667 "/>
  <path id="3" class="fil0" d="M34667 4989c-386,0 -763,-44 -1129,-133 -367,-89 -668,-208 -904,-358l507 -1172c222,132 471,237 747,317 275,79 540,119 793,119 218,0 373,-21 466,-65 94,-43 140,-108 140,-194 0,-100 -61,-175 -183,-225 -122,-50 -323,-104 -603,-163 -360,-78 -660,-161 -900,-249 -240,-89 -449,-234 -627,-436 -177,-202 -266,-476 -266,-822 0,-299 82,-572 246,-817 165,-246 410,-439 737,-580 327,-141 723,-211 1190,-211 320,0 634,35 943,106 309,70 581,173 816,310l-473 1165c-457,-236 -891,-354 -1300,-354 -404,0 -606,100 -606,300 0,95 60,167 180,214 120,48 318,99 593,154 356,68 656,146 900,235 244,88 457,233 637,433 179,200 269,472 269,817 0,300 -82,572 -246,815 -165,243 -410,436 -737,579 -326,143 -723,215 -1190,215z"/>
  <path id="4" class="fil1" d="M18723 4048l-1773 0 -313 832 -1600 0 2040 -4771 1546 0 2040 4771 -1626 0 -314 -832zm-433 -1158l-453 -1200 -453 1200 906 0z"/>
  <polygon id="5" class="fil1" points="25082,4880 25069,2706 24056,4450 23363,4450 22350,2781 22350,4880 20916,4880 20916,109 22210,109 23729,2651 25209,109 26502,109 26515,4880 "/>
  <path id="6" class="fil1" d="M29722 4989c-503,0 -954,-107 -1353,-320 -400,-214 -714,-510 -940,-890 -227,-379 -340,-807 -340,-1285 0,-477 113,-905 340,-1284 226,-380 540,-676 940,-890 399,-213 850,-320 1353,-320 502,0 953,107 1353,320 400,214 713,510 940,890 226,379 340,807 340,1284 0,478 -114,906 -340,1285 -227,380 -540,676 -940,890 -400,213 -851,320 -1353,320zm0 -1302c195,0 372,-49 530,-146 157,-98 283,-237 376,-416 93,-180 140,-390 140,-631 0,-240 -47,-451 -140,-630 -93,-179 -219,-318 -376,-416 -158,-97 -335,-146 -530,-146 -196,0 -373,49 -530,146 -158,98 -284,237 -377,416 -93,179 -140,390 -140,630 0,241 47,451 140,631 93,179 219,318 377,416 157,97 334,146 530,146z"/>
  <polygon class="fil2" points="6111,5166 3150,12397 2961,12397 0,5166 216,5166 3055,12118 5895,5166 "/>
  <path id="1" class="fil2" d="M9191 10217l-4023 0 -922 2180 -216 0 3056 -7231 188 0 3055 7231 -216 0 -922 -2180zm-84 -196l-1927 -4576 -1928 4576 3855 0z"/>
  <polygon id="2" class="fil2" points="10768,5166 10956,5166 10956,12200 14876,12200 14876,12397 10768,12397 "/>
  <path id="3" class="fil2" d="M17204 12428c-633,0 -1206,-159 -1720,-476 -514,-316 -918,-752 -1213,-1306 -294,-555 -442,-1176 -442,-1865 0,-688 148,-1310 442,-1864 295,-555 699,-990 1213,-1307 514,-317 1087,-475 1720,-475 634,0 1207,158 1721,475 514,317 918,752 1213,1307 294,554 442,1176 442,1864 0,689 -148,1310 -442,1865 -295,554 -699,990 -1213,1306 -514,317 -1087,476 -1721,476zm0 -197c596,0 1137,-149 1622,-449 486,-300 868,-713 1147,-1240 279,-526 419,-1113 419,-1761 0,-647 -140,-1234 -419,-1761 -279,-527 -661,-940 -1147,-1240 -485,-299 -1026,-449 -1622,-449 -595,0 -1136,150 -1621,449 -486,300 -868,713 -1147,1240 -279,527 -419,1114 -419,1761 0,648 140,1235 419,1761 279,527 661,940 1147,1240 485,300 1026,449 1621,449z"/>
  <path id="4" class="fil2" d="M25691 12397l-1674 -2552c-219,48 -476,73 -771,73l-2040 0 0 2479 -188 0 0 -7231 2228 0c809,0 1442,208 1900,625 457,416 686,1000 686,1751 0,578 -141,1062 -423,1451 -282,389 -680,656 -1194,801l1711 2603 -235 0zm-2426 -2676c765,0 1352,-189 1763,-568 411,-379 616,-916 616,-1611 0,-696 -205,-1233 -616,-1612 -411,-378 -998,-568 -1763,-568l-2059 0 0 4359 2059 0z"/>
 </g>
</svg>
