<?xml version="1.0" encoding="UTF-8"?>
<!DOCTYPE svg PUBLIC "-//W3C//DTD SVG 1.1//EN" "http://www.w3.org/Graphics/SVG/1.1/DTD/svg11.dtd">
<!-- Creator: CorelDRAW X8 -->
<svg xmlns="http://www.w3.org/2000/svg" xml:space="preserve" width="262.531mm" height="151.098mm" version="1.1" style="shape-rendering:geometricPrecision; text-rendering:geometricPrecision; image-rendering:optimizeQuality; fill-rule:evenodd; clip-rule:evenodd"
viewBox="0 0 19741 11362"
 xmlns:xlink="http://www.w3.org/1999/xlink">
 <defs>
  <style type="text/css">
   <![CDATA[
    .fil0 {fill:#FEFEFE;fill-rule:nonzero}
    .fil1 {fill:#FFCC29;fill-rule:nonzero}
   ]]>
  </style>
 </defs>
 <g id="Capa_x0020_1">
  <metadata id="CorelCorpID_0Corel-Layer"/>
  <path class="fil0" d="M989 10998l-730 0 -160 355 -99 0 579 -1259 92 0 578 1259 -98 0 -162 -355zm-34 -77l-331 -726 -329 726 660 0z"/>
  <polygon id="1" class="fil0" points="2181,10177 1728,10177 1728,10094 2725,10094 2725,10177 2272,10177 2272,11353 2181,11353 "/>
  <path id="2" class="fil0" d="M3419 11362c-159,0 -283,-47 -371,-139 -88,-92 -132,-227 -132,-404l0 -725 92 0 0 721c0,155 35,270 106,347 70,77 173,115 307,115 133,0 235,-38 306,-115 70,-77 106,-192 106,-347l0 -721 91 0 0 725c0,177 -44,312 -133,404 -88,92 -212,139 -372,139z"/>
  <polygon id="3" class="fil1" points="5683,11270 5683,11353 4814,11353 4814,10094 5656,10094 5656,10177 4906,10177 4906,10673 5577,10673 5577,10754 4906,10754 4906,11270 "/>
  <polygon id="4" class="fil1" points="6790,11353 6357,10770 5925,11353 5817,11353 6301,10704 5852,10094 5959,10094 6360,10635 6761,10094 6864,10094 6414,10702 6898,11353 "/>
  <path id="5" class="fil1" d="M7563 10094c158,0 282,38 372,113 90,75 135,178 135,311 0,132 -45,236 -135,311 -90,75 -214,112 -372,112l-359 0 0 412 -92 0 0 -1259 451 0zm0 764c134,0 237,-29 307,-88 71,-59 107,-142 107,-252 0,-109 -36,-193 -107,-252 -70,-59 -173,-89 -307,-89l-359 0 0 681 359 0z"/>
  <polygon id="6" class="fil1" points="9248,11270 9248,11353 8379,11353 8379,10094 9221,10094 9221,10177 8471,10177 8471,10673 9141,10673 9141,10754 8471,10754 8471,11270 "/>
  <path id="7" class="fil1" d="M10456 11353l-301 -421c-44,6 -85,9 -122,9l-359 0 0 412 -92 0 0 -1259 451 0c158,0 282,38 372,113 90,75 135,178 135,311 0,100 -25,184 -76,251 -51,68 -124,116 -219,143l315 441 -104 0zm-423 -493c134,0 237,-30 308,-89 70,-59 106,-143 106,-253 0,-109 -36,-193 -106,-252 -71,-59 -174,-89 -308,-89l-359 0 0 683 359 0z"/>
  <polygon id="8" class="fil1" points="10876,10094 10968,10094 10968,11353 10876,11353 "/>
  <polygon id="9" class="fil1" points="12275,11270 12275,11353 11407,11353 11407,10094 12248,10094 12248,10177 11498,10177 11498,10673 12169,10673 12169,10754 11498,10754 11498,11270 "/>
  <polygon id="10" class="fil1" points="13634,10094 13634,11353 13559,11353 12701,10260 12701,11353 12609,11353 12609,10094 12687,10094 13542,11187 13542,10094 "/>
  <path id="11" class="fil1" d="M14605 11362c-124,0 -235,-28 -334,-83 -99,-55 -176,-131 -233,-228 -57,-97 -86,-207 -86,-328 0,-121 29,-230 86,-327 57,-97 134,-173 233,-228 99,-55 210,-83 334,-83 91,0 175,15 251,44 77,30 143,73 196,131l-57 59c-101,-100 -230,-149 -387,-149 -105,0 -201,24 -287,72 -87,48 -154,114 -203,198 -50,85 -74,179 -74,283 0,105 24,199 74,284 49,84 116,150 203,198 86,48 182,72 287,72 156,0 285,-50 387,-151l57 59c-53,58 -119,102 -196,132 -78,30 -161,45 -251,45z"/>
  <polygon id="12" class="fil1" points="15360,10094 15452,10094 15452,11353 15360,11353 "/>
  <path id="13" class="fil1" d="M16669 10998l-730 0 -160 355 -99 0 579 -1259 91 0 579 1259 -99 0 -161 -355zm-35 -77l-330 -726 -329 726 659 0z"/>
  <polygon class="fil1" points="5460,7605 5444,4959 4183,7082 3321,7082 2060,5050 2060,7605 277,7605 277,1800 1886,1800 3777,4893 5618,1800 7227,1800 7243,7605 "/>
  <path id="1" class="fil1" d="M12144 6593l-2205 0 -390 1012 -1990 0 2537 -5805 1924 0 2538 5805 -2024 0 -390 -1012zm-539 -1410l-563 -1460 -564 1460 1127 0zm-323 -5183l1783 0 -1634 1327 -1244 0 1095 -1327z"/>
  <path id="2" class="fil1" d="M17037 7737c-481,0 -949,-54 -1405,-162 -456,-107 -831,-252 -1124,-435l630 -1426c277,160 586,289 929,385 343,97 672,145 987,145 271,0 464,-26 580,-78 116,-53 174,-132 174,-237 0,-121 -76,-212 -228,-273 -152,-61 -402,-127 -750,-199 -448,-94 -821,-195 -1120,-303 -298,-108 -558,-285 -779,-531 -221,-246 -332,-579 -332,-999 0,-365 102,-697 307,-995 205,-299 510,-534 916,-705 407,-171 900,-257 1481,-257 398,0 789,43 1173,128 384,86 723,212 1016,378l-589 1418c-569,-288 -1108,-431 -1617,-431 -503,0 -755,121 -755,364 0,117 75,204 224,262 150,58 396,120 738,186 443,83 816,179 1120,286 304,108 568,284 792,527 224,243 336,575 336,995 0,365 -103,695 -307,991 -205,296 -510,531 -916,705 -407,174 -900,261 -1481,261z"/>
  <path class="fil0" d="M1099 9311c-177,0 -336,-37 -477,-111 -142,-74 -253,-177 -334,-310 -80,-133 -120,-284 -120,-453 0,-169 40,-319 120,-452 81,-133 192,-237 334,-311 141,-74 300,-111 477,-111 162,0 307,29 435,86 127,57 232,140 315,248l-356 318c-103,-130 -225,-196 -365,-196 -118,0 -213,38 -284,114 -72,75 -108,177 -108,304 0,127 36,229 108,305 71,75 166,113 284,113 140,0 262,-65 365,-196l356 318c-83,108 -188,191 -315,248 -128,57 -273,86 -435,86z"/>
  <path id="1" class="fil0" d="M2721 9311c-180,0 -342,-37 -485,-112 -143,-75 -256,-179 -337,-312 -81,-133 -121,-283 -121,-450 0,-167 40,-317 121,-450 81,-133 194,-237 337,-312 143,-74 305,-112 485,-112 180,0 341,38 484,112 144,75 256,179 337,312 81,133 122,283 122,450 0,167 -41,317 -122,450 -81,133 -193,237 -337,312 -143,75 -304,112 -484,112zm0 -456c70,0 133,-17 190,-51 56,-35 101,-83 134,-146 34,-63 51,-137 51,-221 0,-84 -17,-158 -51,-221 -33,-63 -78,-111 -134,-145 -57,-35 -120,-52 -190,-52 -70,0 -134,17 -190,52 -57,34 -102,82 -135,145 -33,63 -50,137 -50,221 0,84 17,158 50,221 33,63 78,111 135,146 56,34 120,51 190,51z"/>
  <polygon id="2" class="fil0" points="5231,9273 5226,8511 4863,9122 4615,9122 4252,8537 4252,9273 3738,9273 3738,7601 4201,7601 4746,8492 5276,7601 5739,7601 5744,9273 "/>
  <path id="3" class="fil0" d="M6685 9311c-256,0 -456,-69 -599,-208 -143,-138 -215,-332 -215,-582l0 -920 563 0 0 903c0,123 22,212 66,267 44,56 107,84 190,84 83,0 146,-28 190,-84 44,-55 65,-144 65,-267l0 -903 554 0 0 920c0,250 -71,444 -215,582 -143,139 -343,208 -599,208z"/>
  <polygon id="4" class="fil0" points="9274,7601 9274,9273 8811,9273 8175,8514 8175,9273 7626,9273 7626,7601 8089,7601 8725,8361 8725,7601 "/>
  <polygon id="5" class="fil0" points="9415,7601 9979,7601 9979,9273 9415,9273 "/>
  <path id="6" class="fil0" d="M10984 9311c-177,0 -336,-37 -477,-111 -142,-74 -253,-177 -334,-310 -80,-133 -120,-284 -120,-453 0,-169 40,-319 120,-452 81,-133 192,-237 334,-311 141,-74 300,-111 477,-111 163,0 307,29 435,86 127,57 232,140 315,248l-356 318c-103,-130 -225,-196 -365,-196 -118,0 -213,38 -284,114 -72,75 -108,177 -108,304 0,127 36,229 108,305 71,75 166,113 284,113 140,0 262,-65 365,-196l356 318c-83,108 -188,191 -315,248 -128,57 -272,86 -435,86z"/>
  <path id="7" class="fil0" d="M12880 8982l-635 0 -112 291 -573 0 731 -1672 554 0 730 1672 -582 0 -113 -291zm-155 -406l-162 -421 -163 421 325 0z"/>
  <path id="8" class="fil0" d="M14375 9311c-176,0 -335,-37 -477,-111 -142,-74 -253,-177 -333,-310 -81,-133 -121,-284 -121,-453 0,-169 40,-319 121,-452 80,-133 191,-237 333,-311 142,-74 301,-111 477,-111 163,0 308,29 435,86 127,57 233,140 315,248l-356 318c-103,-130 -225,-196 -365,-196 -118,0 -212,38 -284,114 -72,75 -107,177 -107,304 0,127 35,229 107,305 72,75 166,113 284,113 140,0 262,-65 365,-196l356 318c-82,108 -188,191 -315,248 -127,57 -272,86 -435,86z"/>
  <polygon id="9" class="fil0" points="15157,7601 15720,7601 15720,9273 15157,9273 "/>
  <path id="10" class="fil0" d="M16738 9311c-180,0 -342,-37 -485,-112 -143,-75 -256,-179 -337,-312 -81,-133 -122,-283 -122,-450 0,-167 41,-317 122,-450 81,-133 194,-237 337,-312 143,-74 305,-112 485,-112 180,0 341,38 484,112 144,75 256,179 337,312 81,133 122,283 122,450 0,167 -41,317 -122,450 -81,133 -193,237 -337,312 -143,75 -304,112 -484,112zm0 -456c70,0 133,-17 190,-51 56,-35 101,-83 134,-146 34,-63 51,-137 51,-221 0,-84 -17,-158 -51,-221 -33,-63 -78,-111 -134,-145 -57,-35 -120,-52 -190,-52 -70,0 -134,17 -190,52 -57,34 -102,82 -135,145 -33,63 -50,137 -50,221 0,84 17,158 50,221 33,63 78,111 135,146 56,34 120,51 190,51zm64 -1772l514 0 -471 382 -358 0 315 -382z"/>
  <polygon id="11" class="fil0" points="19403,7601 19403,9273 18940,9273 18304,8514 18304,9273 17755,9273 17755,7601 18218,7601 18854,8361 18854,7601 "/>
 </g>
</svg>
