<?xml version="1.0" encoding="UTF-8"?>
<!DOCTYPE svg PUBLIC "-//W3C//DTD SVG 1.1//EN" "http://www.w3.org/Graphics/SVG/1.1/DTD/svg11.dtd">
<!-- Creator: CorelDRAW X8 -->
<svg xmlns="http://www.w3.org/2000/svg" xml:space="preserve" width="208.196mm" height="45.6463mm" version="1.1" style="shape-rendering:geometricPrecision; text-rendering:geometricPrecision; image-rendering:optimizeQuality; fill-rule:evenodd; clip-rule:evenodd"
viewBox="0 0 74568 16349"
 xmlns:xlink="http://www.w3.org/1999/xlink">
 <defs>
  <style type="text/css">
   <![CDATA[
    .fil0 {fill:#583D86;fill-rule:nonzero}
   ]]>
  </style>
 </defs>
 <g id="Capa_x0020_1">
  <metadata id="CorelCorpID_0Corel-Layer"/>
  <path class="fil0" d="M9864 9151c-1963,469 -4037,914 -5713,1618 -2355,993 -4071,2231 -4105,3459 -46,1328 1695,2121 3068,2121 2824,0 6417,-4621 8112,-7220 648,-113 1295,-234 2021,-302 179,-43 99,-157 9,-157 -423,12 -1059,56 -1772,145 2118,-2979 3883,-6738 4050,-7152 10,-33 22,-111 22,-145 12,-312 -157,-691 -414,-892 -210,-179 -355,-225 -423,-225 -34,0 -55,12 -55,12 89,44 133,158 133,291 -22,558 -905,1774 -1328,2299 -1997,2522 -5691,5836 -6885,5836 -235,0 -513,-101 -457,-459 135,-803 1092,-1741 2142,-3001 580,-691 1786,-2043 1808,-2712 44,-1306 -960,-2387 -2277,-2466 -3158,-201 -7220,2555 -7285,4632 -24,646 646,1630 1596,1630 1080,0 2855,-1074 4642,-3114 121,-145 154,-303 -34,-145 -1618,1395 -4130,2700 -5201,2700 -246,0 -367,-145 -357,-336 55,-1673 4731,-5111 7287,-4753 401,55 981,179 959,916 -33,902 -1462,2275 -1953,2868 -1059,1204 -2142,2454 -2142,3080 -10,1136 938,1716 2031,1716 916,0 4632,-3716 6283,-6191 -681,1194 -2009,3636 -3762,5947zm-8969 5725c-90,-771 947,-1842 2543,-2824 2253,-1383 4241,-1941 6192,-2466 -2130,2991 -5031,6103 -7454,6115 -513,0 -1204,-244 -1281,-825z"/>
  <path id="1" class="fil0" d="M18358 6250l2913 -4018c12,-22 22,-44 22,-66 22,-157 -413,-827 -624,-1015 -268,-235 -358,-145 -346,-145 189,99 66,466 -169,926 -491,892 -1917,2790 -3022,4318 -950,1327 -1932,2800 -2166,3392 -22,56 -56,123 -56,179 -9,210 201,524 435,759 158,145 312,235 457,235 336,0 1630,-1241 2367,-2010 747,-771 1284,-1385 1519,-1707 55,-79 -34,-157 -102,-79 -1472,1441 -3336,2969 -3549,2969 -44,0 -56,-22 -56,-56 12,-469 2312,-3593 2377,-3682z"/>
  <path id="2" class="fil0" d="M18247 9318c-68,882 947,1395 1361,1463 1842,324 4753,-2969 4876,-4231 760,-10 1405,-66 1608,-133 334,-112 211,-179 65,-157 -166,33 -913,58 -1673,12 -89,-849 -759,-1608 -1351,-1473 -322,68 -1016,346 -1315,670 -1395,413 -3482,2500 -3571,3849zm759 658c22,-781 1605,-3102 3235,-3658 358,111 848,176 1339,210 -858,1586 -3302,3805 -4228,3817 -235,0 -358,-145 -346,-369zm4843 -4340c0,179 -56,367 -136,568 -612,-90 -1093,-244 -1037,-525 56,-222 312,-522 636,-590 358,-67 558,145 537,547z"/>
  <path id="3" class="fil0" d="M28648 6293c-513,704 -1081,1574 -1429,2176 -1383,2266 -2744,4778 -2778,6028 -10,657 972,1349 1373,1337 837,-10 3559,-2587 3648,-6705 13,-604 -21,-1339 -200,-1953l771 -1049c914,-78 1896,-291 2643,-692 55,-34 46,-111 -22,-89 -469,157 -1025,222 -1605,222 -235,0 -426,0 -615,-10l2377 -3314c10,-22 22,-46 22,-68 22,-155 -414,-824 -624,-1015 -268,-235 -348,-146 -348,-146 191,102 68,470 -167,926 -401,726 -1438,2143 -2343,3393 -246,-90 -447,-189 -682,-312 -232,200 -500,636 -500,771 0,121 123,210 300,266 55,55 123,145 179,234zm524 2346c-9,1617 -679,3133 -1438,4306 -917,1416 -2009,2333 -2411,2333 -46,0 -157,0 -145,-157 22,-748 2053,-4887 3883,-7677 90,389 111,803 111,1195z"/>
  <path id="4" class="fil0" d="M30077 9642c-22,56 -56,123 -56,179 -10,210 201,524 435,759 157,145 324,235 457,235 336,0 1630,-1241 2367,-2010 747,-771 1284,-1385 1518,-1707 56,-79 -24,-157 -89,-79 -1485,1441 -3327,2969 -3561,2969 -44,0 -56,-22 -56,-56 12,-222 491,-1027 1049,-1818 859,-1194 1574,-2031 1584,-2210 0,-157 -322,-691 -534,-882 -257,-235 -358,-145 -346,-145 188,101 22,524 -247,959 -790,1173 -2151,2868 -2521,3806zm3817 -5312c44,-22 1105,-836 1328,-1139 21,-33 33,-43 33,-65 22,-169 -256,-725 -626,-994 -290,-212 -389,-135 -389,-135 111,46 145,157 145,281 -22,456 -302,1148 -704,1907 -33,68 56,256 213,145z"/>
  <path id="5" class="fil0" d="M36404 7009c793,-691 1484,-1151 2142,-1228 290,-34 515,77 592,200 68,102 112,223 90,337 157,-146 212,-494 222,-639 56,-534 -290,-1025 -524,-981 -501,111 -1797,1240 -2421,1808 -336,302 -626,602 -916,914 571,-757 1061,-1383 1071,-1516 0,-157 -346,-691 -546,-882 -266,-235 -368,-145 -356,-145 189,101 22,524 -246,959 -303,424 -1083,1541 -1540,2210l-590 859c-203,323 -358,580 -426,780 -123,337 435,1006 547,1028 123,22 234,-22 157,-89 -34,-56 43,-312 244,-704 469,-846 1330,-1920 2500,-2911z"/>
  <path id="6" class="fil0" d="M37441 9685c-68,337 413,1006 525,1028 123,22 256,-56 157,-89 -12,0 -12,0 -24,-13 -278,-166 1709,-2253 2700,-3256 1274,-1262 2312,-1886 2546,-1988 -1049,1395 -2444,3204 -2691,4096 -89,336 435,1003 559,1028 123,21 246,-56 145,-90 -22,-12 -34,-34 -44,-68 145,-558 1528,-2009 2476,-2969 1194,-1225 2333,-1830 2602,-1951 -1105,1417 -2624,3371 -2926,4127 -10,34 -22,80 -22,114 -55,423 491,1161 892,1161 349,0 1654,-1275 2379,-2010 680,-691 1272,-1385 1507,-1697 55,-77 -12,-167 -90,-89 -1496,1450 -3327,2969 -3561,2969 -44,0 -56,-22 -56,-56 12,-413 1185,-1963 1562,-2423 426,-524 1240,-1460 1240,-1460 10,-22 22,-46 22,-68 22,-145 -324,-725 -546,-947 -78,-90 -157,-167 -247,-191 -65,-22 -121,0 -133,0 -503,135 -2388,1786 -2824,2243 -534,559 -1114,1204 -1583,1797 648,-960 1438,-2043 2231,-2834 12,-22 22,-46 22,-68 22,-157 -300,-703 -558,-947 -201,-191 -278,-167 -334,-167 -414,0 -2299,1729 -2778,2207 -503,515 -1049,1105 -1485,1652 893,-1217 2031,-2612 2041,-2822 0,-191 -322,-691 -534,-882 -257,-235 -358,-145 -346,-145 189,101 22,524 -247,959 -904,1352 -2442,3226 -2577,3849z"/>
  <path id="7" class="fil0" d="M53309 6037c24,-670 -636,-1250 -1495,-1250 -759,0 -1963,716 -3036,1618 -1248,1061 -2331,2434 -2353,3147 -24,537 658,1250 960,1250 411,0 1963,-1250 3192,-2398l747 -682c-849,1083 -1262,1664 -1340,1852 -12,34 -22,80 -22,111 -45,426 525,1130 948,1130 12,0 22,0 44,-13 682,-200 3305,-2956 3839,-3694 46,-77 -22,-167 -99,-89 -1463,1429 -3361,2981 -3605,2981 -55,0 -55,-24 -55,-56 21,-203 614,-1172 1595,-2277l269 -312c9,-22 21,-34 21,-56 22,-101 -145,-413 -302,-648 336,-167 692,-447 692,-614zm-1149 324c-123,870 -4373,3661 -4775,3661 -80,0 -89,-46 -89,-78 9,-379 1059,-1709 2309,-2891 892,-825 1852,-1519 2633,-1695 79,-24 178,-34 268,-34 167,0 302,55 334,244 33,213 -56,537 -346,926 -99,-111 -133,-133 -167,-155 -145,-123 -222,-55 -213,-55 34,21 46,55 46,77z"/>
  <path id="8" class="fil0" d="M52941 9685c-68,337 414,1006 525,1028 123,22 256,-56 157,-89 -12,0 -12,0 -24,-13 -278,-166 1709,-2253 2700,-3256 1275,-1262 2312,-1886 2546,-1988 -1049,1395 -2444,3204 -2691,4096 -89,336 435,1003 559,1028 123,21 246,-56 145,-90 -22,-12 -34,-34 -44,-68 145,-558 1528,-2009 2476,-2969 1194,-1225 2333,-1830 2602,-1951 -1105,1417 -2624,3371 -2926,4127 -10,34 -22,80 -22,114 -55,423 491,1161 893,1161 348,0 1653,-1275 2379,-2010 679,-691 1271,-1385 1506,-1697 55,-77 -12,-167 -90,-89 -1496,1450 -3326,2969 -3561,2969 -43,0 -56,-22 -56,-56 13,-413 1185,-1963 1562,-2423 426,-524 1241,-1460 1241,-1460 9,-22 21,-46 21,-68 22,-145 -324,-725 -546,-947 -77,-90 -157,-167 -247,-191 -65,-22 -121,0 -133,0 -503,135 -2388,1786 -2824,2243 -534,559 -1114,1204 -1583,1797 648,-960 1438,-2043 2231,-2834 12,-22 22,-46 22,-68 22,-157 -300,-703 -558,-947 -201,-191 -278,-167 -334,-167 -413,0 -2299,1729 -2778,2207 -503,515 -1049,1105 -1484,1652 892,-1217 2030,-2612 2040,-2822 0,-191 -321,-691 -534,-882 -256,-235 -358,-145 -346,-145 189,101 22,524 -247,959 -904,1352 -2441,3226 -2577,3849z"/>
  <path id="9" class="fil0" d="M62293 9318c-68,882 948,1395 1361,1463 1842,324 4753,-2969 4877,-4231 759,-10 1404,-66 1607,-133 334,-112 211,-179 66,-157 -167,33 -914,58 -1673,12 -90,-849 -759,-1608 -1352,-1473 -321,68 -1015,346 -1315,670 -1395,413 -3482,2500 -3571,3849zm759 658c22,-781 1605,-3102 3235,-3658 358,111 849,176 1339,210 -858,1586 -3302,3805 -4228,3817 -235,0 -358,-145 -346,-369zm4843 -4340c0,179 -56,367 -136,568 -611,-90 -1092,-244 -1037,-525 56,-222 312,-522 636,-590 358,-67 559,145 537,547z"/>
  <path id="10" class="fil0" d="M70025 7287c22,-525 2086,-1886 3157,-1886 145,0 191,56 191,102 0,244 -848,935 -1049,1136 -34,34 0,102 56,80 302,-80 1407,-459 1438,-982 24,-314 -466,-972 -1114,-972 -1229,0 -3426,1183 -3448,2109 -24,515 624,737 1238,959 -324,136 -636,257 -960,402 -1083,459 -2019,1160 -2154,1574 -90,391 570,1139 1172,1139 970,0 2276,-569 3115,-1217 500,-413 589,-715 601,-981 10,-324 -401,-580 -882,-805 1451,-612 2512,-815 3102,-1016 46,-22 80,-111 0,-99 -725,111 -1985,278 -3648,871 -167,-68 -815,-235 -815,-414zm1417 1139c-90,200 -501,512 -982,793 -880,522 -2065,1126 -2534,1126 -43,0 -77,0 -77,-33 0,-223 725,-948 2043,-1652 413,-225 803,-413 1204,-580 225,90 425,167 346,346z"/>
 </g>
</svg>
