<?xml version="1.0" encoding="UTF-8"?>
<!DOCTYPE svg PUBLIC "-//W3C//DTD SVG 1.1//EN" "http://www.w3.org/Graphics/SVG/1.1/DTD/svg11.dtd">
<!-- Creator: CorelDRAW X8 -->
<svg xmlns="http://www.w3.org/2000/svg" xml:space="preserve" width="5.845mm" height="3.6722mm" version="1.1" style="shape-rendering:geometricPrecision; text-rendering:geometricPrecision; image-rendering:optimizeQuality; fill-rule:evenodd; clip-rule:evenodd"
viewBox="0 0 10 6"
 xmlns:xlink="http://www.w3.org/1999/xlink">
 <defs>
  <style type="text/css">
   <![CDATA[
    .fil0 {fill:#FEB228;fill-rule:nonzero}
   ]]>
  </style>
 </defs>
 <g id="Capa_x0020_1">
  <metadata id="CorelCorpID_0Corel-Layer"/>
  <path class="fil0" d="M5 4c-1,0 -1,0 -1,-1 0,0 0,-1 1,-1 0,0 1,1 1,1 0,1 -1,1 -1,1zm0 -3c0,0 1,0 1,1l-2 0c0,-1 0,-1 1,-1zm1 1c0,0 1,-2 1,0l3 0c0,0 -1,-2 -5,-2l0 0c0,0 0,0 0,0 0,0 0,0 0,0l0 0c-5,0 -5,2 -5,2l2 0c1,-2 1,0 1,0 -1,0 -1,4 -1,4l6 0c0,0 -1,-4 -2,-4z"/>
 </g>
</svg>
