<?xml version="1.0" encoding="UTF-8"?>
<!DOCTYPE svg PUBLIC "-//W3C//DTD SVG 1.1//EN" "http://www.w3.org/Graphics/SVG/1.1/DTD/svg11.dtd">
<!-- Creator: CorelDRAW X8 -->
<svg xmlns="http://www.w3.org/2000/svg" xml:space="preserve" width="4.7615mm" height="4.6598mm" version="1.1" style="shape-rendering:geometricPrecision; text-rendering:geometricPrecision; image-rendering:optimizeQuality; fill-rule:evenodd; clip-rule:evenodd"
viewBox="0 0 34 33"
 xmlns:xlink="http://www.w3.org/1999/xlink">
 <defs>
  <style type="text/css">
   <![CDATA[
    .fil0 {fill:#FEB228}
   ]]>
  </style>
 </defs>
 <g id="Capa_x0020_1">
  <metadata id="CorelCorpID_0Corel-Layer"/>
  <g id="_2358308711376">
   <path class="fil0" d="M3 24c0,-2 0,-11 0,-14 0,-2 0,-3 2,-5 1,-1 2,-2 4,-2 5,0 9,0 14,0 2,0 4,0 5,1 1,1 2,3 3,5 0,4 0,9 0,14 0,2 -1,3 -2,5 -1,1 -2,2 -5,2 -4,0 -9,0 -13,0 -3,0 -4,0 -6,-2 -1,0 -2,-2 -2,-4zm30 1c1,-1 1,-13 1,-16 0,-5 -4,-8 -8,-9 -2,0 -14,0 -17,0 -5,0 -8,3 -9,7 0,2 0,14 0,17 0,5 3,8 8,9 1,0 14,0 16,0 5,0 9,-3 9,-8z"/>
   <path class="fil0" d="M16 11c3,-1 5,2 6,4 1,3 -1,6 -4,7 -7,1 -10,-9 -2,-11zm0 -3c-5,1 -8,5 -8,10 1,4 5,7 10,7 4,-1 8,-5 7,-10 -1,-4 -4,-8 -9,-7z"/>
   <path class="fil0" d="M25 6c-2,1 -1,4 1,3 3,0 2,-4 -1,-3z"/>
  </g>
 </g>
</svg>
