<?xml version="1.0" encoding="UTF-8"?>
<!DOCTYPE svg PUBLIC "-//W3C//DTD SVG 1.1//EN" "http://www.w3.org/Graphics/SVG/1.1/DTD/svg11.dtd">
<!-- Creator: CorelDRAW X8 -->
<svg xmlns="http://www.w3.org/2000/svg" xml:space="preserve" width="32.8534mm" height="15.3011mm" version="1.1" style="shape-rendering:geometricPrecision; text-rendering:geometricPrecision; image-rendering:optimizeQuality; fill-rule:evenodd; clip-rule:evenodd"
viewBox="0 0 344 160"
 xmlns:xlink="http://www.w3.org/1999/xlink">
 <defs>
  <style type="text/css">
   <![CDATA[
    .fil0 {fill:#727376;fill-rule:nonzero}
    .fil1 {fill:#654496;fill-rule:nonzero}
   ]]>
  </style>
 </defs>
 <g id="Capa_x0020_1">
  <metadata id="CorelCorpID_0Corel-Layer"/>
  <g id="_2358308722992">
   <path class="fil0" d="M138 109c-8,0 -13,-2 -17,-7 -3,-5 -5,-12 -5,-21l0 -45 18 0 0 41c0,11 3,16 11,16 4,0 7,-1 10,-3 3,-2 6,-5 8,-10l0 -44 18 0 0 72 -15 0 0 -14c-3,5 -7,9 -12,11 -5,3 -10,4 -16,4z"/>
   <path class="fil1" d="M97 43l-41 -40c-3,-4 -9,-4 -12,0l-41 40c-1,2 -3,4 -3,7l0 49c0,5 4,9 9,9l24 0 0 -72 17 0 0 15c1,-2 2,-4 4,-6 2,-2 4,-4 6,-6 2,-1 4,-2 6,-3 2,-1 4,-1 6,-1l2 0c1,0 1,0 1,0l0 17c-5,0 -10,1 -14,3 -5,2 -8,5 -10,9l0 44 40 0c5,0 9,-4 9,-9l0 -49c0,-3 -1,-5 -3,-7z"/>
   <path class="fil0" d="M194 72c0,-5 1,-10 3,-14 2,-5 4,-9 7,-12 3,-4 7,-6 12,-8 4,-2 9,-3 15,-3 8,0 14,1 20,5 5,3 9,8 12,13l-18 6c-1,-3 -3,-5 -6,-7 -2,-1 -5,-2 -8,-2 -3,0 -5,1 -7,2 -2,1 -4,2 -6,4 -2,2 -3,4 -4,7 -1,3 -1,6 -1,9 0,3 0,6 1,9 1,2 2,5 4,6 2,2 4,4 6,5 2,1 4,1 7,1 3,0 6,0 9,-2 3,-2 4,-4 6,-6l17 5c-2,6 -6,10 -12,14 -5,3 -12,5 -20,5 -5,0 -11,-1 -15,-3 -5,-2 -9,-5 -12,-8 -3,-4 -5,-7 -7,-12 -2,-5 -3,-9 -3,-14z"/>
   <path class="fil0" d="M300 109c-4,0 -7,0 -10,-2 -3,-1 -5,-2 -7,-4 -3,-2 -4,-5 -5,-8 -2,-2 -2,-5 -2,-9 0,-3 0,-6 2,-9 1,-3 3,-5 6,-7 3,-2 6,-4 9,-5 4,-1 8,-2 12,-2 4,0 7,0 10,1 3,1 5,1 8,2l0 -4c0,-5 -2,-8 -4,-11 -3,-2 -7,-4 -12,-4 -4,0 -7,1 -11,2 -4,2 -7,4 -11,6l-5 -11c9,-6 18,-9 29,-9 10,0 18,2 23,7 6,5 8,13 8,22l0 44 -15 0 0 -12c-3,4 -7,8 -11,10 -5,2 -9,3 -14,3zm5 -13l0 0c3,0 6,-1 8,-2 11,-5 10,-18 10,-18 -3,-1 -5,-1 -7,-2 -3,0 -5,-1 -8,-1 -4,0 -8,2 -11,4 -3,2 -4,5 -4,8 0,3 1,6 3,8 2,2 5,3 9,3z"/>
   <polygon class="fil0" points="7,133 11,133 11,160 7,160 "/>
   <polygon id="1" class="fil0" points="55,133 55,160 52,160 36,140 36,160 32,160 32,133 35,133 51,153 51,133 "/>
   <polygon id="2" class="fil0" points="101,160 101,140 91,157 90,157 80,140 80,160 76,160 76,133 79,133 91,152 102,133 105,133 105,160 "/>
   <path id="3" class="fil0" d="M137 160c-3,0 -6,-1 -8,-3 -2,-2 -3,-5 -3,-9l0 -15 4 0 0 15c0,6 2,9 7,9 3,0 5,-1 6,-2 1,-2 2,-4 2,-7l0 -15 4 0 0 15c0,4 -1,7 -3,9 -2,2 -5,3 -9,3z"/>
   <polygon id="4" class="fil0" points="189,157 189,160 170,160 170,133 189,133 189,136 174,136 174,145 187,145 187,148 174,148 174,157 "/>
   <path id="5" class="fil0" d="M227 146c1,0 3,1 4,2 1,1 1,3 1,5 0,2 -1,4 -3,5 -1,1 -4,2 -7,2l-13 0 0 -27 12 0c3,0 5,0 7,2 2,1 3,3 3,5 0,1 -1,3 -1,4 -1,1 -2,1 -3,2zm-14 -10l0 9 7 0c2,0 4,-1 5,-1 1,-1 2,-2 2,-4 0,-1 -1,-2 -2,-3 -1,-1 -3,-1 -5,-1l-7 0zm8 21c3,0 4,0 5,-1 2,-1 2,-2 2,-4 0,-3 -2,-4 -7,-4l-8 0 0 9 8 0z"/>
   <polygon id="6" class="fil0" points="251,133 255,133 255,157 270,157 270,160 251,160 "/>
   <polygon id="7" class="fil0" points="307,157 307,160 287,160 287,133 306,133 306,136 291,136 291,145 304,145 304,148 291,148 291,157 "/>
   <path id="8" class="fil0" d="M334 160c-2,0 -4,0 -6,-1 -2,0 -4,-1 -5,-2l2 -3c1,1 2,2 4,2 1,1 3,1 5,1 2,0 4,0 5,-1 1,-1 1,-2 1,-3 0,-1 0,-2 0,-2 -1,-1 -2,-1 -3,-2 -1,0 -2,0 -4,-1 -2,0 -3,-1 -4,-1 -2,-1 -3,-2 -4,-3 -1,-1 -1,-2 -1,-4 0,-1 0,-2 1,-4 1,-1 2,-2 4,-2 1,-1 3,-1 5,-1 2,0 4,0 5,0 2,1 3,1 4,2l-1 3c-1,-1 -3,-1 -4,-2 -1,0 -2,0 -4,0 -2,0 -3,0 -5,1 -1,1 -1,2 -1,3 0,1 0,2 1,2 0,1 1,1 2,2 1,0 2,0 4,1 2,0 3,1 5,1 1,1 2,2 3,3 1,1 1,2 1,4 0,1 0,2 -1,4 -1,1 -2,2 -3,2 -2,1 -4,1 -6,1z"/>
  </g>
 </g>
</svg>
