<?xml version="1.0" encoding="UTF-8"?>
<!DOCTYPE svg PUBLIC "-//W3C//DTD SVG 1.1//EN" "http://www.w3.org/Graphics/SVG/1.1/DTD/svg11.dtd">
<!-- Creator: CorelDRAW X8 -->
<svg xmlns="http://www.w3.org/2000/svg" xml:space="preserve" width="5.3179mm" height="5.3514mm" version="1.1" style="shape-rendering:geometricPrecision; text-rendering:geometricPrecision; image-rendering:optimizeQuality; fill-rule:evenodd; clip-rule:evenodd"
viewBox="0 0 31 31"
 xmlns:xlink="http://www.w3.org/1999/xlink">
 <defs>
  <style type="text/css">
   <![CDATA[
    .fil0 {fill:#FEB228}
   ]]>
  </style>
 </defs>
 <g id="Capa_x0020_1">
  <metadata id="CorelCorpID_0Corel-Layer"/>
  <g id="_2358276976384">
   <path class="fil0" d="M7 24c0,-1 0,-1 0,-2l1 -2c0,-1 -2,-4 -1,-8 1,-2 2,-3 3,-4 2,-2 3,-2 6,-2 3,0 6,1 8,4 2,5 1,10 -3,12 -2,2 -6,2 -8,1 -1,0 -1,0 -1,0 -1,0 -3,0 -4,1 0,0 -1,0 -1,0zm8 7c4,0 4,0 7,-1l1 0c0,0 0,0 0,0 0,0 0,0 0,0 0,0 0,0 1,-1l2 -1c2,-2 2,-3 2,-3l1 -2c1,-1 2,-2 2,-4 0,-1 0,0 0,-3 0,-5 -1,-6 -3,-9 0,-1 0,-1 -1,-2l-1 -1c-1,-1 -1,-1 -2,-2l-2 -1c-1,0 -1,0 -2,0 -2,-1 -3,-1 -5,-1 -2,0 -3,0 -5,1 -1,0 -1,0 -2,1 0,0 0,0 0,0 -1,0 -1,1 -2,1 0,1 -1,1 -1,2 -3,1 -5,6 -5,9 0,1 0,3 0,3 0,2 1,5 2,7 2,2 1,2 4,5 1,0 2,0 2,1 1,0 1,0 1,0l2 1c2,0 3,0 4,0z"/>
   <path class="fil0" d="M15 18c0,0 0,0 0,0 0,0 -1,-1 -1,-1 -1,0 -2,-2 -3,-3 0,-1 1,-3 1,-3 1,-1 2,0 2,2 1,1 -1,0 1,2 0,1 1,2 2,2 1,-1 1,-1 2,-1l1 1c1,3 -3,2 -5,1 0,0 0,0 0,0zm-6 4c1,0 2,-1 3,-1 2,1 3,2 6,1 5,-1 7,-7 4,-11 -3,-5 -10,-5 -13,0 0,1 0,1 0,2 -1,1 -1,0 -1,2 0,1 1,3 1,4 1,1 0,2 0,3z"/>
  </g>
 </g>
</svg>
